{
.appVersion = "1359";
copyright = "Copyright 2018 The Ms Madi Project Authors (https://github.com/googlefonts/ms-madi)";
customParameters = (
{
name = panose;
value = (
2,
0,
5,
3,
2,
0,
0,
2,
0,
3
);
},
{
name = blueScale;
value = 0.02386;
},
{
name = licenseURL;
value = "https://scripts.sil.org/OFL";
},
{
name = license;
value = "This Font Software is licensed under the SIL Open Font License, Version 1.1. This license is available with a FAQ at: https://scripts.sil.org/OFL";
},
{
name = vendorID;
value = GOOG;
},
{
name = "Disable Subroutines";
value = 1;
},
{
name = glyphOrder;
value = (
.notdef,
CR,
.null,
space,
nbspace
);
},
{
name = fsType;
value = (
);
},
{
name = "Use Typo Metrics";
value = 1;
}
);
date = "2022-02-07 22:16:12 +0000";
designer = "Robert E. Leuschke";
designerURL = www.typesetit.com;
disablesNiceNames = 1;
familyName = "Ms Madi";
featurePrefixes = (
{
automatic = 1;
code = "languagesystem DFLT dflt;\012\012languagesystem latn dflt;\012languagesystem latn AZE;\012languagesystem latn CRT;\012languagesystem latn KAZ;\012languagesystem latn TAT;\012languagesystem latn TRK;\012languagesystem latn ROM;\012languagesystem latn MOL;\012languagesystem latn CAT;\012";
name = Languagesystems;
}
);
features = (
{
automatic = 1;
code = "feature locl;\012feature sups;\012feature frac;\012feature ordn;\012";
name = aalt;
},
{
automatic = 1;

glyphs = (
{
glyphname = .notdef;
lastChange = "2022-02-08 00:04:09 +0000";
layers = (
{
background = {
paths = (
{
closed = 1;
nodes = (
"50 0 LINE",
"424 0 LINE",
"424 702 LINE",
"50 702 LINE"
);
},
{
closed = 1;
nodes = (
"369 674 LINE",
"236 393 LINE",
"102 674 LINE"
);
},
{
closed = 1;
nodes = (
"387 638 LINE",
"387 75 LINE",
"253 357 LINE"
);
},
{
closed = 1;
nodes = (
"85 77 LINE",
"85 637 LINE",
"218 357 LINE"
);
},
{
closed = 1;
nodes = (
"370 40 LINE",
"101 40 LINE",
"236 322 LINE"
);
}
);
};
layerId = "6A041D6C-A676-4DB4-A570-80A8F8AA896B";
paths = (
{
closed = 1;
nodes = (
"424 10 LINE",
"424 712 LINE",
"50 712 LINE",
"50 10 LINE"
);
},
{
closed = 1;
nodes = (
"236 332 LINE",
"370 50 LINE",
"101 50 LINE"
);
},
{
closed = 1;
nodes = (
"85 647 LINE",
"218 367 LINE",
"85 87 LINE"
);
},
{
closed = 1;
nodes = (
"253 367 LINE",
"387 648 LINE",
"387 85 LINE"
);
},
{
closed = 1;
nodes = (
"102 684 LINE",
"369 684 LINE",
"236 403 LINE"
);
}
);
width = 474;
}
);
note = .notdef;
},
{
color = 3;
glyphname = A;
lastChange = "2022-03-02 17:01:33 +0000";
layers = (
{
anchors = (
{
name = bottom;
position = "{581, 0}";
},
{
name = ogonek;
position = "{830, 10}";
},
{
name = top;
position = "{1018, 640}";
}
);
background = {
paths = (
{
closed = 1;
nodes = (
"1083 659 OFFCURVE",
"1020 657 OFFCURVE",
"981 640 CURVE SMOOTH",
"904 607 OFFCURVE",
"782 459 OFFCURVE",
"563 201 CURVE",
"508 196 OFFCURVE",
"452 189 OFFCURVE",
"404 181 CURVE SMOOTH",
"383 177 OFFCURVE",
"385 148 OFFCURVE",
"405 152 CURVE SMOOTH",
"447 162 OFFCURVE",
"493 170 OFFCURVE",
"544 175 CURVE",
"437 59 OFFCURVE",
"296 -85 OFFCURVE",
"182 -85 CURVE SMOOTH",
"30 -85 OFFCURVE",
"10 78 OFFCURVE",
"74 223 CURVE SMOOTH",
"127 341 OFFCURVE",
"239 446 OFFCURVE",
"355 446 CURVE SMOOTH",
"505 446 OFFCURVE",
"475 320 OFFCURVE",
"417 305 CURVE SMOOTH",
"395 299 OFFCURVE",
"405 270 OFFCURVE",
"425 276 CURVE SMOOTH",
"511 301 OFFCURVE",
"551 470 OFFCURVE",
"358 470 CURVE SMOOTH",
"226 470 OFFCURVE",
"105 364 OFFCURVE",
"47 240 CURVE SMOOTH",
"-28 78 OFFCURVE",
"-2 -113 OFFCURVE",
"182 -113 CURVE SMOOTH",
"308 -113 OFFCURVE",
"469 49 OFFCURVE",
"577 170 CURVE SMOOTH",
"580 173 OFFCURVE",
"584 176 OFFCURVE",
"586 179 CURVE",
"655 185 OFFCURVE",
"727 185 OFFCURVE",
"782 185 CURVE",
"768 115 OFFCURVE",
"764 50 OFFCURVE",
"774 0 CURVE SMOOTH",
"794 -97 OFFCURVE",
"868 -94 OFFCURVE",
"898 -31 CURVE SMOOTH",
"906 -14 OFFCURVE",
"889 -7 OFFCURVE",
"876 -23 CURVE SMOOTH",
"831 -80 OFFCURVE",
"815 -42 OFFCURVE",
"805 8 CURVE SMOOTH",
"796 56 OFFCURVE",
"801 119 OFFCURVE",
"818 185 CURVE",
"837 185 OFFCURVE",
"854 184 OFFCURVE",
"867 184 CURVE SMOOTH",
"889 184 OFFCURVE",
"885 211 OFFCURVE",
"862 212 CURVE SMOOTH",
"853 213 OFFCURVE",
"841 212 OFFCURVE",
"823 212 CURVE",
"865 361 OFFCURVE",
"947 520 OFFCURVE",
"1020 595 CURVE SMOOTH"
);
},
{
closed = 1;
nodes = (
"1000 627 OFFCURVE",
"978 597 OFFCURVE",
"973 590 CURVE SMOOTH",
"908 512 OFFCURVE",
"825 358 OFFCURVE",
"789 213 CURVE",
"739 212 OFFCURVE",
"674 210 OFFCURVE",
"609 206 CURVE",
"808 445 OFFCURVE",
"925 594 OFFCURVE",
"997 625 CURVE"
);
}
);
};
layerId = "6A041D6C-A676-4DB4-A570-80A8F8AA896B";
paths = (
{
closed = 1;
nodes = (
"308 -103 OFFCURVE",
"469 59 OFFCURVE",
"577 180 CURVE SMOOTH",
"580 183 OFFCURVE",
"584 186 OFFCURVE",
"586 189 CURVE",
"655 195 OFFCURVE",
"727 195 OFFCURVE",
"782 195 CURVE",
"773 151 OFFCURVE",
"768 110 OFFCURVE",
"768 73 CURVE SMOOTH",
"768 50 OFFCURVE",
"770 29 OFFCURVE",
"774 10 CURVE SMOOTH",
"785 -43 OFFCURVE",
"812 -66 OFFCURVE",
"839 -66 CURVE SMOOTH",
"862 -66 OFFCURVE",
"884 -50 OFFCURVE",
"898 -21 CURVE SMOOTH",
"903 -11 OFFCURVE",
"898 -4 OFFCURVE",
"891 -4 CURVE SMOOTH",
"887 -4 OFFCURVE",
"881 -7 OFFCURVE",
"876 -13 CURVE SMOOTH",
"860 -33 OFFCURVE",
"848 -42 OFFCURVE",
"838 -42 CURVE SMOOTH",
"820 -42 OFFCURVE",
"811 -14 OFFCURVE",
"805 18 CURVE SMOOTH",
"802 34 OFFCURVE",
"801 51 OFFCURVE",
"801 70 CURVE SMOOTH",
"801 108 OFFCURVE",
"807 151 OFFCURVE",
"818 195 CURVE",
"837 195 OFFCURVE",
"854 194 OFFCURVE",
"867 194 CURVE SMOOTH",
"877 194 OFFCURVE",
"882 199 OFFCURVE",
"882 206 CURVE SMOOTH",
"882 213 OFFCURVE",
"875 221 OFFCURVE",
"862 222 CURVE SMOOTH",
"853 223 OFFCURVE",
"841 222 OFFCURVE",
"823 222 CURVE",
"865 371 OFFCURVE",
"947 530 OFFCURVE",
"1020 605 CURVE SMOOTH",
"1039 624 OFFCURVE",
"1047 638 OFFCURVE",
"1047 646 CURVE SMOOTH",
"1047 656 OFFCURVE",
"1038 660 OFFCURVE",
"1025 660 CURVE SMOOTH",
"1012 660 OFFCURVE",
"995 656 OFFCURVE",
"981 650 CURVE SMOOTH",
"904 617 OFFCURVE",
"782 469 OFFCURVE",
"563 211 CURVE",
"508 206 OFFCURVE",
"452 199 OFFCURVE",
"404 191 CURVE SMOOTH",
"394 189 OFFCURVE",
"389 181 OFFCURVE",
"389 174 CURVE SMOOTH",
"389 168 OFFCURVE",
"393 162 OFFCURVE",
"401 162 CURVE SMOOTH",
"405 162 LINE",
"447 172 OFFCURVE",
"493 180 OFFCURVE",
"544 185 CURVE",
"437 69 OFFCURVE",
"296 -75 OFFCURVE",
"182 -75 CURVE SMOOTH",
"83 -75 OFFCURVE",
"40 -5 OFFCURVE",
"40 83 CURVE SMOOTH",
"40 130 OFFCURVE",
"52 183 OFFCURVE",
"74 233 CURVE SMOOTH",
"127 351 OFFCURVE",
"239 456 OFFCURVE",
"355 456 CURVE SMOOTH",
"441 456 OFFCURVE",
"468 414 OFFCURVE",
"468 372 CURVE SMOOTH",
"468 329 OFFCURVE",
"440 285 OFFCURVE",
"420 285 CURVE SMOOTH",
"421 285 OFFCURVE",
"423 285 OFFCURVE",
"425 286 CURVE",
"466 298 OFFCURVE",
"496 342 OFFCURVE",
"496 386 CURVE SMOOTH",
"496 433 OFFCURVE",
"459 480 OFFCURVE",
"358 480 CURVE SMOOTH",
"226 480 OFFCURVE",
"105 374 OFFCURVE",
"47 250 CURVE SMOOTH",
"22 195 OFFCURVE",
"8 137 OFFCURVE",
"8 84 CURVE SMOOTH",
"8 -20 OFFCURVE",
"60 -103 OFFCURVE",
"182 -103 CURVE SMOOTH"
);
},
{
closed = 1;
nodes = (
"808 455 OFFCURVE",
"925 604 OFFCURVE",
"997 635 CURVE",
"1000 637 OFFCURVE",
"978 607 OFFCURVE",
"973 600 CURVE SMOOTH",
"908 522 OFFCURVE",
"825 368 OFFCURVE",
"789 223 CURVE",
"739 222 OFFCURVE",
"674 220 OFFCURVE",
"609 216 CURVE"
);
}
);
width = 922;
}
);
note = A;
unicode = 0041;
},
{
color = 3;
glyphname = AE;
lastChange = "2022-03-02 11:53:54 +0000";
layers = (
{
anchors = (
{
name = top;
position = "{1018, 640}";
}
);
background = {
paths = (
{
closed = 1;
nodes = (
"1410 511 OFFCURVE",
"1406 515 OFFCURVE",
"1400 515 CURVE SMOOTH",
"1391 515 OFFCURVE",
"1384 507 OFFCURVE",
"1384 500 CURVE SMOOTH",
"1384 488 OFFCURVE",
"1400 484 OFFCURVE",
"1411 484 CURVE SMOOTH",
"1456 484 OFFCURVE",
"1490 526 OFFCURVE",
"1490 562 CURVE SMOOTH",
"1490 621 OFFCURVE",
"1422 633 OFFCURVE",
"1368 633 CURVE SMOOTH",
"1245 633 OFFCURVE",
"1081 579 OFFCURVE",
"1017 483 CURVE SMOOTH",
"1003 462 OFFCURVE",
"992 437 OFFCURVE",
"992 412 CURVE SMOOTH",
"992 386 OFFCURVE",
"1005 365 OFFCURVE",
"1028 348 CURVE",
"954 328 OFFCURVE",
"888 298 OFFCURVE",
"836 254 CURVE",
"880 390 OFFCURVE",
"954 527 OFFCURVE",
"1020 595 CURVE SMOOTH",
"1083 659 OFFCURVE",
"1020 657 OFFCURVE",
"981 640 CURVE SMOOTH",
"904 607 OFFCURVE",
"782 459 OFFCURVE",
"563 201 CURVE",
"508 196 OFFCURVE",
"452 189 OFFCURVE",
"404 181 CURVE SMOOTH",
"383 177 OFFCURVE",
"385 148 OFFCURVE",
"405 152 CURVE SMOOTH",
"447 162 OFFCURVE",
"493 170 OFFCURVE",
"544 175 CURVE",
"437 59 OFFCURVE",
"296 -85 OFFCURVE",
"182 -85 CURVE SMOOTH",
"30 -85 OFFCURVE",
"10 78 OFFCURVE",
"74 223 CURVE SMOOTH",
"127 341 OFFCURVE",
"239 446 OFFCURVE",
"355 446 CURVE SMOOTH",
"505 446 OFFCURVE",
"475 320 OFFCURVE",
"417 305 CURVE SMOOTH",
"395 299 OFFCURVE",
"405 270 OFFCURVE",
"425 276 CURVE SMOOTH",
"511 301 OFFCURVE",
"551 470 OFFCURVE",
"358 470 CURVE SMOOTH",
"226 470 OFFCURVE",
"105 364 OFFCURVE",
"47 240 CURVE SMOOTH",
"-28 78 OFFCURVE",
"-2 -113 OFFCURVE",
"182 -113 CURVE SMOOTH",
"308 -113 OFFCURVE",
"469 49 OFFCURVE",
"577 170 CURVE SMOOTH",
"580 173 OFFCURVE",
"584 176 OFFCURVE",
"586 179 CURVE",
"651 185 OFFCURVE",
"719 185 OFFCURVE",
"773 185 CURVE",
"762 169 OFFCURVE",
"752 152 OFFCURVE",
"744 133 CURVE SMOOTH",
"735 114 OFFCURVE",
"730 93 OFFCURVE",
"730 72 CURVE SMOOTH",
"730 -42 OFFCURVE",
"869 -85 OFFCURVE",
"979 -84 CURVE SMOOTH",
"991 -84 LINE SMOOTH",
"1125 -83 OFFCURVE",
"1251 -38 OFFCURVE",
"1353 38 CURVE SMOOTH",
"1380 58 OFFCURVE",
"1411 85 OFFCURVE",
"1428 112 CURVE SMOOTH",
"1440 132 OFFCURVE",
"1449 155 OFFCURVE",
"1449 178 CURVE SMOOTH",
"1449 218 OFFCURVE",
"1418 249 OFFCURVE",
"1370 249 CURVE SMOOTH",
"1361 249 OFFCURVE",
"1353 243 OFFCURVE",
"1353 234 CURVE SMOOTH",
"1353 208 OFFCURVE",
"1415 235 OFFCURVE",
"1415 178 CURVE SMOOTH",
"1415 160 OFFCURVE",
"1408 142 OFFCURVE",
"1398 126 CURVE SMOOTH",
"1385 104 OFFCURVE",
"1360 82 OFFCURVE",
"1339 65 CURVE SMOOTH",
"1243 -10 OFFCURVE",
"1118 -50 OFFCURVE",
"990 -55 CURVE SMOOTH",
"978 -55 LINE SMOOTH",
"886 -55 OFFCURVE",
"763 -23 OFFCURVE",
"763 74 CURVE SMOOTH",
"763 91 OFFCURVE",
"767 108 OFFCURVE",
"774 124 CURVE SMOOTH",
"820 231 OFFCURVE",
"922 290 OFFCURVE",
"1044 320 CURVE SMOOTH",
"1052 322 OFFCURVE",
"1059 324 OFFCURVE",
"1067 325 CURVE",
"1092 315 OFFCURVE",
"1120 312 OFFCURVE",
"1147 312 CURVE SMOOTH",
"1163 312 OFFCURVE",
"1180 313 OFFCURVE",
"1197 315 CURVE SMOOTH",
"1216 317 OFFCURVE",
"1261 331 OFFCURVE",
"1261 352 CURVE SMOOTH",
"1261 368 OFFCURVE",
"1230 369 OFFCURVE",
"1219 369 CURVE SMOOTH",
"1168 369 OFFCURVE",
"1118 365 OFFCURVE",
"1068 356 CURVE",
"1043 368 OFFCURVE",
"1026 386 OFFCURVE",
"1026 412 CURVE SMOOTH",
"1026 432 OFFCURVE",
"1035 451 OFFCURVE",
"1046 468 CURVE SMOOTH",
"1107 559 OFFCURVE",
"1262 606 OFFCURVE",
"1377 606 CURVE SMOOTH",
"1412 606 OFFCURVE",
"1458 600 OFFCURVE",
"1458 561 CURVE SMOOTH",
"1458 543 OFFCURVE",
"1442 511 OFFCURVE",
"1416 511 CURVE SMOOTH"
);
},
{
closed = 1;
nodes = (
"1000 627 OFFCURVE",
"978 597 OFFCURVE",
"973 590 CURVE SMOOTH",
"908 512 OFFCURVE",
"825 358 OFFCURVE",
"789 213 CURVE",
"739 212 OFFCURVE",
"674 210 OFFCURVE",
"609 206 CURVE",
"808 445 OFFCURVE",
"925 594 OFFCURVE",
"997 625 CURVE"
);
}
);
};
layerId = "6A041D6C-A676-4DB4-A570-80A8F8AA896B";
paths = (
{
closed = 1;
nodes = (
"308 -103 OFFCURVE",
"469 59 OFFCURVE",
"577 180 CURVE SMOOTH",
"580 183 OFFCURVE",
"584 186 OFFCURVE",
"586 189 CURVE",
"651 195 OFFCURVE",
"719 195 OFFCURVE",
"773 195 CURVE",
"762 179 OFFCURVE",
"752 162 OFFCURVE",
"744 143 CURVE SMOOTH",
"735 124 OFFCURVE",
"730 103 OFFCURVE",
"730 82 CURVE SMOOTH",
"730 -32 OFFCURVE",
"869 -75 OFFCURVE",
"979 -74 CURVE SMOOTH",
"991 -74 LINE SMOOTH",
"1125 -73 OFFCURVE",
"1251 -28 OFFCURVE",
"1353 48 CURVE SMOOTH",
"1380 68 OFFCURVE",
"1411 95 OFFCURVE",
"1428 122 CURVE SMOOTH",
"1440 142 OFFCURVE",
"1449 165 OFFCURVE",
"1449 188 CURVE SMOOTH",
"1449 228 OFFCURVE",
"1418 259 OFFCURVE",
"1370 259 CURVE SMOOTH",
"1361 259 OFFCURVE",
"1353 253 OFFCURVE",
"1353 244 CURVE SMOOTH",
"1353 218 OFFCURVE",
"1415 245 OFFCURVE",
"1415 188 CURVE SMOOTH",
"1415 170 OFFCURVE",
"1408 152 OFFCURVE",
"1398 136 CURVE SMOOTH",
"1385 114 OFFCURVE",
"1360 92 OFFCURVE",
"1339 75 CURVE SMOOTH",
"1243 0 OFFCURVE",
"1118 -40 OFFCURVE",
"990 -45 CURVE SMOOTH",
"978 -45 LINE SMOOTH",
"886 -45 OFFCURVE",
"763 -13 OFFCURVE",
"763 84 CURVE SMOOTH",
"763 101 OFFCURVE",
"767 118 OFFCURVE",
"774 134 CURVE SMOOTH",
"820 241 OFFCURVE",
"922 300 OFFCURVE",
"1044 330 CURVE SMOOTH",
"1052 332 OFFCURVE",
"1059 334 OFFCURVE",
"1067 335 CURVE",
"1092 325 OFFCURVE",
"1120 322 OFFCURVE",
"1147 322 CURVE SMOOTH",
"1163 322 OFFCURVE",
"1180 323 OFFCURVE",
"1197 325 CURVE SMOOTH",
"1216 327 OFFCURVE",
"1261 341 OFFCURVE",
"1261 362 CURVE SMOOTH",
"1261 378 OFFCURVE",
"1230 379 OFFCURVE",
"1219 379 CURVE SMOOTH",
"1168 379 OFFCURVE",
"1118 375 OFFCURVE",
"1068 366 CURVE",
"1043 378 OFFCURVE",
"1026 396 OFFCURVE",
"1026 422 CURVE SMOOTH",
"1026 442 OFFCURVE",
"1035 461 OFFCURVE",
"1046 478 CURVE SMOOTH",
"1107 569 OFFCURVE",
"1262 616 OFFCURVE",
"1377 616 CURVE SMOOTH",
"1412 616 OFFCURVE",
"1458 610 OFFCURVE",
"1458 571 CURVE SMOOTH",
"1458 553 OFFCURVE",
"1442 521 OFFCURVE",
"1416 521 CURVE SMOOTH",
"1410 521 OFFCURVE",
"1406 525 OFFCURVE",
"1400 525 CURVE SMOOTH",
"1391 525 OFFCURVE",
"1384 517 OFFCURVE",
"1384 510 CURVE SMOOTH",
"1384 498 OFFCURVE",
"1400 494 OFFCURVE",
"1411 494 CURVE SMOOTH",
"1456 494 OFFCURVE",
"1490 536 OFFCURVE",
"1490 572 CURVE SMOOTH",
"1490 631 OFFCURVE",
"1422 643 OFFCURVE",
"1368 643 CURVE SMOOTH",
"1245 643 OFFCURVE",
"1081 589 OFFCURVE",
"1017 493 CURVE SMOOTH",
"1003 472 OFFCURVE",
"992 447 OFFCURVE",
"992 422 CURVE SMOOTH",
"992 396 OFFCURVE",
"1005 375 OFFCURVE",
"1028 358 CURVE",
"954 338 OFFCURVE",
"888 308 OFFCURVE",
"836 264 CURVE",
"880 400 OFFCURVE",
"954 537 OFFCURVE",
"1020 605 CURVE SMOOTH",
"1039 624 OFFCURVE",
"1047 638 OFFCURVE",
"1047 646 CURVE SMOOTH",
"1047 656 OFFCURVE",
"1038 660 OFFCURVE",
"1025 660 CURVE SMOOTH",
"1012 660 OFFCURVE",
"995 656 OFFCURVE",
"981 650 CURVE SMOOTH",
"904 617 OFFCURVE",
"782 469 OFFCURVE",
"563 211 CURVE",
"508 206 OFFCURVE",
"452 199 OFFCURVE",
"404 191 CURVE SMOOTH",
"394 189 OFFCURVE",
"389 181 OFFCURVE",
"389 174 CURVE SMOOTH",
"389 168 OFFCURVE",
"393 162 OFFCURVE",
"401 162 CURVE SMOOTH",
"405 162 LINE",
"447 172 OFFCURVE",
"493 180 OFFCURVE",
"544 185 CURVE",
"437 69 OFFCURVE",
"296 -75 OFFCURVE",
"182 -75 CURVE SMOOTH",
"83 -75 OFFCURVE",
"40 -5 OFFCURVE",
"40 83 CURVE SMOOTH",
"40 130 OFFCURVE",
"52 183 OFFCURVE",
"74 233 CURVE SMOOTH",
"127 351 OFFCURVE",
"239 456 OFFCURVE",
"355 456 CURVE SMOOTH",
"441 456 OFFCURVE",
"468 414 OFFCURVE",
"468 372 CURVE SMOOTH",
"468 329 OFFCURVE",
"440 285 OFFCURVE",
"420 285 CURVE SMOOTH",
"421 285 OFFCURVE",
"423 285 OFFCURVE",
"425 286 CURVE",
"466 298 OFFCURVE",
"496 342 OFFCURVE",
"496 386 CURVE SMOOTH",
"496 433 OFFCURVE",
"459 480 OFFCURVE",
"358 480 CURVE SMOOTH",
"226 480 OFFCURVE",
"105 374 OFFCURVE",
"47 250 CURVE SMOOTH",
"22 195 OFFCURVE",
"8 137 OFFCURVE",
"8 84 CURVE SMOOTH",
"8 -20 OFFCURVE",
"60 -103 OFFCURVE",
"182 -103 CURVE SMOOTH"
);
},
{
closed = 1;
nodes = (
"808 455 OFFCURVE",
"925 604 OFFCURVE",
"997 635 CURVE",
"1000 637 OFFCURVE",
"978 607 OFFCURVE",
"973 600 CURVE SMOOTH",
"908 522 OFFCURVE",
"825 368 OFFCURVE",
"789 223 CURVE",
"739 222 OFFCURVE",
"674 220 OFFCURVE",
"609 216 CURVE"
);
}
);
width = 1416;
}
);
note = AE;
unicode = 00C6;
},
{
glyphname = B;
lastChange = "2022-02-07 22:20:45 +0000";
layers = (
{
background = {
paths = (
{
closed = 1;
nodes = (
"775 620 OFFCURVE",
"648 665 OFFCURVE",
"555 674 CURVE SMOOTH",
"532 676 OFFCURVE",
"509 677 OFFCURVE",
"485 677 CURVE SMOOTH",
"372 677 OFFCURVE",
"261 650 OFFCURVE",
"170 590 CURVE SMOOTH",
"98 542 OFFCURVE",
"21 458 OFFCURVE",
"21 375 CURVE SMOOTH",
"21 356 OFFCURVE",
"36 309 OFFCURVE",
"64 309 CURVE SMOOTH",
"73 309 OFFCURVE",
"81 317 OFFCURVE",
"81 325 CURVE SMOOTH",
"81 339 OFFCURVE",
"54 339 OFFCURVE",
"54 376 CURVE SMOOTH",
"54 451 OFFCURVE",
"126 525 OFFCURVE",
"190 568 CURVE SMOOTH",
"273 624 OFFCURVE",
"377 649 OFFCURVE",
"481 649 CURVE SMOOTH",
"505 649 OFFCURVE",
"528 648 OFFCURVE",
"551 646 CURVE SMOOTH",
"625 638 OFFCURVE",
"742 603 OFFCURVE",
"742 523 CURVE SMOOTH",
"742 501 OFFCURVE",
"732 481 OFFCURVE",
"718 463 CURVE SMOOTH",
"676 412 OFFCURVE",
"591 383 OFFCURVE",
"523 369 CURVE SMOOTH",
"506 365 OFFCURVE",
"487 365 OFFCURVE",
"469 361 CURVE SMOOTH",
"460 359 OFFCURVE",
"454 356 OFFCURVE",
"454 347 CURVE SMOOTH",
"454 337 OFFCURVE",
"461 334 OFFCURVE",
"470 332 CURVE SMOOTH",
"485 329 OFFCURVE",
"500 328 OFFCURVE",
"515 324 CURVE SMOOTH",
"583 304 OFFCURVE",
"641 256 OFFCURVE",
"641 191 CURVE SMOOTH",
"641 26 OFFCURVE",
"309 -91 OFFCURVE",
"147 -91 CURVE SMOOTH",
"119 -91 OFFCURVE",
"58 -87 OFFCURVE",
"58 -52 CURVE SMOOTH",
"58 -11 OFFCURVE",
"129 38 OFFCURVE",
"164 57 CURVE",
"159 37 OFFCURVE",
"154 16 OFFCURVE",
"154 -5 CURVE SMOOTH",
"154 -28 OFFCURVE",
"167 -69 OFFCURVE",
"200 -69 CURVE SMOOTH",
"210 -69 OFFCURVE",
"216 -61 OFFCURVE",
"216 -53 CURVE SMOOTH",
"216 -32 OFFCURVE",
"187 -52 OFFCURVE",
"187 1 CURVE SMOOTH",
"187 26 OFFCURVE",
"195 54 OFFCURVE",
"204 78 CURVE",
"266 105 OFFCURVE",
"335 115 OFFCURVE",
"404 115 CURVE SMOOTH",
"429 115 OFFCURVE",
"477 116 OFFCURVE",
"492 95 CURVE SMOOTH",
"496 89 OFFCURVE",
"499 85 OFFCURVE",
"508 85 CURVE SMOOTH",
"517 85 OFFCURVE",
"524 92 OFFCURVE",
"524 100 CURVE SMOOTH",
"524 140 OFFCURVE",
"435 144 OFFCURVE",
"403 144 CURVE SMOOTH",
"344 144 OFFCURVE",
"274 135 OFFCURVE",
"220 116 CURVE",
"271 223 OFFCURVE",
"376 385 OFFCURVE",
"480 461 CURVE SMOOTH",
"494 472 OFFCURVE",
"509 480 OFFCURVE",
"526 488 CURVE SMOOTH",
"532 491 OFFCURVE",
"537 494 OFFCURVE",
"537 501 CURVE SMOOTH",
"537 509 OFFCURVE",
"530 515 OFFCURVE",
"521 515 CURVE SMOOTH",
"504 515 OFFCURVE",
"471 491 OFFCURVE",
"459 482 CURVE SMOOTH",
"346 395 OFFCURVE",
"226 218 OFFCURVE",
"175 97 CURVE",
"118 70 OFFCURVE",
"23 4 OFFCURVE",
"23 -58 CURVE SMOOTH",
"23 -111 OFFCURVE",
"102 -120 OFFCURVE",
"148 -120 CURVE SMOOTH",
"331 -120 OFFCURVE",
"674 8 OFFCURVE",
"674 192 CURVE SMOOTH",
"674 262 OFFCURVE",
"618 316 OFFCURVE",
"547 345 CURVE",
"642 369 OFFCURVE",
"775 423 OFFCURVE",
"775 524 CURVE SMOOTH"
);
}
);
};
layerId = "6A041D6C-A676-4DB4-A570-80A8F8AA896B";
paths = (
{
closed = 1;
nodes = (
"331 -110 OFFCURVE",
"674 18 OFFCURVE",
"674 202 CURVE SMOOTH",
"674 272 OFFCURVE",
"618 326 OFFCURVE",
"547 355 CURVE",
"642 379 OFFCURVE",
"775 433 OFFCURVE",
"775 534 CURVE SMOOTH",
"775 630 OFFCURVE",
"648 675 OFFCURVE",
"555 684 CURVE SMOOTH",
"532 686 OFFCURVE",
"509 687 OFFCURVE",
"485 687 CURVE SMOOTH",
"372 687 OFFCURVE",
"261 660 OFFCURVE",
"170 600 CURVE SMOOTH",
"98 552 OFFCURVE",
"21 468 OFFCURVE",
"21 385 CURVE SMOOTH",
"21 366 OFFCURVE",
"36 319 OFFCURVE",
"64 319 CURVE SMOOTH",
"73 319 OFFCURVE",
"81 327 OFFCURVE",
"81 335 CURVE SMOOTH",
"81 349 OFFCURVE",
"54 349 OFFCURVE",
"54 386 CURVE SMOOTH",
"54 461 OFFCURVE",
"126 535 OFFCURVE",
"190 578 CURVE SMOOTH",
"273 634 OFFCURVE",
"377 659 OFFCURVE",
"481 659 CURVE SMOOTH",
"505 659 OFFCURVE",
"528 658 OFFCURVE",
"551 656 CURVE SMOOTH",
"625 648 OFFCURVE",
"742 613 OFFCURVE",
"742 533 CURVE SMOOTH",
"742 511 OFFCURVE",
"732 491 OFFCURVE",
"718 473 CURVE SMOOTH",
"676 422 OFFCURVE",
"591 393 OFFCURVE",
"523 379 CURVE SMOOTH",
"506 375 OFFCURVE",
"487 375 OFFCURVE",
"469 371 CURVE SMOOTH",
"460 369 OFFCURVE",
"454 366 OFFCURVE",
"454 357 CURVE SMOOTH",
"454 347 OFFCURVE",
"461 344 OFFCURVE",
"470 342 CURVE SMOOTH",
"485 339 OFFCURVE",
"500 338 OFFCURVE",
"515 334 CURVE SMOOTH",
"583 314 OFFCURVE",
"641 266 OFFCURVE",
"641 201 CURVE SMOOTH",
"641 36 OFFCURVE",
"309 -81 OFFCURVE",
"147 -81 CURVE SMOOTH",
"119 -81 OFFCURVE",
"58 -77 OFFCURVE",
"58 -42 CURVE SMOOTH",
"58 -1 OFFCURVE",
"129 48 OFFCURVE",
"164 67 CURVE",
"159 47 OFFCURVE",
"154 26 OFFCURVE",
"154 5 CURVE SMOOTH",
"154 -18 OFFCURVE",
"167 -59 OFFCURVE",
"200 -59 CURVE SMOOTH",
"210 -59 OFFCURVE",
"216 -51 OFFCURVE",
"216 -43 CURVE SMOOTH",
"216 -22 OFFCURVE",
"187 -42 OFFCURVE",
"187 11 CURVE SMOOTH",
"187 36 OFFCURVE",
"195 64 OFFCURVE",
"204 88 CURVE",
"268 116 OFFCURVE",
"339 125 OFFCURVE",
"411 125 CURVE SMOOTH",
"437 125 OFFCURVE",
"478 124 OFFCURVE",
"492 105 CURVE SMOOTH",
"496 99 OFFCURVE",
"499 95 OFFCURVE",
"508 95 CURVE SMOOTH",
"517 95 OFFCURVE",
"524 102 OFFCURVE",
"524 110 CURVE SMOOTH",
"524 150 OFFCURVE",
"435 154 OFFCURVE",
"403 154 CURVE SMOOTH",
"344 154 OFFCURVE",
"274 145 OFFCURVE",
"220 126 CURVE",
"271 233 OFFCURVE",
"376 395 OFFCURVE",
"480 471 CURVE SMOOTH",
"494 482 OFFCURVE",
"509 490 OFFCURVE",
"526 498 CURVE SMOOTH",
"532 501 OFFCURVE",
"537 504 OFFCURVE",
"537 511 CURVE SMOOTH",
"537 519 OFFCURVE",
"530 525 OFFCURVE",
"521 525 CURVE SMOOTH",
"504 525 OFFCURVE",
"471 501 OFFCURVE",
"459 492 CURVE SMOOTH",
"346 405 OFFCURVE",
"226 228 OFFCURVE",
"175 107 CURVE",
"118 80 OFFCURVE",
"23 14 OFFCURVE",
"23 -48 CURVE SMOOTH",
"23 -101 OFFCURVE",
"102 -110 OFFCURVE",
"148 -110 CURVE SMOOTH"
);
}
);
width = 674;
}
);
note = B;
unicode = 0042;
},
{
color = 3;
glyphname = C;
lastChange = "2022-03-02 12:03:38 +0000";
layers = (
{
anchors = (
{
name = bottom;
position = "{312, -83}";
},
{
name = cedilla;
position = "{278, -83}";
},
{
name = top;
position = "{655, 650}";
}
);
background = {
paths = (
{
closed = 1;
nodes = (
"837 627 OFFCURVE",
"740 657 OFFCURVE",
"661 657 CURVE SMOOTH",
"641 657 OFFCURVE",
"621 656 OFFCURVE",
"601 653 CURVE SMOOTH",
"448 631 OFFCURVE",
"301 561 OFFCURVE",
"197 461 CURVE",
"197 469 OFFCURVE",
"198 476 OFFCURVE",
"198 484 CURVE SMOOTH",
"198 493 OFFCURVE",
"189 499 OFFCURVE",
"179 499 CURVE SMOOTH",
"163 499 OFFCURVE",
"164 485 OFFCURVE",
"164 474 CURVE SMOOTH",
"164 462 OFFCURVE",
"166 449 OFFCURVE",
"172 437 CURVE",
"100 360 OFFCURVE",
"44 250 OFFCURVE",
"44 149 CURVE SMOOTH",
"44 10 OFFCURVE",
"158 -103 OFFCURVE",
"322 -103 CURVE SMOOTH",
"499 -103 OFFCURVE",
"632 14 OFFCURVE",
"714 160 CURVE SMOOTH",
"716 163 OFFCURVE",
"717 166 OFFCURVE",
"717 169 CURVE SMOOTH",
"717 177 OFFCURVE",
"710 183 OFFCURVE",
"701 183 CURVE",
"696 182 OFFCURVE",
"692 180 OFFCURVE",
"690 176 CURVE SMOOTH",
"561 -21 OFFCURVE",
"433 -71 OFFCURVE",
"324 -71 CURVE SMOOTH",
"177 -71 OFFCURVE",
"78 27 OFFCURVE",
"78 152 CURVE SMOOTH",
"78 247 OFFCURVE",
"128 338 OFFCURVE",
"192 413 CURVE",
"245 361 OFFCURVE",
"354 335 OFFCURVE",
"432 335 CURVE SMOOTH",
"560 335 OFFCURVE",
"721 366 OFFCURVE",
"801 461 CURVE SMOOTH",
"822 485 OFFCURVE",
"837 515 OFFCURVE",
"837 546 CURVE SMOOTH"
);
},
{
closed = 1;
nodes = (
"803 516 OFFCURVE",
"789 490 OFFCURVE",
"770 469 CURVE SMOOTH",
"695 389 OFFCURVE",
"545 364 OFFCURVE",
"432 364 CURVE SMOOTH",
"366 364 OFFCURVE",
"252 383 OFFCURVE",
"212 432 CURVE",
"311 531 OFFCURVE",
"459 603 OFFCURVE",
"608 625 CURVE SMOOTH",
"626 628 OFFCURVE",
"645 629 OFFCURVE",
"663 629 CURVE SMOOTH",
"726 629 OFFCURVE",
"803 608 OFFCURVE",
"803 543 CURVE SMOOTH"
);
}
);
};
layerId = "6A041D6C-A676-4DB4-A570-80A8F8AA896B";
paths = (
{
closed = 1;
nodes = (
"499 -93 OFFCURVE",
"632 24 OFFCURVE",
"714 170 CURVE SMOOTH",
"716 173 OFFCURVE",
"717 176 OFFCURVE",
"717 179 CURVE SMOOTH",
"717 187 OFFCURVE",
"710 193 OFFCURVE",
"701 193 CURVE",
"696 192 OFFCURVE",
"692 190 OFFCURVE",
"690 186 CURVE SMOOTH",
"561 -11 OFFCURVE",
"433 -61 OFFCURVE",
"324 -61 CURVE SMOOTH",
"177 -61 OFFCURVE",
"78 37 OFFCURVE",
"78 162 CURVE SMOOTH",
"78 257 OFFCURVE",
"128 348 OFFCURVE",
"192 423 CURVE",
"245 371 OFFCURVE",
"354 345 OFFCURVE",
"432 345 CURVE SMOOTH",
"560 345 OFFCURVE",
"721 376 OFFCURVE",
"801 471 CURVE SMOOTH",
"822 495 OFFCURVE",
"837 525 OFFCURVE",
"837 556 CURVE SMOOTH",
"837 637 OFFCURVE",
"740 667 OFFCURVE",
"661 667 CURVE SMOOTH",
"641 667 OFFCURVE",
"621 666 OFFCURVE",
"601 663 CURVE SMOOTH",
"448 641 OFFCURVE",
"301 571 OFFCURVE",
"197 471 CURVE",
"197 479 OFFCURVE",
"198 486 OFFCURVE",
"198 494 CURVE SMOOTH",
"198 503 OFFCURVE",
"189 509 OFFCURVE",
"179 509 CURVE SMOOTH",
"165 509 OFFCURVE",
"164 498 OFFCURVE",
"164 488 CURVE SMOOTH",
"164 484 LINE SMOOTH",
"164 472 OFFCURVE",
"166 459 OFFCURVE",
"172 447 CURVE",
"100 370 OFFCURVE",
"44 260 OFFCURVE",
"44 159 CURVE SMOOTH",
"44 20 OFFCURVE",
"158 -93 OFFCURVE",
"322 -93 CURVE SMOOTH"
);
},
{
closed = 1;
nodes = (
"366 374 OFFCURVE",
"252 393 OFFCURVE",
"212 442 CURVE",
"311 541 OFFCURVE",
"459 613 OFFCURVE",
"608 635 CURVE SMOOTH",
"626 638 OFFCURVE",
"645 639 OFFCURVE",
"663 639 CURVE SMOOTH",
"726 639 OFFCURVE",
"803 618 OFFCURVE",
"803 553 CURVE SMOOTH",
"803 526 OFFCURVE",
"789 500 OFFCURVE",
"770 479 CURVE SMOOTH",
"695 399 OFFCURVE",
"545 374 OFFCURVE",
"432 374 CURVE SMOOTH"
);
}
);
width = 650;
}
);
note = C;
unicode = 0043;
},
{
color = 3;
glyphname = D;
lastChange = "2022-03-02 12:04:49 +0000";
layers = (
{
anchors = (
{
name = bottom;
position = "{212, -62}";
},
{
name = center;
position = "{455, 320}";
},
{
name = top;
position = "{664, 610}";
}
);
background = {
paths = (
{
closed = 1;
nodes = (
"923 497 OFFCURVE",
"789 553 OFFCURVE",
"657 572 CURVE",
"660 576 OFFCURVE",
"663 583 OFFCURVE",
"663 588 CURVE SMOOTH",
"663 595 OFFCURVE",
"656 601 OFFCURVE",
"648 601 CURVE SMOOTH",
"639 601 OFFCURVE",
"636 597 OFFCURVE",
"632 591 CURVE SMOOTH",
"627 585 OFFCURVE",
"621 581 OFFCURVE",
"615 576 CURVE",
"582 579 OFFCURVE",
"549 580 OFFCURVE",
"516 580 CURVE SMOOTH",
"493 580 OFFCURVE",
"470 580 OFFCURVE",
"447 578 CURVE SMOOTH",
"383 573 OFFCURVE",
"320 565 OFFCURVE",
"259 547 CURVE SMOOTH",
"134 510 OFFCURVE",
"22 428 OFFCURVE",
"22 305 CURVE SMOOTH",
"22 254 OFFCURVE",
"48 186 OFFCURVE",
"110 170 CURVE SMOOTH",
"111 170 OFFCURVE",
"113 169 OFFCURVE",
"115 169 CURVE SMOOTH",
"124 169 OFFCURVE",
"131 177 OFFCURVE",
"131 185 CURVE SMOOTH",
"131 193 OFFCURVE",
"126 195 OFFCURVE",
"119 198 CURVE SMOOTH",
"93 208 OFFCURVE",
"82 219 OFFCURVE",
"71 241 CURVE SMOOTH",
"60 261 OFFCURVE",
"56 283 OFFCURVE",
"56 305 CURVE SMOOTH",
"56 416 OFFCURVE",
"165 489 OFFCURVE",
"276 521 CURVE SMOOTH",
"333 537 OFFCURVE",
"390 545 OFFCURVE",
"449 550 CURVE SMOOTH",
"472 552 OFFCURVE",
"496 553 OFFCURVE",
"519 553 CURVE SMOOTH",
"542 553 OFFCURVE",
"565 552 OFFCURVE",
"587 550 CURVE",
"576 541 OFFCURVE",
"566 532 OFFCURVE",
"557 522 CURVE SMOOTH",
"527 488 OFFCURVE",
"500 450 OFFCURVE",
"473 414 CURVE SMOOTH",
"411 328 OFFCURVE",
"341 231 OFFCURVE",
"303 135 CURVE",
"302 131 OFFCURVE",
"300 128 OFFCURVE",
"298 124 CURVE",
"226 102 OFFCURVE",
"114 59 OFFCURVE",
"114 -21 CURVE SMOOTH",
"114 -76 OFFCURVE",
"195 -82 OFFCURVE",
"242 -82 CURVE SMOOTH",
"312 -82 OFFCURVE",
"386 -70 OFFCURVE",
"454 -53 CURVE SMOOTH",
"656 -4 OFFCURVE",
"923 162 OFFCURVE",
"923 363 CURVE SMOOTH"
);
},
{
closed = 1;
nodes = (
"890 176 OFFCURVE",
"632 20 OFFCURVE",
"446 -25 CURVE SMOOTH",
"378 -42 OFFCURVE",
"303 -55 OFFCURVE",
"232 -55 CURVE SMOOTH",
"208 -55 OFFCURVE",
"148 -53 OFFCURVE",
"148 -22 CURVE SMOOTH",
"148 38 OFFCURVE",
"237 71 OFFCURVE",
"290 88 CURVE",
"288 57 OFFCURVE",
"290 5 OFFCURVE",
"328 -10 CURVE SMOOTH",
"330 -11 OFFCURVE",
"333 -11 OFFCURVE",
"335 -11 CURVE SMOOTH",
"343 -11 OFFCURVE",
"350 -4 OFFCURVE",
"350 3 CURVE SMOOTH",
"350 22 OFFCURVE",
"318 8 OFFCURVE",
"318 55 CURVE SMOOTH",
"318 70 OFFCURVE",
"322 85 OFFCURVE",
"326 100 CURVE",
"382 112 OFFCURVE",
"441 120 OFFCURVE",
"498 120 CURVE SMOOTH",
"525 120 OFFCURVE",
"554 119 OFFCURVE",
"573 102 CURVE SMOOTH",
"577 98 OFFCURVE",
"580 96 OFFCURVE",
"587 96 CURVE SMOOTH",
"595 96 OFFCURVE",
"604 102 OFFCURVE",
"604 110 CURVE SMOOTH",
"604 114 OFFCURVE",
"602 116 OFFCURVE",
"600 119 CURVE",
"577 144 OFFCURVE",
"531 149 OFFCURVE",
"497 149 CURVE SMOOTH",
"444 149 OFFCURVE",
"390 142 OFFCURVE",
"338 133 CURVE",
"378 232 OFFCURVE",
"508 417 OFFCURVE",
"584 504 CURVE SMOOTH",
"597 519 OFFCURVE",
"611 533 OFFCURVE",
"626 547 CURVE",
"749 534 OFFCURVE",
"890 491 OFFCURVE",
"890 363 CURVE SMOOTH"
);
}
);
};
layerId = "6A041D6C-A676-4DB4-A570-80A8F8AA896B";
paths = (
{
closed = 1;
nodes = (
"312 -72 OFFCURVE",
"386 -60 OFFCURVE",
"454 -43 CURVE SMOOTH",
"656 6 OFFCURVE",
"923 172 OFFCURVE",
"923 373 CURVE SMOOTH",
"923 507 OFFCURVE",
"789 563 OFFCURVE",
"657 582 CURVE",
"660 586 OFFCURVE",
"663 593 OFFCURVE",
"663 598 CURVE SMOOTH",
"663 605 OFFCURVE",
"656 611 OFFCURVE",
"648 611 CURVE SMOOTH",
"639 611 OFFCURVE",
"636 607 OFFCURVE",
"632 601 CURVE SMOOTH",
"627 595 OFFCURVE",
"621 591 OFFCURVE",
"615 586 CURVE",
"582 589 OFFCURVE",
"549 590 OFFCURVE",
"516 590 CURVE SMOOTH",
"493 590 OFFCURVE",
"470 590 OFFCURVE",
"447 588 CURVE SMOOTH",
"383 583 OFFCURVE",
"320 575 OFFCURVE",
"259 557 CURVE SMOOTH",
"134 520 OFFCURVE",
"22 438 OFFCURVE",
"22 315 CURVE SMOOTH",
"22 264 OFFCURVE",
"48 196 OFFCURVE",
"110 180 CURVE SMOOTH",
"111 180 OFFCURVE",
"113 179 OFFCURVE",
"115 179 CURVE SMOOTH",
"124 179 OFFCURVE",
"131 187 OFFCURVE",
"131 195 CURVE SMOOTH",
"131 203 OFFCURVE",
"126 205 OFFCURVE",
"119 208 CURVE SMOOTH",
"93 218 OFFCURVE",
"82 229 OFFCURVE",
"71 251 CURVE SMOOTH",
"60 271 OFFCURVE",
"56 293 OFFCURVE",
"56 315 CURVE SMOOTH",
"56 426 OFFCURVE",
"165 499 OFFCURVE",
"276 531 CURVE SMOOTH",
"333 547 OFFCURVE",
"390 555 OFFCURVE",
"449 560 CURVE SMOOTH",
"472 562 OFFCURVE",
"496 563 OFFCURVE",
"519 563 CURVE SMOOTH",
"542 563 OFFCURVE",
"565 562 OFFCURVE",
"587 560 CURVE",
"576 551 OFFCURVE",
"566 542 OFFCURVE",
"557 532 CURVE SMOOTH",
"527 498 OFFCURVE",
"500 460 OFFCURVE",
"473 424 CURVE SMOOTH",
"411 338 OFFCURVE",
"341 241 OFFCURVE",
"303 145 CURVE",
"302 141 OFFCURVE",
"300 138 OFFCURVE",
"298 134 CURVE",
"226 112 OFFCURVE",
"114 69 OFFCURVE",
"114 -11 CURVE SMOOTH",
"114 -66 OFFCURVE",
"195 -72 OFFCURVE",
"242 -72 CURVE SMOOTH"
);
},
{
closed = 1;
nodes = (
"208 -45 OFFCURVE",
"148 -43 OFFCURVE",
"148 -12 CURVE SMOOTH",
"148 48 OFFCURVE",
"237 81 OFFCURVE",
"290 98 CURVE",
"288 67 OFFCURVE",
"290 15 OFFCURVE",
"328 0 CURVE SMOOTH",
"330 -1 OFFCURVE",
"333 -1 OFFCURVE",
"335 -1 CURVE SMOOTH",
"343 -1 OFFCURVE",
"350 6 OFFCURVE",
"350 13 CURVE SMOOTH",
"350 32 OFFCURVE",
"318 18 OFFCURVE",
"318 65 CURVE SMOOTH",
"318 80 OFFCURVE",
"322 95 OFFCURVE",
"326 110 CURVE",
"382 122 OFFCURVE",
"441 130 OFFCURVE",
"498 130 CURVE SMOOTH",
"525 130 OFFCURVE",
"554 129 OFFCURVE",
"573 112 CURVE SMOOTH",
"577 108 OFFCURVE",
"580 106 OFFCURVE",
"587 106 CURVE SMOOTH",
"595 106 OFFCURVE",
"604 112 OFFCURVE",
"604 120 CURVE SMOOTH",
"604 124 OFFCURVE",
"602 126 OFFCURVE",
"600 129 CURVE",
"577 154 OFFCURVE",
"531 159 OFFCURVE",
"497 159 CURVE SMOOTH",
"444 159 OFFCURVE",
"390 152 OFFCURVE",
"338 143 CURVE",
"378 242 OFFCURVE",
"508 427 OFFCURVE",
"584 514 CURVE SMOOTH",
"597 529 OFFCURVE",
"611 543 OFFCURVE",
"626 557 CURVE",
"749 544 OFFCURVE",
"890 501 OFFCURVE",
"890 373 CURVE SMOOTH",
"890 186 OFFCURVE",
"632 30 OFFCURVE",
"446 -15 CURVE SMOOTH",
"378 -32 OFFCURVE",
"303 -45 OFFCURVE",
"232 -45 CURVE SMOOTH"
);
}
);
width = 910;
}
);
note = D;
unicode = 0044;
},
{
glyphname = Eth;
lastChange = "2022-03-02 12:05:03 +0000";
layers = (
{
background = {
paths = (
{
closed = 1;
nodes = (
"462 183 OFFCURVE",
"404 182 OFFCURVE",
"396 182 CURVE SMOOTH",
"385 182 OFFCURVE",
"375 181 OFFCURVE",
"364 181 CURVE",
"402 258 OFFCURVE",
"468 367 OFFCURVE",
"584 504 CURVE SMOOTH",
"597 519 OFFCURVE",
"611 533 OFFCURVE",
"626 547 CURVE",
"749 534 OFFCURVE",
"890 491 OFFCURVE",
"890 363 CURVE SMOOTH",
"890 176 OFFCURVE",
"632 20 OFFCURVE",
"446 -25 CURVE SMOOTH",
"378 -42 OFFCURVE",
"303 -55 OFFCURVE",
"232 -55 CURVE SMOOTH",
"208 -55 OFFCURVE",
"148 -53 OFFCURVE",
"148 -22 CURVE SMOOTH",
"148 -5 OFFCURVE",
"127 11 OFFCURVE",
"114 -21 CURVE",
"114 -76 OFFCURVE",
"195 -82 OFFCURVE",
"242 -82 CURVE SMOOTH",
"312 -82 OFFCURVE",
"386 -70 OFFCURVE",
"454 -53 CURVE SMOOTH",
"656 -4 OFFCURVE",
"923 162 OFFCURVE",
"923 363 CURVE SMOOTH",
"923 497 OFFCURVE",
"789 553 OFFCURVE",
"657 572 CURVE",
"660 576 OFFCURVE",
"663 583 OFFCURVE",
"663 588 CURVE SMOOTH",
"663 595 OFFCURVE",
"656 601 OFFCURVE",
"648 601 CURVE SMOOTH",
"639 601 OFFCURVE",
"636 597 OFFCURVE",
"632 591 CURVE SMOOTH",
"627 585 OFFCURVE",
"621 581 OFFCURVE",
"615 576 CURVE",
"582 579 OFFCURVE",
"549 580 OFFCURVE",
"516 580 CURVE SMOOTH",
"493 580 OFFCURVE",
"470 580 OFFCURVE",
"447 578 CURVE SMOOTH",
"383 573 OFFCURVE",
"320 565 OFFCURVE",
"259 547 CURVE SMOOTH",
"134 510 OFFCURVE",
"22 428 OFFCURVE",
"22 305 CURVE SMOOTH",
"22 254 OFFCURVE",
"48 186 OFFCURVE",
"110 170 CURVE SMOOTH",
"111 170 OFFCURVE",
"113 169 OFFCURVE",
"115 169 CURVE SMOOTH",
"124 169 OFFCURVE",
"131 177 OFFCURVE",
"131 185 CURVE SMOOTH",
"131 193 OFFCURVE",
"126 195 OFFCURVE",
"119 198 CURVE SMOOTH",
"93 208 OFFCURVE",
"82 219 OFFCURVE",
"71 241 CURVE SMOOTH",
"60 261 OFFCURVE",
"56 283 OFFCURVE",
"56 305 CURVE SMOOTH",
"56 416 OFFCURVE",
"165 489 OFFCURVE",
"276 521 CURVE SMOOTH",
"333 537 OFFCURVE",
"390 545 OFFCURVE",
"449 550 CURVE SMOOTH",
"472 552 OFFCURVE",
"496 553 OFFCURVE",
"519 553 CURVE SMOOTH",
"542 553 OFFCURVE",
"565 552 OFFCURVE",
"587 550 CURVE",
"576 541 OFFCURVE",
"566 532 OFFCURVE",
"557 522 CURVE SMOOTH",
"484 440 OFFCURVE",
"378 287 OFFCURVE",
"326 180 CURVE",
"295 179 OFFCURVE",
"265 173 OFFCURVE",
"234 173 CURVE SMOOTH",
"230 173 OFFCURVE",
"230 167 OFFCURVE",
"230 164 CURVE SMOOTH",
"230 158 OFFCURVE",
"232 145 OFFCURVE",
"238 145 CURVE SMOOTH",
"247 145 OFFCURVE",
"277 146 OFFCURVE",
"312 147 CURVE",
"305 131 OFFCURVE",
"300 117 OFFCURVE",
"298 105 CURVE SMOOTH",
"279 15 OFFCURVE",
"306 -1 OFFCURVE",
"328 -10 CURVE SMOOTH",
"330 -11 OFFCURVE",
"333 -11 OFFCURVE",
"335 -11 CURVE SMOOTH",
"343 -11 OFFCURVE",
"350 -4 OFFCURVE",
"350 3 CURVE SMOOTH",
"350 22 OFFCURVE",
"313 32 OFFCURVE",
"318 55 CURVE SMOOTH",
"321 70 OFFCURVE",
"329 102 OFFCURVE",
"350 149 CURVE",
"402 152 OFFCURVE",
"454 157 OFFCURVE",
"459 161 CURVE SMOOTH",
"460 162 OFFCURVE",
"462 165 OFFCURVE",
"462 168 CURVE SMOOTH"
);
}
);
};
layerId = "6A041D6C-A676-4DB4-A570-80A8F8AA896B";
paths = (
{
closed = 1;
nodes = (
"312 -72 OFFCURVE",
"386 -60 OFFCURVE",
"454 -43 CURVE SMOOTH",
"656 6 OFFCURVE",
"923 172 OFFCURVE",
"923 373 CURVE SMOOTH",
"923 507 OFFCURVE",
"789 563 OFFCURVE",
"657 582 CURVE",
"660 586 OFFCURVE",
"663 593 OFFCURVE",
"663 598 CURVE SMOOTH",
"663 605 OFFCURVE",
"656 611 OFFCURVE",
"648 611 CURVE SMOOTH",
"639 611 OFFCURVE",
"636 607 OFFCURVE",
"632 601 CURVE SMOOTH",
"627 595 OFFCURVE",
"621 591 OFFCURVE",
"615 586 CURVE",
"582 589 OFFCURVE",
"549 590 OFFCURVE",
"516 590 CURVE SMOOTH",
"493 590 OFFCURVE",
"470 590 OFFCURVE",
"447 588 CURVE SMOOTH",
"383 583 OFFCURVE",
"320 575 OFFCURVE",
"259 557 CURVE SMOOTH",
"134 520 OFFCURVE",
"22 438 OFFCURVE",
"22 315 CURVE SMOOTH",
"22 264 OFFCURVE",
"48 196 OFFCURVE",
"110 180 CURVE SMOOTH",
"111 180 OFFCURVE",
"113 179 OFFCURVE",
"115 179 CURVE SMOOTH",
"124 179 OFFCURVE",
"131 187 OFFCURVE",
"131 195 CURVE SMOOTH",
"131 203 OFFCURVE",
"126 205 OFFCURVE",
"119 208 CURVE SMOOTH",
"93 218 OFFCURVE",
"82 229 OFFCURVE",
"71 251 CURVE SMOOTH",
"60 271 OFFCURVE",
"56 293 OFFCURVE",
"56 315 CURVE SMOOTH",
"56 426 OFFCURVE",
"165 499 OFFCURVE",
"276 531 CURVE SMOOTH",
"333 547 OFFCURVE",
"390 555 OFFCURVE",
"449 560 CURVE SMOOTH",
"472 562 OFFCURVE",
"496 563 OFFCURVE",
"519 563 CURVE SMOOTH",
"542 563 OFFCURVE",
"565 562 OFFCURVE",
"587 560 CURVE",
"576 551 OFFCURVE",
"566 542 OFFCURVE",
"557 532 CURVE SMOOTH",
"484 450 OFFCURVE",
"378 297 OFFCURVE",
"326 190 CURVE",
"295 189 OFFCURVE",
"265 183 OFFCURVE",
"234 183 CURVE SMOOTH",
"230 183 OFFCURVE",
"230 177 OFFCURVE",
"230 174 CURVE SMOOTH",
"230 168 OFFCURVE",
"232 155 OFFCURVE",
"238 155 CURVE SMOOTH",
"312 157 LINE",
"305 141 OFFCURVE",
"300 127 OFFCURVE",
"298 115 CURVE SMOOTH",
"293 94 OFFCURVE",
"292 76 OFFCURVE",
"292 62 CURVE SMOOTH",
"292 18 OFFCURVE",
"311 7 OFFCURVE",
"328 0 CURVE SMOOTH",
"330 -1 OFFCURVE",
"333 -1 OFFCURVE",
"335 -1 CURVE SMOOTH",
"343 -1 OFFCURVE",
"350 6 OFFCURVE",
"350 13 CURVE SMOOTH",
"350 32 OFFCURVE",
"313 42 OFFCURVE",
"318 65 CURVE SMOOTH",
"321 80 OFFCURVE",
"329 112 OFFCURVE",
"350 159 CURVE",
"402 162 OFFCURVE",
"454 167 OFFCURVE",
"459 171 CURVE SMOOTH",
"460 172 OFFCURVE",
"462 175 OFFCURVE",
"462 178 CURVE SMOOTH",
"462 191 OFFCURVE",
"417 192 OFFCURVE",
"401 192 CURVE SMOOTH",
"388 192 OFFCURVE",
"377 191 OFFCURVE",
"364 191 CURVE",
"402 268 OFFCURVE",
"468 377 OFFCURVE",
"584 514 CURVE SMOOTH",
"597 529 OFFCURVE",
"611 543 OFFCURVE",
"626 557 CURVE",
"749 544 OFFCURVE",
"890 501 OFFCURVE",
"890 373 CURVE SMOOTH",
"890 186 OFFCURVE",
"632 30 OFFCURVE",
"446 -15 CURVE SMOOTH",
"378 -32 OFFCURVE",
"303 -45 OFFCURVE",
"232 -45 CURVE SMOOTH",
"208 -45 OFFCURVE",
"148 -43 OFFCURVE",
"148 -12 CURVE SMOOTH",
"148 -2 OFFCURVE",
"141 7 OFFCURVE",
"132 7 CURVE SMOOTH",
"126 7 OFFCURVE",
"119 2 OFFCURVE",
"114 -11 CURVE",
"114 -66 OFFCURVE",
"195 -72 OFFCURVE",
"242 -72 CURVE SMOOTH"
);
}
);
width = 910;
}
);
note = Eth;
unicode = 00D0;
},
{
color = 3;
glyphname = E;
lastChange = "2022-03-02 12:06:51 +0000";
layers = (
{
anchors = (
{
name = bottom;
position = "{259, -64}";
},
{
name = ogonek;
position = "{586, 0}";
},
{
name = top;
position = "{660, 640}";
}
);
background = {
paths = (
{
closed = 1;
nodes = (
"798 621 OFFCURVE",
"730 633 OFFCURVE",
"676 633 CURVE SMOOTH",
"553 633 OFFCURVE",
"389 579 OFFCURVE",
"325 483 CURVE SMOOTH",
"311 462 OFFCURVE",
"300 437 OFFCURVE",
"300 412 CURVE SMOOTH",
"300 386 OFFCURVE",
"313 365 OFFCURVE",
"336 348 CURVE",
"206 313 OFFCURVE",
"102 246 OFFCURVE",
"52 133 CURVE SMOOTH",
"43 114 OFFCURVE",
"38 93 OFFCURVE",
"38 72 CURVE SMOOTH",
"38 -42 OFFCURVE",
"177 -85 OFFCURVE",
"287 -84 CURVE SMOOTH",
"299 -84 LINE SMOOTH",
"433 -83 OFFCURVE",
"559 -38 OFFCURVE",
"661 38 CURVE SMOOTH",
"688 58 OFFCURVE",
"719 85 OFFCURVE",
"736 112 CURVE SMOOTH",
"748 132 OFFCURVE",
"757 155 OFFCURVE",
"757 178 CURVE SMOOTH",
"757 218 OFFCURVE",
"726 249 OFFCURVE",
"678 249 CURVE SMOOTH",
"669 249 OFFCURVE",
"661 243 OFFCURVE",
"661 234 CURVE SMOOTH",
"661 208 OFFCURVE",
"723 235 OFFCURVE",
"723 178 CURVE SMOOTH",
"723 160 OFFCURVE",
"716 142 OFFCURVE",
"706 126 CURVE SMOOTH",
"693 104 OFFCURVE",
"668 82 OFFCURVE",
"647 65 CURVE SMOOTH",
"551 -10 OFFCURVE",
"426 -50 OFFCURVE",
"298 -55 CURVE SMOOTH",
"294 -55 OFFCURVE",
"290 -55 OFFCURVE",
"286 -55 CURVE SMOOTH",
"194 -55 OFFCURVE",
"71 -23 OFFCURVE",
"71 74 CURVE SMOOTH",
"71 91 OFFCURVE",
"75 108 OFFCURVE",
"82 124 CURVE SMOOTH",
"128 231 OFFCURVE",
"230 290 OFFCURVE",
"352 320 CURVE SMOOTH",
"360 322 OFFCURVE",
"367 324 OFFCURVE",
"375 325 CURVE",
"400 315 OFFCURVE",
"428 312 OFFCURVE",
"455 312 CURVE SMOOTH",
"471 312 OFFCURVE",
"488 313 OFFCURVE",
"505 315 CURVE SMOOTH",
"524 317 OFFCURVE",
"569 331 OFFCURVE",
"569 352 CURVE SMOOTH",
"569 368 OFFCURVE",
"538 369 OFFCURVE",
"527 369 CURVE SMOOTH",
"476 369 OFFCURVE",
"426 365 OFFCURVE",
"376 356 CURVE",
"351 368 OFFCURVE",
"334 386 OFFCURVE",
"334 412 CURVE SMOOTH",
"334 432 OFFCURVE",
"343 451 OFFCURVE",
"354 468 CURVE SMOOTH",
"415 559 OFFCURVE",
"570 606 OFFCURVE",
"685 606 CURVE SMOOTH",
"720 606 OFFCURVE",
"766 600 OFFCURVE",
"766 561 CURVE SMOOTH",
"766 543 OFFCURVE",
"750 511 OFFCURVE",
"724 511 CURVE SMOOTH",
"718 511 OFFCURVE",
"714 515 OFFCURVE",
"708 515 CURVE SMOOTH",
"699 515 OFFCURVE",
"692 507 OFFCURVE",
"692 500 CURVE SMOOTH",
"692 488 OFFCURVE",
"708 484 OFFCURVE",
"719 484 CURVE SMOOTH",
"764 484 OFFCURVE",
"798 526 OFFCURVE",
"798 562 CURVE SMOOTH"
);
}
);
};
layerId = "6A041D6C-A676-4DB4-A570-80A8F8AA896B";
paths = (
{
closed = 1;
nodes = (
"299 -74 LINE SMOOTH",
"433 -74 OFFCURVE",
"559 -28 OFFCURVE",
"661 48 CURVE SMOOTH",
"688 68 OFFCURVE",
"719 95 OFFCURVE",
"736 122 CURVE SMOOTH",
"748 142 OFFCURVE",
"757 165 OFFCURVE",
"757 188 CURVE SMOOTH",
"757 228 OFFCURVE",
"726 259 OFFCURVE",
"678 259 CURVE SMOOTH",
"669 259 OFFCURVE",
"661 253 OFFCURVE",
"661 244 CURVE SMOOTH",
"661 218 OFFCURVE",
"723 245 OFFCURVE",
"723 188 CURVE SMOOTH",
"723 170 OFFCURVE",
"716 152 OFFCURVE",
"706 136 CURVE SMOOTH",
"693 114 OFFCURVE",
"668 92 OFFCURVE",
"647 75 CURVE SMOOTH",
"551 0 OFFCURVE",
"426 -45 OFFCURVE",
"298 -45 CURVE SMOOTH",
"286 -45 LINE SMOOTH",
"194 -45 OFFCURVE",
"71 -13 OFFCURVE",
"71 84 CURVE SMOOTH",
"71 101 OFFCURVE",
"75 118 OFFCURVE",
"82 134 CURVE SMOOTH",
"128 241 OFFCURVE",
"230 300 OFFCURVE",
"352 330 CURVE SMOOTH",
"360 332 OFFCURVE",
"367 334 OFFCURVE",
"375 335 CURVE",
"400 325 OFFCURVE",
"428 322 OFFCURVE",
"455 322 CURVE SMOOTH",
"471 322 OFFCURVE",
"488 323 OFFCURVE",
"505 325 CURVE SMOOTH",
"524 327 OFFCURVE",
"569 341 OFFCURVE",
"569 362 CURVE SMOOTH",
"569 378 OFFCURVE",
"538 379 OFFCURVE",
"527 379 CURVE SMOOTH",
"476 379 OFFCURVE",
"426 375 OFFCURVE",
"376 366 CURVE",
"351 378 OFFCURVE",
"334 396 OFFCURVE",
"334 422 CURVE SMOOTH",
"334 442 OFFCURVE",
"343 461 OFFCURVE",
"354 478 CURVE SMOOTH",
"415 569 OFFCURVE",
"570 616 OFFCURVE",
"685 616 CURVE SMOOTH",
"720 616 OFFCURVE",
"766 610 OFFCURVE",
"766 571 CURVE SMOOTH",
"766 553 OFFCURVE",
"750 521 OFFCURVE",
"724 521 CURVE SMOOTH",
"718 521 OFFCURVE",
"714 525 OFFCURVE",
"708 525 CURVE SMOOTH",
"699 525 OFFCURVE",
"692 517 OFFCURVE",
"692 510 CURVE SMOOTH",
"692 498 OFFCURVE",
"708 494 OFFCURVE",
"719 494 CURVE SMOOTH",
"764 494 OFFCURVE",
"798 536 OFFCURVE",
"798 572 CURVE SMOOTH",
"798 631 OFFCURVE",
"730 643 OFFCURVE",
"676 643 CURVE SMOOTH",
"553 643 OFFCURVE",
"389 589 OFFCURVE",
"325 493 CURVE SMOOTH",
"311 472 OFFCURVE",
"300 447 OFFCURVE",
"300 422 CURVE SMOOTH",
"300 396 OFFCURVE",
"313 375 OFFCURVE",
"336 358 CURVE",
"206 323 OFFCURVE",
"102 256 OFFCURVE",
"52 143 CURVE SMOOTH",
"43 124 OFFCURVE",
"38 103 OFFCURVE",
"38 82 CURVE SMOOTH",
"38 -32 OFFCURVE",
"177 -74 OFFCURVE",
"287 -74 CURVE SMOOTH"
);
}
);
width = 724;
}
);
note = E;
unicode = 0045;
},
{
glyphname = F;
lastChange = "2022-02-07 22:20:45 +0000";
layers = (
{
background = {
paths = (
{
closed = 1;
nodes = (
"1157 553 OFFCURVE",
"1147 559 OFFCURVE",
"1138 559 CURVE SMOOTH",
"1129 559 OFFCURVE",
"1126 555 OFFCURVE",
"1122 548 CURVE SMOOTH",
"1109 523 OFFCURVE",
"1082 516 OFFCURVE",
"1052 516 CURVE SMOOTH",
"970 516 OFFCURVE",
"793 581 OFFCURVE",
"712 607 CURVE",
"715 620 OFFCURVE",
"721 636 OFFCURVE",
"721 649 CURVE SMOOTH",
"721 657 OFFCURVE",
"713 662 OFFCURVE",
"704 662 CURVE SMOOTH",
"695 662 OFFCURVE",
"691 658 OFFCURVE",
"688 651 CURVE SMOOTH",
"684 641 OFFCURVE",
"681 628 OFFCURVE",
"678 618 CURVE",
"570 651 OFFCURVE",
"438 685 OFFCURVE",
"323 685 CURVE SMOOTH",
"304 685 OFFCURVE",
"285 684 OFFCURVE",
"267 682 CURVE SMOOTH",
"189 673 OFFCURVE",
"83 616 OFFCURVE",
"83 540 CURVE SMOOTH",
"83 487 OFFCURVE",
"136 445 OFFCURVE",
"195 445 CURVE SMOOTH",
"205 445 OFFCURVE",
"212 451 OFFCURVE",
"212 459 CURVE SMOOTH",
"212 467 OFFCURVE",
"205 473 OFFCURVE",
"195 473 CURVE SMOOTH",
"153 473 OFFCURVE",
"116 504 OFFCURVE",
"116 542 CURVE SMOOTH",
"116 603 OFFCURVE",
"211 645 OFFCURVE",
"271 653 CURVE SMOOTH",
"291 655 OFFCURVE",
"310 656 OFFCURVE",
"330 656 CURVE SMOOTH",
"441 656 OFFCURVE",
"567 622 OFFCURVE",
"673 591 CURVE",
"648 489 OFFCURVE",
"616 387 OFFCURVE",
"573 290 CURVE",
"527 286 OFFCURVE",
"481 282 OFFCURVE",
"435 282 CURVE SMOOTH",
"426 282 OFFCURVE",
"398 282 OFFCURVE",
"398 293 CURVE SMOOTH",
"398 305 OFFCURVE",
"422 306 OFFCURVE",
"422 319 CURVE SMOOTH",
"422 327 OFFCURVE",
"415 334 OFFCURVE",
"406 334 CURVE SMOOTH",
"386 334 OFFCURVE",
"361 305 OFFCURVE",
"361 289 CURVE SMOOTH",
"361 258 OFFCURVE",
"406 253 OFFCURVE",
"433 253 CURVE SMOOTH",
"474 253 OFFCURVE",
"516 255 OFFCURVE",
"558 258 CURVE",
"552 247 OFFCURVE",
"547 236 OFFCURVE",
"540 226 CURVE SMOOTH",
"474 118 OFFCURVE",
"355 -18 OFFCURVE",
"198 -18 CURVE SMOOTH",
"112 -18 OFFCURVE",
"63 33 OFFCURVE",
"63 105 CURVE SMOOTH",
"63 111 OFFCURVE",
"63 117 OFFCURVE",
"64 123 CURVE SMOOTH",
"72 167 OFFCURVE",
"113 215 OFFCURVE",
"156 238 CURVE SMOOTH",
"165 243 OFFCURVE",
"174 245 OFFCURVE",
"184 249 CURVE SMOOTH",
"192 252 OFFCURVE",
"196 255 OFFCURVE",
"196 263 CURVE SMOOTH",
"196 271 OFFCURVE",
"190 278 OFFCURVE",
"180 278 CURVE SMOOTH",
"179 278 OFFCURVE",
"177 277 OFFCURVE",
"175 277 CURVE",
"98 256 OFFCURVE",
"31 176 OFFCURVE",
"31 107 CURVE SMOOTH",
"31 18 OFFCURVE",
"90 -47 OFFCURVE",
"198 -47 CURVE SMOOTH",
"389 -47 OFFCURVE",
"528 128 OFFCURVE",
"597 263 CURVE",
"639 266 OFFCURVE",
"698 273 OFFCURVE",
"739 273 CURVE SMOOTH",
"749 273 OFFCURVE",
"756 279 OFFCURVE",
"756 288 CURVE SMOOTH",
"756 296 OFFCURVE",
"749 302 OFFCURVE",
"739 302 CURVE SMOOTH",
"697 302 OFFCURVE",
"654 297 OFFCURVE",
"612 294 CURVE",
"654 387 OFFCURVE",
"681 485 OFFCURVE",
"706 582 CURVE",
"790 557 OFFCURVE",
"981 487 OFFCURVE",
"1063 487 CURVE SMOOTH",
"1103 487 OFFCURVE",
"1142 507 OFFCURVE",
"1156 540 CURVE",
"1156 541 OFFCURVE",
"1157 543 OFFCURVE",
"1157 545 CURVE SMOOTH"
);
}
);
};
layerId = "6A041D6C-A676-4DB4-A570-80A8F8AA896B";
paths = (
{
closed = 1;
nodes = (
"389 -37 OFFCURVE",
"528 138 OFFCURVE",
"597 273 CURVE",
"639 276 OFFCURVE",
"698 283 OFFCURVE",
"739 283 CURVE SMOOTH",
"749 283 OFFCURVE",
"756 289 OFFCURVE",
"756 298 CURVE SMOOTH",
"756 306 OFFCURVE",
"749 312 OFFCURVE",
"739 312 CURVE SMOOTH",
"697 312 OFFCURVE",
"654 307 OFFCURVE",
"612 304 CURVE",
"654 397 OFFCURVE",
"681 495 OFFCURVE",
"706 592 CURVE",
"790 567 OFFCURVE",
"981 497 OFFCURVE",
"1063 497 CURVE SMOOTH",
"1103 497 OFFCURVE",
"1142 517 OFFCURVE",
"1156 550 CURVE",
"1156 551 OFFCURVE",
"1157 553 OFFCURVE",
"1157 555 CURVE SMOOTH",
"1157 563 OFFCURVE",
"1147 569 OFFCURVE",
"1138 569 CURVE SMOOTH",
"1129 569 OFFCURVE",
"1126 565 OFFCURVE",
"1122 558 CURVE SMOOTH",
"1109 533 OFFCURVE",
"1082 526 OFFCURVE",
"1052 526 CURVE SMOOTH",
"970 526 OFFCURVE",
"793 591 OFFCURVE",
"712 617 CURVE",
"715 630 OFFCURVE",
"721 646 OFFCURVE",
"721 659 CURVE SMOOTH",
"721 667 OFFCURVE",
"713 672 OFFCURVE",
"704 672 CURVE SMOOTH",
"695 672 OFFCURVE",
"691 668 OFFCURVE",
"688 661 CURVE SMOOTH",
"684 651 OFFCURVE",
"681 638 OFFCURVE",
"678 628 CURVE",
"570 661 OFFCURVE",
"438 695 OFFCURVE",
"323 695 CURVE SMOOTH",
"304 695 OFFCURVE",
"285 694 OFFCURVE",
"267 692 CURVE SMOOTH",
"189 683 OFFCURVE",
"83 626 OFFCURVE",
"83 550 CURVE SMOOTH",
"83 497 OFFCURVE",
"136 455 OFFCURVE",
"195 455 CURVE SMOOTH",
"205 455 OFFCURVE",
"212 461 OFFCURVE",
"212 469 CURVE SMOOTH",
"212 477 OFFCURVE",
"205 483 OFFCURVE",
"195 483 CURVE SMOOTH",
"153 483 OFFCURVE",
"116 514 OFFCURVE",
"116 552 CURVE SMOOTH",
"116 613 OFFCURVE",
"211 655 OFFCURVE",
"271 663 CURVE SMOOTH",
"291 665 OFFCURVE",
"310 666 OFFCURVE",
"330 666 CURVE SMOOTH",
"441 666 OFFCURVE",
"567 632 OFFCURVE",
"673 601 CURVE",
"648 499 OFFCURVE",
"616 397 OFFCURVE",
"573 300 CURVE",
"527 296 OFFCURVE",
"481 292 OFFCURVE",
"435 292 CURVE SMOOTH",
"426 292 OFFCURVE",
"398 292 OFFCURVE",
"398 303 CURVE SMOOTH",
"398 315 OFFCURVE",
"422 316 OFFCURVE",
"422 329 CURVE SMOOTH",
"422 337 OFFCURVE",
"415 344 OFFCURVE",
"406 344 CURVE SMOOTH",
"386 344 OFFCURVE",
"361 315 OFFCURVE",
"361 299 CURVE SMOOTH",
"361 268 OFFCURVE",
"406 263 OFFCURVE",
"433 263 CURVE SMOOTH",
"474 263 OFFCURVE",
"516 265 OFFCURVE",
"558 268 CURVE",
"552 257 OFFCURVE",
"547 246 OFFCURVE",
"540 236 CURVE SMOOTH",
"474 128 OFFCURVE",
"355 -8 OFFCURVE",
"198 -8 CURVE SMOOTH",
"112 -8 OFFCURVE",
"63 43 OFFCURVE",
"63 115 CURVE SMOOTH",
"63 121 OFFCURVE",
"63 127 OFFCURVE",
"64 133 CURVE SMOOTH",
"72 177 OFFCURVE",
"113 225 OFFCURVE",
"156 248 CURVE SMOOTH",
"165 253 OFFCURVE",
"174 255 OFFCURVE",
"184 259 CURVE SMOOTH",
"192 262 OFFCURVE",
"196 265 OFFCURVE",
"196 273 CURVE SMOOTH",
"196 281 OFFCURVE",
"190 288 OFFCURVE",
"180 288 CURVE SMOOTH",
"179 288 OFFCURVE",
"177 287 OFFCURVE",
"175 287 CURVE",
"98 266 OFFCURVE",
"31 186 OFFCURVE",
"31 117 CURVE SMOOTH",
"31 28 OFFCURVE",
"90 -37 OFFCURVE",
"198 -37 CURVE SMOOTH"
);
}
);
width = 647;
}
);
note = F;
unicode = 0046;
},
{
color = 3;
glyphname = G;
lastChange = "2022-03-02 12:07:55 +0000";
layers = (
{
anchors = (
{
name = bottom;
position = "{108, -331}";
},
{
name = top;
position = "{765, 640}";
}
);
background = {
paths = (
{
closed = 1;
nodes = (
"922 623 OFFCURVE",
"852 649 OFFCURVE",
"784 649 CURVE SMOOTH",
"762 649 OFFCURVE",
"740 647 OFFCURVE",
"719 643 CURVE SMOOTH",
"561 613 OFFCURVE",
"436 532 OFFCURVE",
"332 427 CURVE",
"305 446 OFFCURVE",
"285 470 OFFCURVE",
"285 501 CURVE SMOOTH",
"285 518 OFFCURVE",
"295 528 OFFCURVE",
"295 538 CURVE SMOOTH",
"295 546 OFFCURVE",
"286 553 OFFCURVE",
"277 553 CURVE SMOOTH",
"258 553 OFFCURVE",
"252 513 OFFCURVE",
"252 500 CURVE SMOOTH",
"252 462 OFFCURVE",
"279 430 OFFCURVE",
"312 407 CURVE",
"289 381 OFFCURVE",
"266 355 OFFCURVE",
"245 328 CURVE SMOOTH",
"197 266 OFFCURVE",
"152 166 OFFCURVE",
"152 91 CURVE SMOOTH",
"152 39 OFFCURVE",
"174 -8 OFFCURVE",
"242 -8 CURVE SMOOTH",
"347 -8 OFFCURVE",
"475 84 OFFCURVE",
"545 146 CURVE SMOOTH",
"610 204 OFFCURVE",
"714 313 OFFCURVE",
"750 388 CURVE",
"762 391 LINE",
"718 241 OFFCURVE",
"653 84 OFFCURVE",
"557 -46 CURVE",
"492 -45 OFFCURVE",
"426 -47 OFFCURVE",
"362 -54 CURVE SMOOTH",
"234 -69 OFFCURVE",
"81 -105 OFFCURVE",
"-5 -196 CURVE SMOOTH",
"-22 -215 OFFCURVE",
"-39 -238 OFFCURVE",
"-43 -262 CURVE SMOOTH",
"-43 -264 OFFCURVE",
"-43 -267 OFFCURVE",
"-43 -269 CURVE SMOOTH",
"-43 -331 OFFCURVE",
"44 -351 OFFCURVE",
"100 -351 CURVE SMOOTH",
"106 -351 OFFCURVE",
"112 -350 OFFCURVE",
"118 -350 CURVE SMOOTH",
"154 -348 OFFCURVE",
"191 -338 OFFCURVE",
"224 -327 CURVE SMOOTH",
"346 -286 OFFCURVE",
"452 -214 OFFCURVE",
"534 -126 CURVE SMOOTH",
"548 -110 OFFCURVE",
"562 -94 OFFCURVE",
"575 -77 CURVE",
"617 -80 OFFCURVE",
"663 -86 OFFCURVE",
"703 -99 CURVE SMOOTH",
"724 -106 OFFCURVE",
"744 -114 OFFCURVE",
"762 -126 CURVE SMOOTH",
"766 -128 OFFCURVE",
"769 -130 OFFCURVE",
"773 -130 CURVE SMOOTH",
"782 -130 OFFCURVE",
"788 -123 OFFCURVE",
"788 -116 CURVE SMOOTH",
"788 -112 OFFCURVE",
"786 -108 OFFCURVE",
"782 -105 CURVE SMOOTH",
"744 -73 OFFCURVE",
"650 -52 OFFCURVE",
"598 -48 CURVE",
"693 87 OFFCURVE",
"761 253 OFFCURVE",
"799 408 CURVE",
"859 438 OFFCURVE",
"922 492 OFFCURVE",
"922 556 CURVE SMOOTH"
);
},
{
closed = 1;
nodes = (
"772 431 OFFCURVE",
"771 429 OFFCURVE",
"770 427 CURVE",
"766 426 LINE",
"767 432 OFFCURVE",
"769 438 OFFCURVE",
"770 444 CURVE",
"771 444 OFFCURVE",
"772 435 OFFCURVE",
"772 433 CURVE SMOOTH"
);
},
{
closed = 1;
nodes = (
"888 510 OFFCURVE",
"844 469 OFFCURVE",
"803 446 CURVE",
"800 454 OFFCURVE",
"793 462 OFFCURVE",
"782 462 CURVE SMOOTH",
"758 462 OFFCURVE",
"734 426 OFFCURVE",
"724 410 CURVE",
"660 390 OFFCURVE",
"579 381 OFFCURVE",
"511 381 CURVE SMOOTH",
"459 381 OFFCURVE",
"406 390 OFFCURVE",
"359 411 CURVE",
"457 510 OFFCURVE",
"576 585 OFFCURVE",
"724 614 CURVE SMOOTH",
"744 618 OFFCURVE",
"764 620 OFFCURVE",
"785 620 CURVE SMOOTH",
"832 620 OFFCURVE",
"888 605 OFFCURVE",
"888 555 CURVE SMOOTH"
);
},
{
closed = 1;
nodes = (
"623 247 OFFCURVE",
"449 65 OFFCURVE",
"281 27 CURVE SMOOTH",
"269 24 OFFCURVE",
"258 22 OFFCURVE",
"246 22 CURVE SMOOTH",
"198 22 OFFCURVE",
"185 56 OFFCURVE",
"185 91 CURVE SMOOTH",
"185 194 OFFCURVE",
"266 312 OFFCURVE",
"339 389 CURVE",
"392 362 OFFCURVE",
"456 352 OFFCURVE",
"516 352 CURVE SMOOTH",
"580 352 OFFCURVE",
"645 360 OFFCURVE",
"706 374 CURVE"
);
},
{
closed = 1;
nodes = (
"526 -86 OFFCURVE",
"517 -98 OFFCURVE",
"507 -109 CURVE SMOOTH",
"431 -191 OFFCURVE",
"330 -260 OFFCURVE",
"216 -298 CURVE SMOOTH",
"185 -309 OFFCURVE",
"150 -319 OFFCURVE",
"116 -321 CURVE SMOOTH",
"109 -322 OFFCURVE",
"101 -322 OFFCURVE",
"94 -322 CURVE SMOOTH",
"58 -322 OFFCURVE",
"-11 -314 OFFCURVE",
"-11 -272 CURVE SMOOTH",
"-11 -270 OFFCURVE",
"-11 -268 OFFCURVE",
"-10 -266 CURVE",
"-7 -244 OFFCURVE",
"10 -224 OFFCURVE",
"26 -208 CURVE SMOOTH",
"107 -128 OFFCURVE",
"251 -96 OFFCURVE",
"367 -83 CURVE SMOOTH",
"410 -78 OFFCURVE",
"453 -75 OFFCURVE",
"497 -75 CURVE SMOOTH",
"510 -75 OFFCURVE",
"524 -75 OFFCURVE",
"537 -76 CURVE"
);
}
);
};
layerId = "6A041D6C-A676-4DB4-A570-80A8F8AA896B";
paths = (
{
closed = 1;
nodes = (
"106 -341 OFFCURVE",
"112 -340 OFFCURVE",
"118 -340 CURVE SMOOTH",
"154 -338 OFFCURVE",
"191 -328 OFFCURVE",
"224 -317 CURVE SMOOTH",
"346 -276 OFFCURVE",
"452 -204 OFFCURVE",
"534 -116 CURVE SMOOTH",
"548 -100 OFFCURVE",
"562 -84 OFFCURVE",
"575 -67 CURVE",
"617 -70 OFFCURVE",
"663 -76 OFFCURVE",
"703 -89 CURVE SMOOTH",
"724 -96 OFFCURVE",
"744 -104 OFFCURVE",
"762 -116 CURVE SMOOTH",
"766 -118 OFFCURVE",
"769 -120 OFFCURVE",
"773 -120 CURVE SMOOTH",
"782 -120 OFFCURVE",
"788 -113 OFFCURVE",
"788 -106 CURVE SMOOTH",
"788 -102 OFFCURVE",
"786 -98 OFFCURVE",
"782 -95 CURVE SMOOTH",
"744 -63 OFFCURVE",
"650 -42 OFFCURVE",
"598 -38 CURVE",
"693 97 OFFCURVE",
"761 263 OFFCURVE",
"799 418 CURVE",
"859 448 OFFCURVE",
"922 502 OFFCURVE",
"922 566 CURVE SMOOTH",
"922 633 OFFCURVE",
"852 659 OFFCURVE",
"784 659 CURVE SMOOTH",
"762 659 OFFCURVE",
"740 657 OFFCURVE",
"719 653 CURVE SMOOTH",
"561 623 OFFCURVE",
"436 542 OFFCURVE",
"332 437 CURVE",
"305 456 OFFCURVE",
"285 480 OFFCURVE",
"285 511 CURVE SMOOTH",
"285 528 OFFCURVE",
"295 538 OFFCURVE",
"295 548 CURVE SMOOTH",
"295 556 OFFCURVE",
"286 563 OFFCURVE",
"277 563 CURVE SMOOTH",
"258 563 OFFCURVE",
"252 523 OFFCURVE",
"252 510 CURVE SMOOTH",
"252 472 OFFCURVE",
"279 440 OFFCURVE",
"312 417 CURVE",
"289 391 OFFCURVE",
"266 365 OFFCURVE",
"245 338 CURVE SMOOTH",
"197 276 OFFCURVE",
"152 176 OFFCURVE",
"152 101 CURVE SMOOTH",
"152 49 OFFCURVE",
"174 2 OFFCURVE",
"242 2 CURVE SMOOTH",
"347 2 OFFCURVE",
"475 94 OFFCURVE",
"545 156 CURVE SMOOTH",
"610 214 OFFCURVE",
"714 323 OFFCURVE",
"750 398 CURVE",
"762 401 LINE",
"718 251 OFFCURVE",
"653 94 OFFCURVE",
"557 -36 CURVE",
"526 -36 LINE SMOOTH",
"471 -36 OFFCURVE",
"416 -38 OFFCURVE",
"362 -44 CURVE SMOOTH",
"234 -59 OFFCURVE",
"81 -95 OFFCURVE",
"-5 -186 CURVE SMOOTH",
"-22 -205 OFFCURVE",
"-39 -228 OFFCURVE",
"-43 -252 CURVE",
"-43 -259 LINE SMOOTH",
"-43 -321 OFFCURVE",
"44 -341 OFFCURVE",
"100 -341 CURVE SMOOTH"
);
},
{
closed = 1;
nodes = (
"58 -312 OFFCURVE",
"-11 -304 OFFCURVE",
"-11 -262 CURVE SMOOTH",
"-11 -260 OFFCURVE",
"-11 -258 OFFCURVE",
"-10 -256 CURVE",
"-7 -234 OFFCURVE",
"10 -214 OFFCURVE",
"26 -198 CURVE SMOOTH",
"107 -118 OFFCURVE",
"251 -86 OFFCURVE",
"367 -73 CURVE SMOOTH",
"410 -68 OFFCURVE",
"453 -65 OFFCURVE",
"497 -65 CURVE SMOOTH",
"510 -65 OFFCURVE",
"524 -65 OFFCURVE",
"537 -66 CURVE",
"526 -76 OFFCURVE",
"517 -88 OFFCURVE",
"507 -99 CURVE SMOOTH",
"431 -181 OFFCURVE",
"330 -250 OFFCURVE",
"216 -288 CURVE SMOOTH",
"185 -299 OFFCURVE",
"150 -309 OFFCURVE",
"116 -311 CURVE SMOOTH",
"109 -312 OFFCURVE",
"101 -312 OFFCURVE",
"94 -312 CURVE SMOOTH"
);
},
{
closed = 1;
nodes = (
"198 32 OFFCURVE",
"185 66 OFFCURVE",
"185 101 CURVE SMOOTH",
"185 204 OFFCURVE",
"266 322 OFFCURVE",
"339 399 CURVE",
"392 372 OFFCURVE",
"456 362 OFFCURVE",
"516 362 CURVE SMOOTH",
"580 362 OFFCURVE",
"645 370 OFFCURVE",
"706 384 CURVE",
"623 257 OFFCURVE",
"449 75 OFFCURVE",
"281 37 CURVE SMOOTH",
"269 34 OFFCURVE",
"258 32 OFFCURVE",
"246 32 CURVE SMOOTH"
);
},
{
closed = 1;
nodes = (
"459 391 OFFCURVE",
"406 400 OFFCURVE",
"359 421 CURVE",
"457 520 OFFCURVE",
"576 595 OFFCURVE",
"724 624 CURVE SMOOTH",
"744 628 OFFCURVE",
"764 630 OFFCURVE",
"785 630 CURVE SMOOTH",
"832 630 OFFCURVE",
"888 615 OFFCURVE",
"888 565 CURVE SMOOTH",
"888 520 OFFCURVE",
"844 479 OFFCURVE",
"803 456 CURVE",
"800 464 OFFCURVE",
"793 472 OFFCURVE",
"782 472 CURVE SMOOTH",
"758 472 OFFCURVE",
"734 436 OFFCURVE",
"724 420 CURVE",
"660 400 OFFCURVE",
"579 391 OFFCURVE",
"511 391 CURVE SMOOTH"
);
},
{
closed = 1;
nodes = (
"767 442 OFFCURVE",
"769 448 OFFCURVE",
"770 454 CURVE",
"771 454 OFFCURVE",
"772 445 OFFCURVE",
"772 443 CURVE SMOOTH",
"772 441 OFFCURVE",
"771 439 OFFCURVE",
"770 437 CURVE",
"766 436 LINE"
);
}
);
width = 727;
}
);
note = G;
unicode = 0047;
},
{
color = 3;
glyphname = H;
lastChange = "2022-03-02 12:09:34 +0000";
layers = (
{
anchors = (
{
name = bottom;
position = "{337, 0}";
},
{
name = top;
position = "{727, 640}";
}
);
background = {
paths = (
{
closed = 1;
nodes = (
"983 629 OFFCURVE",
"976 636 OFFCURVE",
"967 636 CURVE SMOOTH",
"962 636 OFFCURVE",
"958 633 OFFCURVE",
"954 630 CURVE SMOOTH",
"925 604 OFFCURVE",
"898 575 OFFCURVE",
"872 547 CURVE SMOOTH",
"787 457 OFFCURVE",
"714 346 OFFCURVE",
"655 242 CURVE",
"528 267 OFFCURVE",
"404 304 OFFCURVE",
"278 334 CURVE",
"321 400 OFFCURVE",
"367 468 OFFCURVE",
"423 527 CURVE SMOOTH",
"439 543 OFFCURVE",
"455 559 OFFCURVE",
"472 575 CURVE SMOOTH",
"483 585 OFFCURVE",
"495 594 OFFCURVE",
"506 605 CURVE SMOOTH",
"509 608 OFFCURVE",
"511 611 OFFCURVE",
"511 614 CURVE SMOOTH",
"511 622 OFFCURVE",
"502 629 OFFCURVE",
"494 629 CURVE SMOOTH",
"489 629 OFFCURVE",
"485 627 OFFCURVE",
"482 624 CURVE SMOOTH",
"388 547 OFFCURVE",
"305 440 OFFCURVE",
"243 342 CURVE",
"211 350 OFFCURVE",
"178 357 OFFCURVE",
"145 357 CURVE SMOOTH",
"122 357 OFFCURVE",
"81 352 OFFCURVE",
"81 326 CURVE SMOOTH",
"81 309 OFFCURVE",
"98 297 OFFCURVE",
"114 290 CURVE SMOOTH",
"140 280 OFFCURVE",
"166 269 OFFCURVE",
"192 259 CURVE",
"152 188 OFFCURVE",
"83 52 OFFCURVE",
"83 -26 CURVE SMOOTH",
"83 -44 OFFCURVE",
"86 -101 OFFCURVE",
"116 -101 CURVE SMOOTH",
"127 -101 OFFCURVE",
"135 -92 OFFCURVE",
"135 -83 CURVE SMOOTH",
"135 -70 OFFCURVE",
"115 -69 OFFCURVE",
"115 -32 CURVE SMOOTH",
"115 38 OFFCURVE",
"187 182 OFFCURVE",
"223 246 CURVE",
"344 192 OFFCURVE",
"489 112 OFFCURVE",
"553 5 CURVE",
"551 -4 OFFCURVE",
"549 -13 OFFCURVE",
"549 -22 CURVE SMOOTH",
"549 -34 OFFCURVE",
"552 -47 OFFCURVE",
"555 -58 CURVE SMOOTH",
"559 -71 OFFCURVE",
"568 -81 OFFCURVE",
"585 -81 CURVE SMOOTH",
"608 -81 OFFCURVE",
"622 -63 OFFCURVE",
"622 -44 CURVE SMOOTH",
"622 -24 OFFCURVE",
"608 -6 OFFCURVE",
"595 10 CURVE",
"614 78 OFFCURVE",
"644 144 OFFCURVE",
"677 208 CURVE",
"708 201 OFFCURVE",
"741 194 OFFCURVE",
"773 194 CURVE SMOOTH",
"808 194 OFFCURVE",
"850 211 OFFCURVE",
"850 247 CURVE SMOOTH",
"850 263 OFFCURVE",
"830 295 OFFCURVE",
"809 295 CURVE SMOOTH",
"801 295 OFFCURVE",
"793 288 OFFCURVE",
"793 280 CURVE SMOOTH",
"793 267 OFFCURVE",
"820 263 OFFCURVE",
"820 246 CURVE SMOOTH",
"820 228 OFFCURVE",
"790 223 OFFCURVE",
"775 223 CURVE SMOOTH",
"748 223 OFFCURVE",
"719 231 OFFCURVE",
"692 235 CURVE",
"749 338 OFFCURVE",
"816 441 OFFCURVE",
"898 530 CURVE SMOOTH",
"924 558 OFFCURVE",
"953 585 OFFCURVE",
"979 613 CURVE",
"981 616 OFFCURVE",
"983 619 OFFCURVE",
"983 622 CURVE SMOOTH"
);
},
{
closed = 1;
nodes = (
"611 160 OFFCURVE",
"587 103 OFFCURVE",
"566 46 CURVE",
"482 142 OFFCURVE",
"360 216 OFFCURVE",
"238 270 CURVE",
"245 284 OFFCURVE",
"253 297 OFFCURVE",
"262 310 CURVE",
"389 279 OFFCURVE",
"513 242 OFFCURVE",
"641 214 CURVE"
);
},
{
closed = 1;
nodes = (
"220 306 OFFCURVE",
"214 295 OFFCURVE",
"207 284 CURVE",
"182 294 OFFCURVE",
"155 302 OFFCURVE",
"130 313 CURVE SMOOTH",
"126 315 OFFCURVE",
"117 318 OFFCURVE",
"117 323 CURVE SMOOTH",
"117 330 OFFCURVE",
"138 331 OFFCURVE",
"143 331 CURVE SMOOTH",
"171 331 OFFCURVE",
"201 323 OFFCURVE",
"228 317 CURVE"
);
}
);
};
layerId = "6A041D6C-A676-4DB4-A570-80A8F8AA896B";
paths = (
{
closed = 1;
nodes = (
"127 -91 OFFCURVE",
"135 -82 OFFCURVE",
"135 -73 CURVE SMOOTH",
"135 -60 OFFCURVE",
"115 -59 OFFCURVE",
"115 -22 CURVE SMOOTH",
"115 48 OFFCURVE",
"187 192 OFFCURVE",
"223 256 CURVE",
"344 202 OFFCURVE",
"489 122 OFFCURVE",
"553 15 CURVE",
"551 6 OFFCURVE",
"549 -3 OFFCURVE",
"549 -12 CURVE SMOOTH",
"549 -24 OFFCURVE",
"552 -37 OFFCURVE",
"555 -48 CURVE SMOOTH",
"559 -61 OFFCURVE",
"568 -71 OFFCURVE",
"585 -71 CURVE SMOOTH",
"608 -71 OFFCURVE",
"622 -53 OFFCURVE",
"622 -34 CURVE SMOOTH",
"622 -14 OFFCURVE",
"608 4 OFFCURVE",
"595 20 CURVE",
"614 88 OFFCURVE",
"644 154 OFFCURVE",
"677 218 CURVE",
"708 211 OFFCURVE",
"741 204 OFFCURVE",
"773 204 CURVE SMOOTH",
"808 204 OFFCURVE",
"850 221 OFFCURVE",
"850 257 CURVE SMOOTH",
"850 273 OFFCURVE",
"830 305 OFFCURVE",
"809 305 CURVE SMOOTH",
"801 305 OFFCURVE",
"793 298 OFFCURVE",
"793 290 CURVE SMOOTH",
"793 277 OFFCURVE",
"820 273 OFFCURVE",
"820 256 CURVE SMOOTH",
"820 238 OFFCURVE",
"790 233 OFFCURVE",
"775 233 CURVE SMOOTH",
"748 233 OFFCURVE",
"719 241 OFFCURVE",
"692 245 CURVE",
"749 348 OFFCURVE",
"816 451 OFFCURVE",
"898 540 CURVE SMOOTH",
"924 568 OFFCURVE",
"953 595 OFFCURVE",
"979 623 CURVE",
"981 626 OFFCURVE",
"983 629 OFFCURVE",
"983 632 CURVE SMOOTH",
"983 639 OFFCURVE",
"976 646 OFFCURVE",
"967 646 CURVE SMOOTH",
"962 646 OFFCURVE",
"958 643 OFFCURVE",
"954 640 CURVE SMOOTH",
"925 614 OFFCURVE",
"898 585 OFFCURVE",
"872 557 CURVE SMOOTH",
"787 467 OFFCURVE",
"714 356 OFFCURVE",
"655 252 CURVE",
"528 277 OFFCURVE",
"404 314 OFFCURVE",
"278 344 CURVE",
"321 410 OFFCURVE",
"367 478 OFFCURVE",
"423 537 CURVE SMOOTH",
"439 553 OFFCURVE",
"455 569 OFFCURVE",
"472 585 CURVE SMOOTH",
"483 595 OFFCURVE",
"495 604 OFFCURVE",
"506 615 CURVE SMOOTH",
"509 618 OFFCURVE",
"511 621 OFFCURVE",
"511 624 CURVE SMOOTH",
"511 632 OFFCURVE",
"502 639 OFFCURVE",
"494 639 CURVE SMOOTH",
"489 639 OFFCURVE",
"485 637 OFFCURVE",
"482 634 CURVE SMOOTH",
"388 557 OFFCURVE",
"305 450 OFFCURVE",
"243 352 CURVE",
"211 360 OFFCURVE",
"178 367 OFFCURVE",
"145 367 CURVE SMOOTH",
"122 367 OFFCURVE",
"81 362 OFFCURVE",
"81 336 CURVE SMOOTH",
"81 319 OFFCURVE",
"98 307 OFFCURVE",
"114 300 CURVE SMOOTH",
"140 290 OFFCURVE",
"166 279 OFFCURVE",
"192 269 CURVE",
"152 198 OFFCURVE",
"83 62 OFFCURVE",
"83 -16 CURVE SMOOTH",
"83 -34 OFFCURVE",
"86 -91 OFFCURVE",
"116 -91 CURVE SMOOTH"
);
},
{
closed = 1;
nodes = (
"182 304 OFFCURVE",
"155 312 OFFCURVE",
"130 323 CURVE SMOOTH",
"126 325 OFFCURVE",
"117 328 OFFCURVE",
"117 333 CURVE SMOOTH",
"117 340 OFFCURVE",
"138 341 OFFCURVE",
"143 341 CURVE SMOOTH",
"171 341 OFFCURVE",
"201 333 OFFCURVE",
"228 327 CURVE",
"220 316 OFFCURVE",
"214 305 OFFCURVE",
"207 294 CURVE"
);
},
{
closed = 1;
nodes = (
"482 152 OFFCURVE",
"360 226 OFFCURVE",
"238 280 CURVE",
"245 294 OFFCURVE",
"253 307 OFFCURVE",
"262 320 CURVE",
"389 289 OFFCURVE",
"513 252 OFFCURVE",
"641 224 CURVE",
"611 170 OFFCURVE",
"587 113 OFFCURVE",
"566 56 CURVE"
);
}
);
width = 793;
}
);
note = H;
unicode = 0048;
},
{
glyphname = Hbar;
lastChange = "2022-03-02 17:14:15 +0000";
layers = (
{
anchors = (
{
name = bottom;
position = "{337, 0}";
},
{
name = top;
position = "{727, 640}";
}
);
background = {
components = (
{
name = H;
},
{
name = emdash;
transform = "{1.5084, 0, 0, 1, 30, 226}";
}
);
};
layerId = "6A041D6C-A676-4DB4-A570-80A8F8AA896B";
paths = (
{
closed = 1;
nodes = (
"127 -91 OFFCURVE",
"135 -82 OFFCURVE",
"135 -73 CURVE SMOOTH",
"135 -60 OFFCURVE",
"115 -59 OFFCURVE",
"115 -22 CURVE SMOOTH",
"115 48 OFFCURVE",
"187 192 OFFCURVE",
"223 256 CURVE",
"344 202 OFFCURVE",
"489 122 OFFCURVE",
"553 15 CURVE",
"551 6 OFFCURVE",
"549 -3 OFFCURVE",
"549 -12 CURVE SMOOTH",
"549 -24 OFFCURVE",
"552 -37 OFFCURVE",
"555 -48 CURVE SMOOTH",
"559 -61 OFFCURVE",
"568 -71 OFFCURVE",
"585 -71 CURVE SMOOTH",
"608 -71 OFFCURVE",
"622 -53 OFFCURVE",
"622 -34 CURVE SMOOTH",
"622 -14 OFFCURVE",
"608 4 OFFCURVE",
"595 20 CURVE",
"614 88 OFFCURVE",
"644 154 OFFCURVE",
"677 218 CURVE",
"708 211 OFFCURVE",
"741 204 OFFCURVE",
"773 204 CURVE SMOOTH",
"808 204 OFFCURVE",
"850 221 OFFCURVE",
"850 257 CURVE SMOOTH",
"850 273 OFFCURVE",
"830 305 OFFCURVE",
"809 305 CURVE SMOOTH",
"801 305 OFFCURVE",
"793 298 OFFCURVE",
"793 290 CURVE SMOOTH",
"793 277 OFFCURVE",
"820 273 OFFCURVE",
"820 256 CURVE SMOOTH",
"820 238 OFFCURVE",
"790 233 OFFCURVE",
"775 233 CURVE SMOOTH",
"748 233 OFFCURVE",
"719 241 OFFCURVE",
"692 245 CURVE",
"749 348 OFFCURVE",
"816 451 OFFCURVE",
"898 540 CURVE SMOOTH",
"924 568 OFFCURVE",
"953 595 OFFCURVE",
"979 623 CURVE",
"981 626 OFFCURVE",
"983 629 OFFCURVE",
"983 632 CURVE SMOOTH",
"983 639 OFFCURVE",
"976 646 OFFCURVE",
"967 646 CURVE SMOOTH",
"962 646 OFFCURVE",
"958 643 OFFCURVE",
"954 640 CURVE SMOOTH",
"925 614 OFFCURVE",
"898 585 OFFCURVE",
"872 557 CURVE SMOOTH",
"787 467 OFFCURVE",
"714 356 OFFCURVE",
"655 252 CURVE",
"528 277 OFFCURVE",
"404 314 OFFCURVE",
"278 344 CURVE",
"321 410 OFFCURVE",
"367 478 OFFCURVE",
"423 537 CURVE SMOOTH",
"439 553 OFFCURVE",
"455 569 OFFCURVE",
"472 585 CURVE SMOOTH",
"483 595 OFFCURVE",
"495 604 OFFCURVE",
"506 615 CURVE SMOOTH",
"509 618 OFFCURVE",
"511 621 OFFCURVE",
"511 624 CURVE SMOOTH",
"511 632 OFFCURVE",
"502 639 OFFCURVE",
"494 639 CURVE SMOOTH",
"489 639 OFFCURVE",
"485 637 OFFCURVE",
"482 634 CURVE SMOOTH",
"388 557 OFFCURVE",
"305 450 OFFCURVE",
"243 352 CURVE",
"211 360 OFFCURVE",
"178 367 OFFCURVE",
"145 367 CURVE SMOOTH",
"122 367 OFFCURVE",
"81 362 OFFCURVE",
"81 336 CURVE SMOOTH",
"81 319 OFFCURVE",
"98 307 OFFCURVE",
"114 300 CURVE SMOOTH",
"140 290 OFFCURVE",
"166 279 OFFCURVE",
"192 269 CURVE",
"152 198 OFFCURVE",
"83 62 OFFCURVE",
"83 -16 CURVE SMOOTH",
"83 -34 OFFCURVE",
"86 -91 OFFCURVE",
"116 -91 CURVE SMOOTH"
);
},
{
closed = 1;
nodes = (
"182 304 OFFCURVE",
"155 312 OFFCURVE",
"130 323 CURVE SMOOTH",
"126 325 OFFCURVE",
"117 328 OFFCURVE",
"117 333 CURVE SMOOTH",
"117 340 OFFCURVE",
"138 341 OFFCURVE",
"143 341 CURVE SMOOTH",
"171 341 OFFCURVE",
"201 333 OFFCURVE",
"228 327 CURVE",
"220 316 OFFCURVE",
"214 305 OFFCURVE",
"207 294 CURVE"
);
},
{
closed = 1;
nodes = (
"482 152 OFFCURVE",
"360 226 OFFCURVE",
"238 280 CURVE",
"245 294 OFFCURVE",
"253 307 OFFCURVE",
"262 320 CURVE",
"389 289 OFFCURVE",
"513 252 OFFCURVE",
"641 224 CURVE",
"611 170 OFFCURVE",
"587 113 OFFCURVE",
"566 56 CURVE"
);
},
{
closed = 1;
nodes = (
"263.802 452 OFFCURVE",
"346.764 478 OFFCURVE",
"642.41 478 CURVE SMOOTH",
"879.229 478 OFFCURVE",
"900.347 467 OFFCURVE",
"925.99 467 CURVE SMOOTH",
"948.616 467 OFFCURVE",
"965.208 471 OFFCURVE",
"965.208 480 CURVE SMOOTH",
"965.208 483 OFFCURVE",
"950.124 485 OFFCURVE",
"948.616 485 CURVE",
"871.687 499 OFFCURVE",
"785.708 505 OFFCURVE",
"705.763 508 CURVE SMOOTH",
"692.188 509 OFFCURVE",
"668.053 509 OFFCURVE",
"637.885 509 CURVE SMOOTH",
"493.079 509 OFFCURVE",
"207.991 501 OFFCURVE",
"204.974 468 CURVE SMOOTH",
"204.974 455 OFFCURVE",
"217.042 452 OFFCURVE",
"232.126 452 CURVE SMOOTH"
);
}
);
width = 793;
}
);
unicode = 0126;
},
{
color = 3;
glyphname = I;
lastChange = "2022-03-02 12:12:00 +0000";
layers = (
{
anchors = (
{
name = bottom;
position = "{189, -31}";
},
{
name = ogonek;
position = "{358, 0}";
},
{
name = top;
position = "{742, 660}";
}
);
background = {
paths = (
{
closed = 1;
nodes = (
"767 663 OFFCURVE",
"762 662 OFFCURVE",
"756 662 CURVE SMOOTH",
"692 662 OFFCURVE",
"627 624 OFFCURVE",
"583 587 CURVE SMOOTH",
"546 555 OFFCURVE",
"489 498 OFFCURVE",
"489 450 CURVE SMOOTH",
"489 420 OFFCURVE",
"516 392 OFFCURVE",
"552 392 CURVE SMOOTH",
"567 392 OFFCURVE",
"613 403 OFFCURVE",
"613 420 CURVE SMOOTH",
"613 427 OFFCURVE",
"605 434 OFFCURVE",
"597 434 CURVE SMOOTH",
"585 434 OFFCURVE",
"575 420 OFFCURVE",
"554 420 CURVE SMOOTH",
"537 420 OFFCURVE",
"524 430 OFFCURVE",
"524 445 CURVE SMOOTH",
"524 478 OFFCURVE",
"571 539 OFFCURVE",
"598 562 CURVE SMOOTH",
"632 591 OFFCURVE",
"685 625 OFFCURVE",
"733 634 CURVE",
"723 622 OFFCURVE",
"717 612 OFFCURVE",
"713 598 CURVE SMOOTH",
"678 483 OFFCURVE",
"623 329 OFFCURVE",
"554 227 CURVE SMOOTH",
"488 129 OFFCURVE",
"358 -22 OFFCURVE",
"209 -22 CURVE SMOOTH",
"145 -22 OFFCURVE",
"115 22 OFFCURVE",
"115 72 CURVE SMOOTH",
"115 133 OFFCURVE",
"148 189 OFFCURVE",
"153 249 CURVE",
"181 247 OFFCURVE",
"211 249 OFFCURVE",
"240 249 CURVE SMOOTH",
"261 249 OFFCURVE",
"396 249 OFFCURVE",
"396 223 CURVE SMOOTH",
"396 214 OFFCURVE",
"400 206 OFFCURVE",
"411 206 CURVE SMOOTH",
"425 206 OFFCURVE",
"430 219 OFFCURVE",
"430 229 CURVE SMOOTH",
"430 277 OFFCURVE",
"304 278 OFFCURVE",
"266 278 CURVE SMOOTH",
"243 278 OFFCURVE",
"220 277 OFFCURVE",
"197 277 CURVE SMOOTH",
"176 277 OFFCURVE",
"155 278 OFFCURVE",
"135 281 CURVE SMOOTH",
"133 281 OFFCURVE",
"131 281 OFFCURVE",
"129 281 CURVE SMOOTH",
"121 281 OFFCURVE",
"115 277 OFFCURVE",
"115 270 CURVE SMOOTH",
"115 260 OFFCURVE",
"123 259 OFFCURVE",
"123 250 CURVE SMOOTH",
"123 239 OFFCURVE",
"114 220 OFFCURVE",
"110 208 CURVE SMOOTH",
"98 165 OFFCURVE",
"85 120 OFFCURVE",
"85 76 CURVE SMOOTH",
"85 9 OFFCURVE",
"124 -51 OFFCURVE",
"209 -51 CURVE SMOOTH",
"373 -51 OFFCURVE",
"509 101 OFFCURVE",
"583 211 CURVE SMOOTH",
"651 313 OFFCURVE",
"714 476 OFFCURVE",
"746 592 CURVE SMOOTH",
"751 608 OFFCURVE",
"767 643 OFFCURVE",
"767 657 CURVE SMOOTH"
);
}
);
};
layerId = "6A041D6C-A676-4DB4-A570-80A8F8AA896B";
paths = (
{
closed = 1;
nodes = (
"373 -41 OFFCURVE",
"509 111 OFFCURVE",
"583 221 CURVE SMOOTH",
"651 323 OFFCURVE",
"714 486 OFFCURVE",
"746 602 CURVE SMOOTH",
"751 618 OFFCURVE",
"767 653 OFFCURVE",
"767 667 CURVE SMOOTH",
"767 672 OFFCURVE",
"764 672 OFFCURVE",
"760 672 CURVE SMOOTH",
"756 672 LINE SMOOTH",
"692 672 OFFCURVE",
"627 634 OFFCURVE",
"583 597 CURVE SMOOTH",
"546 565 OFFCURVE",
"489 508 OFFCURVE",
"489 460 CURVE SMOOTH",
"489 430 OFFCURVE",
"516 402 OFFCURVE",
"552 402 CURVE SMOOTH",
"567 402 OFFCURVE",
"613 413 OFFCURVE",
"613 430 CURVE SMOOTH",
"613 437 OFFCURVE",
"605 444 OFFCURVE",
"597 444 CURVE SMOOTH",
"585 444 OFFCURVE",
"575 430 OFFCURVE",
"554 430 CURVE SMOOTH",
"537 430 OFFCURVE",
"524 440 OFFCURVE",
"524 455 CURVE SMOOTH",
"524 488 OFFCURVE",
"571 549 OFFCURVE",
"598 572 CURVE SMOOTH",
"632 601 OFFCURVE",
"685 635 OFFCURVE",
"733 644 CURVE",
"723 632 OFFCURVE",
"717 622 OFFCURVE",
"713 608 CURVE SMOOTH",
"678 493 OFFCURVE",
"623 339 OFFCURVE",
"554 237 CURVE SMOOTH",
"488 139 OFFCURVE",
"358 -12 OFFCURVE",
"209 -12 CURVE SMOOTH",
"145 -12 OFFCURVE",
"115 32 OFFCURVE",
"115 82 CURVE SMOOTH",
"115 143 OFFCURVE",
"148 199 OFFCURVE",
"153 259 CURVE",
"181 257 OFFCURVE",
"211 259 OFFCURVE",
"240 259 CURVE SMOOTH",
"261 259 OFFCURVE",
"396 259 OFFCURVE",
"396 233 CURVE SMOOTH",
"396 224 OFFCURVE",
"400 216 OFFCURVE",
"411 216 CURVE SMOOTH",
"425 216 OFFCURVE",
"430 229 OFFCURVE",
"430 239 CURVE SMOOTH",
"430 287 OFFCURVE",
"304 288 OFFCURVE",
"266 288 CURVE SMOOTH",
"243 288 OFFCURVE",
"220 287 OFFCURVE",
"197 287 CURVE SMOOTH",
"176 287 OFFCURVE",
"155 288 OFFCURVE",
"135 291 CURVE",
"129 291 LINE SMOOTH",
"121 291 OFFCURVE",
"115 287 OFFCURVE",
"115 280 CURVE SMOOTH",
"115 270 OFFCURVE",
"123 269 OFFCURVE",
"123 260 CURVE SMOOTH",
"123 249 OFFCURVE",
"114 230 OFFCURVE",
"110 218 CURVE SMOOTH",
"98 175 OFFCURVE",
"85 130 OFFCURVE",
"85 86 CURVE SMOOTH",
"85 19 OFFCURVE",
"124 -41 OFFCURVE",
"209 -41 CURVE SMOOTH"
);
}
);
width = 624;
}
);
note = I;
unicode = 0049;
},
{
color = 3;
glyphname = J;
lastChange = "2022-03-02 12:12:29 +0000";
layers = (
{
anchors = (
{
name = top;
position = "{676, 640}";
}
);
background = {
paths = (
{
closed = 1;
nodes = (
"695 553 OFFCURVE",
"686 502 OFFCURVE",
"671 451 CURVE SMOOTH",
"628 301 OFFCURVE",
"562 144 OFFCURVE",
"465 14 CURVE",
"401 15 OFFCURVE",
"335 13 OFFCURVE",
"271 6 CURVE SMOOTH",
"143 -9 OFFCURVE",
"-10 -45 OFFCURVE",
"-96 -136 CURVE SMOOTH",
"-113 -155 OFFCURVE",
"-130 -178 OFFCURVE",
"-134 -202 CURVE SMOOTH",
"-134 -204 OFFCURVE",
"-134 -207 OFFCURVE",
"-134 -209 CURVE SMOOTH",
"-134 -271 OFFCURVE",
"-47 -291 OFFCURVE",
"9 -291 CURVE SMOOTH",
"15 -291 OFFCURVE",
"21 -290 OFFCURVE",
"27 -290 CURVE SMOOTH",
"63 -288 OFFCURVE",
"100 -278 OFFCURVE",
"133 -267 CURVE SMOOTH",
"255 -226 OFFCURVE",
"361 -154 OFFCURVE",
"442 -66 CURVE SMOOTH",
"457 -50 OFFCURVE",
"471 -34 OFFCURVE",
"484 -17 CURVE",
"526 -20 OFFCURVE",
"572 -26 OFFCURVE",
"611 -39 CURVE SMOOTH",
"633 -46 OFFCURVE",
"652 -54 OFFCURVE",
"671 -66 CURVE SMOOTH",
"675 -68 OFFCURVE",
"678 -70 OFFCURVE",
"682 -70 CURVE SMOOTH",
"690 -70 OFFCURVE",
"697 -63 OFFCURVE",
"697 -56 CURVE SMOOTH",
"697 -52 OFFCURVE",
"694 -48 OFFCURVE",
"691 -45 CURVE SMOOTH",
"653 -13 OFFCURVE",
"559 8 OFFCURVE",
"507 12 CURVE",
"602 147 OFFCURVE",
"669 313 OFFCURVE",
"708 468 CURVE SMOOTH",
"720 515 OFFCURVE",
"728 560 OFFCURVE",
"728 598 CURVE SMOOTH",
"728 623 OFFCURVE",
"722 643 OFFCURVE",
"687 643 CURVE SMOOTH",
"639 643 OFFCURVE",
"552 600 OFFCURVE",
"512 578 CURVE SMOOTH",
"435 537 OFFCURVE",
"359 441 OFFCURVE",
"359 361 CURVE SMOOTH",
"359 320 OFFCURVE",
"378 285 OFFCURVE",
"431 285 CURVE SMOOTH",
"447 285 OFFCURVE",
"500 289 OFFCURVE",
"500 308 CURVE SMOOTH",
"500 316 OFFCURVE",
"494 324 OFFCURVE",
"484 324 CURVE SMOOTH",
"470 324 OFFCURVE",
"450 313 OFFCURVE",
"430 313 CURVE SMOOTH",
"399 313 OFFCURVE",
"391 343 OFFCURVE",
"391 365 CURVE SMOOTH",
"391 432 OFFCURVE",
"469 515 OFFCURVE",
"529 553 CURVE SMOOTH",
"563 575 OFFCURVE",
"635 614 OFFCURVE",
"679 614 CURVE SMOOTH",
"698 614 OFFCURVE",
"695 605 OFFCURVE",
"695 593 CURVE SMOOTH"
);
},
{
closed = 1;
nodes = (
"435 -26 OFFCURVE",
"426 -38 OFFCURVE",
"416 -49 CURVE SMOOTH",
"340 -131 OFFCURVE",
"238 -200 OFFCURVE",
"125 -238 CURVE SMOOTH",
"93 -249 OFFCURVE",
"59 -259 OFFCURVE",
"25 -261 CURVE SMOOTH",
"18 -262 OFFCURVE",
"10 -262 OFFCURVE",
"3 -262 CURVE SMOOTH",
"-33 -262 OFFCURVE",
"-102 -254 OFFCURVE",
"-102 -212 CURVE SMOOTH",
"-102 -210 OFFCURVE",
"-102 -208 OFFCURVE",
"-102 -206 CURVE SMOOTH",
"-98 -184 OFFCURVE",
"-81 -164 OFFCURVE",
"-65 -148 CURVE SMOOTH",
"16 -68 OFFCURVE",
"160 -36 OFFCURVE",
"276 -23 CURVE SMOOTH",
"319 -18 OFFCURVE",
"362 -15 OFFCURVE",
"405 -15 CURVE SMOOTH",
"419 -15 OFFCURVE",
"432 -15 OFFCURVE",
"446 -16 CURVE"
);
}
);
};
layerId = "6A041D6C-A676-4DB4-A570-80A8F8AA896B";
paths = (
{
closed = 1;
nodes = (
"15 -281 OFFCURVE",
"21 -280 OFFCURVE",
"27 -280 CURVE SMOOTH",
"63 -278 OFFCURVE",
"100 -268 OFFCURVE",
"133 -257 CURVE SMOOTH",
"255 -216 OFFCURVE",
"361 -144 OFFCURVE",
"442 -56 CURVE SMOOTH",
"457 -40 OFFCURVE",
"471 -24 OFFCURVE",
"484 -7 CURVE",
"526 -10 OFFCURVE",
"572 -16 OFFCURVE",
"611 -29 CURVE SMOOTH",
"633 -36 OFFCURVE",
"652 -44 OFFCURVE",
"671 -56 CURVE SMOOTH",
"675 -58 OFFCURVE",
"678 -60 OFFCURVE",
"682 -60 CURVE SMOOTH",
"690 -60 OFFCURVE",
"697 -53 OFFCURVE",
"697 -46 CURVE SMOOTH",
"697 -42 OFFCURVE",
"694 -38 OFFCURVE",
"691 -35 CURVE SMOOTH",
"653 -3 OFFCURVE",
"559 18 OFFCURVE",
"507 22 CURVE",
"602 157 OFFCURVE",
"669 323 OFFCURVE",
"708 478 CURVE SMOOTH",
"720 525 OFFCURVE",
"728 570 OFFCURVE",
"728 608 CURVE SMOOTH",
"728 633 OFFCURVE",
"722 653 OFFCURVE",
"687 653 CURVE SMOOTH",
"639 653 OFFCURVE",
"552 610 OFFCURVE",
"512 588 CURVE SMOOTH",
"435 547 OFFCURVE",
"359 451 OFFCURVE",
"359 371 CURVE SMOOTH",
"359 330 OFFCURVE",
"378 295 OFFCURVE",
"431 295 CURVE SMOOTH",
"447 295 OFFCURVE",
"500 299 OFFCURVE",
"500 318 CURVE SMOOTH",
"500 326 OFFCURVE",
"494 334 OFFCURVE",
"484 334 CURVE SMOOTH",
"470 334 OFFCURVE",
"450 323 OFFCURVE",
"430 323 CURVE SMOOTH",
"399 323 OFFCURVE",
"391 353 OFFCURVE",
"391 375 CURVE SMOOTH",
"391 442 OFFCURVE",
"469 525 OFFCURVE",
"529 563 CURVE SMOOTH",
"563 585 OFFCURVE",
"635 624 OFFCURVE",
"679 624 CURVE SMOOTH",
"693 624 OFFCURVE",
"695 619 OFFCURVE",
"695 611 CURVE SMOOTH",
"695 603 LINE SMOOTH",
"695 563 OFFCURVE",
"686 512 OFFCURVE",
"671 461 CURVE SMOOTH",
"628 311 OFFCURVE",
"562 154 OFFCURVE",
"465 24 CURVE",
"434 24 LINE SMOOTH",
"380 24 OFFCURVE",
"325 22 OFFCURVE",
"271 16 CURVE SMOOTH",
"143 1 OFFCURVE",
"-10 -35 OFFCURVE",
"-96 -126 CURVE SMOOTH",
"-113 -145 OFFCURVE",
"-130 -168 OFFCURVE",
"-134 -192 CURVE",
"-134 -199 LINE SMOOTH",
"-134 -261 OFFCURVE",
"-47 -281 OFFCURVE",
"9 -281 CURVE SMOOTH"
);
},
{
closed = 1;
nodes = (
"-33 -252 OFFCURVE",
"-102 -244 OFFCURVE",
"-102 -202 CURVE SMOOTH",
"-102 -196 LINE",
"-98 -174 OFFCURVE",
"-81 -154 OFFCURVE",
"-65 -138 CURVE SMOOTH",
"16 -58 OFFCURVE",
"160 -26 OFFCURVE",
"276 -13 CURVE SMOOTH",
"319 -8 OFFCURVE",
"362 -5 OFFCURVE",
"405 -5 CURVE SMOOTH",
"419 -5 OFFCURVE",
"432 -5 OFFCURVE",
"446 -6 CURVE",
"435 -16 OFFCURVE",
"426 -28 OFFCURVE",
"416 -39 CURVE SMOOTH",
"340 -121 OFFCURVE",
"238 -190 OFFCURVE",
"125 -228 CURVE SMOOTH",
"93 -239 OFFCURVE",
"59 -249 OFFCURVE",
"25 -251 CURVE SMOOTH",
"18 -252 OFFCURVE",
"10 -252 OFFCURVE",
"3 -252 CURVE SMOOTH"
);
}
);
width = 687;
}
);
note = J;
unicode = 004A;
},
{
color = 3;
glyphname = K;
lastChange = "2022-03-02 12:13:01 +0000";
layers = (
{
anchors = (
{
name = bottom;
position = "{452, 0}";
},
{
name = top;
position = "{802, 640}";
}
);
background = {
paths = (
{
closed = 1;
nodes = (
"930 639 OFFCURVE",
"673 506 OFFCURVE",
"540 431 CURVE",
"593 500 OFFCURVE",
"638 569 OFFCURVE",
"638 621 CURVE SMOOTH",
"638 671 OFFCURVE",
"574 698 OFFCURVE",
"511 698 CURVE SMOOTH",
"364 698 OFFCURVE",
"140 577 OFFCURVE",
"55 460 CURVE SMOOTH",
"28 422 OFFCURVE",
"-7 367 OFFCURVE",
"-7 322 CURVE SMOOTH",
"-7 268 OFFCURVE",
"47 243 OFFCURVE",
"103 243 CURVE SMOOTH",
"138 243 OFFCURVE",
"186 255 OFFCURVE",
"212 276 CURVE SMOOTH",
"215 279 OFFCURVE",
"218 283 OFFCURVE",
"218 287 CURVE SMOOTH",
"218 294 OFFCURVE",
"211 301 OFFCURVE",
"203 301 CURVE SMOOTH",
"194 301 OFFCURVE",
"157 271 OFFCURVE",
"106 271 CURVE SMOOTH",
"67 271 OFFCURVE",
"28 285 OFFCURVE",
"28 324 CURVE SMOOTH",
"28 362 OFFCURVE",
"60 413 OFFCURVE",
"83 445 CURVE SMOOTH",
"158 550 OFFCURVE",
"376 672 OFFCURVE",
"511 672 CURVE SMOOTH",
"556 672 OFFCURVE",
"599 654 OFFCURVE",
"599 615 CURVE SMOOTH",
"599 574 OFFCURVE",
"554 503 OFFCURVE",
"528 469 CURVE SMOOTH",
"508 443 OFFCURVE",
"488 416 OFFCURVE",
"469 389 CURVE",
"445 373 OFFCURVE",
"415 353 OFFCURVE",
"394 334 CURVE SMOOTH",
"389 329 OFFCURVE",
"388 325 OFFCURVE",
"388 318 CURVE SMOOTH",
"388 307 OFFCURVE",
"393 294 OFFCURVE",
"397 283 CURVE",
"355 218 OFFCURVE",
"251 61 OFFCURVE",
"251 -11 CURVE SMOOTH",
"251 -31 OFFCURVE",
"263 -71 OFFCURVE",
"293 -71 CURVE SMOOTH",
"302 -71 OFFCURVE",
"308 -64 OFFCURVE",
"308 -56 CURVE SMOOTH",
"308 -38 OFFCURVE",
"283 -50 OFFCURVE",
"283 -13 CURVE SMOOTH",
"283 49 OFFCURVE",
"379 195 OFFCURVE",
"416 251 CURVE",
"418 250 LINE",
"449 141 OFFCURVE",
"552 -30 OFFCURVE",
"638 -30 CURVE SMOOTH",
"727 -30 OFFCURVE",
"824 115 OFFCURVE",
"848 164 CURVE SMOOTH",
"856 182 OFFCURVE",
"836 194 OFFCURVE",
"825 178 CURVE SMOOTH",
"754 73 OFFCURVE",
"705 6 OFFCURVE",
"642 6 CURVE SMOOTH",
"567 6 OFFCURVE",
"441 215 OFFCURVE",
"441 289 CURVE",
"459 316 OFFCURVE",
"476 344 OFFCURVE",
"496 370 CURVE",
"601 438 OFFCURVE",
"914 610 OFFCURVE",
"1041 610 CURVE SMOOTH",
"1063 610 OFFCURVE",
"1077 593 OFFCURVE",
"1077 575 CURVE SMOOTH",
"1077 567 OFFCURVE",
"1071 562 OFFCURVE",
"1071 555 CURVE SMOOTH",
"1071 547 OFFCURVE",
"1081 541 OFFCURVE",
"1089 541 CURVE SMOOTH",
"1106 541 OFFCURVE",
"1109 560 OFFCURVE",
"1109 571 CURVE SMOOTH",
"1109 605 OFFCURVE",
"1084 639 OFFCURVE",
"1041 639 CURVE SMOOTH"
);
}
);
};
layerId = "6A041D6C-A676-4DB4-A570-80A8F8AA896B";
paths = (
{
closed = 1;
nodes = (
"302 -61 OFFCURVE",
"308 -54 OFFCURVE",
"308 -46 CURVE SMOOTH",
"308 -28 OFFCURVE",
"283 -40 OFFCURVE",
"283 -3 CURVE SMOOTH",
"283 59 OFFCURVE",
"379 205 OFFCURVE",
"416 261 CURVE",
"418 260 LINE",
"449 151 OFFCURVE",
"552 -20 OFFCURVE",
"638 -20 CURVE SMOOTH",
"727 -20 OFFCURVE",
"824 125 OFFCURVE",
"848 174 CURVE SMOOTH",
"853 186 OFFCURVE",
"846 195 OFFCURVE",
"837 195 CURVE SMOOTH",
"833 195 OFFCURVE",
"829 193 OFFCURVE",
"825 188 CURVE SMOOTH",
"754 83 OFFCURVE",
"705 16 OFFCURVE",
"642 16 CURVE SMOOTH",
"567 16 OFFCURVE",
"441 225 OFFCURVE",
"441 299 CURVE",
"459 326 OFFCURVE",
"476 354 OFFCURVE",
"496 380 CURVE",
"601 448 OFFCURVE",
"914 620 OFFCURVE",
"1041 620 CURVE SMOOTH",
"1063 620 OFFCURVE",
"1077 603 OFFCURVE",
"1077 585 CURVE SMOOTH",
"1077 577 OFFCURVE",
"1071 572 OFFCURVE",
"1071 565 CURVE SMOOTH",
"1071 557 OFFCURVE",
"1081 551 OFFCURVE",
"1089 551 CURVE SMOOTH",
"1106 551 OFFCURVE",
"1109 570 OFFCURVE",
"1109 581 CURVE SMOOTH",
"1109 615 OFFCURVE",
"1084 649 OFFCURVE",
"1041 649 CURVE SMOOTH",
"930 649 OFFCURVE",
"673 516 OFFCURVE",
"540 441 CURVE",
"593 510 OFFCURVE",
"638 579 OFFCURVE",
"638 631 CURVE SMOOTH",
"638 681 OFFCURVE",
"574 708 OFFCURVE",
"511 708 CURVE SMOOTH",
"364 708 OFFCURVE",
"140 587 OFFCURVE",
"55 470 CURVE SMOOTH",
"28 432 OFFCURVE",
"-7 377 OFFCURVE",
"-7 332 CURVE SMOOTH",
"-7 278 OFFCURVE",
"47 253 OFFCURVE",
"103 253 CURVE SMOOTH",
"138 253 OFFCURVE",
"186 265 OFFCURVE",
"212 286 CURVE SMOOTH",
"215 289 OFFCURVE",
"218 293 OFFCURVE",
"218 297 CURVE SMOOTH",
"218 304 OFFCURVE",
"211 311 OFFCURVE",
"203 311 CURVE SMOOTH",
"194 311 OFFCURVE",
"157 281 OFFCURVE",
"106 281 CURVE SMOOTH",
"67 281 OFFCURVE",
"28 295 OFFCURVE",
"28 334 CURVE SMOOTH",
"28 372 OFFCURVE",
"60 423 OFFCURVE",
"83 455 CURVE SMOOTH",
"158 560 OFFCURVE",
"376 682 OFFCURVE",
"511 682 CURVE SMOOTH",
"556 682 OFFCURVE",
"599 664 OFFCURVE",
"599 625 CURVE SMOOTH",
"599 584 OFFCURVE",
"554 513 OFFCURVE",
"528 479 CURVE SMOOTH",
"508 453 OFFCURVE",
"488 426 OFFCURVE",
"469 399 CURVE",
"445 383 OFFCURVE",
"415 363 OFFCURVE",
"394 344 CURVE SMOOTH",
"389 339 OFFCURVE",
"388 335 OFFCURVE",
"388 328 CURVE SMOOTH",
"388 317 OFFCURVE",
"393 304 OFFCURVE",
"397 293 CURVE",
"355 228 OFFCURVE",
"251 71 OFFCURVE",
"251 -1 CURVE SMOOTH",
"251 -21 OFFCURVE",
"263 -61 OFFCURVE",
"293 -61 CURVE SMOOTH"
);
}
);
width = 783;
}
);
note = K;
unicode = 004B;
},
{
color = 3;
glyphname = L;
lastChange = "2022-03-02 12:16:50 +0000";
layers = (
{
anchors = (
{
name = bottom;
position = "{325, 0}";
},
{
name = center;
position = "{541, 422}";
},
{
name = top;
position = "{838, 704}";
},
{
name = topright;
position = "{948, 714}";
}
);
background = {
paths = (
{
closed = 1;
nodes = (
"954 -44 OFFCURVE",
"946 -37 OFFCURVE",
"937 -37 CURVE SMOOTH",
"931 -37 OFFCURVE",
"928 -39 OFFCURVE",
"925 -42 CURVE SMOOTH",
"897 -64 OFFCURVE",
"854 -73 OFFCURVE",
"817 -73 CURVE SMOOTH",
"654 -73 OFFCURVE",
"491 22 OFFCURVE",
"351 85 CURVE",
"394 134 OFFCURVE",
"429 188 OFFCURVE",
"462 243 CURVE",
"579 243 OFFCURVE",
"691 299 OFFCURVE",
"768 372 CURVE SMOOTH",
"831 431 OFFCURVE",
"901 531 OFFCURVE",
"901 615 CURVE SMOOTH",
"901 665 OFFCURVE",
"870 704 OFFCURVE",
"808 704 CURVE SMOOTH",
"728 704 OFFCURVE",
"648 613 OFFCURVE",
"611 560 CURVE SMOOTH",
"546 469 OFFCURVE",
"492 370 OFFCURVE",
"440 273 CURVE",
"356 280 OFFCURVE",
"279 307 OFFCURVE",
"279 392 CURVE SMOOTH",
"279 449 OFFCURVE",
"317 507 OFFCURVE",
"375 534 CURVE SMOOTH",
"393 543 OFFCURVE",
"411 545 OFFCURVE",
"430 550 CURVE SMOOTH",
"439 552 OFFCURVE",
"444 556 OFFCURVE",
"444 565 CURVE SMOOTH",
"444 573 OFFCURVE",
"438 579 OFFCURVE",
"428 579 CURVE SMOOTH",
"408 579 OFFCURVE",
"377 568 OFFCURVE",
"359 559 CURVE SMOOTH",
"291 526 OFFCURVE",
"249 460 OFFCURVE",
"249 393 CURVE SMOOTH",
"249 301 OFFCURVE",
"323 254 OFFCURVE",
"422 244 CURVE",
"392 193 OFFCURVE",
"358 143 OFFCURVE",
"320 97 CURVE",
"259 120 OFFCURVE",
"179 146 OFFCURVE",
"112 146 CURVE SMOOTH",
"38 146 OFFCURVE",
"-39 112 OFFCURVE",
"-39 39 CURVE SMOOTH",
"-39 -26 OFFCURVE",
"26 -62 OFFCURVE",
"96 -62 CURVE SMOOTH",
"189 -62 OFFCURVE",
"270 0 OFFCURVE",
"327 59 CURVE",
"475 -3 OFFCURVE",
"649 -102 OFFCURVE",
"817 -102 CURVE SMOOTH",
"823 -102 OFFCURVE",
"829 -102 OFFCURVE",
"835 -102 CURVE SMOOTH",
"869 -100 OFFCURVE",
"925 -84 OFFCURVE",
"949 -61 CURVE SMOOTH",
"952 -58 OFFCURVE",
"954 -55 OFFCURVE",
"954 -51 CURVE SMOOTH"
);
},
{
closed = 1;
nodes = (
"865 555 OFFCURVE",
"795 438 OFFCURVE",
"744 391 CURVE SMOOTH",
"675 327 OFFCURVE",
"582 281 OFFCURVE",
"481 274 CURVE",
"529 361 OFFCURVE",
"582 464 OFFCURVE",
"639 545 CURVE SMOOTH",
"670 588 OFFCURVE",
"739 675 OFFCURVE",
"806 675 CURVE SMOOTH",
"846 675 OFFCURVE",
"865 652 OFFCURVE",
"865 619 CURVE SMOOTH"
);
},
{
closed = 1;
nodes = (
"249 20 OFFCURVE",
"181 -33 OFFCURVE",
"99 -33 CURVE SMOOTH",
"49 -33 OFFCURVE",
"-5 -10 OFFCURVE",
"-5 39 CURVE SMOOTH",
"-5 94 OFFCURVE",
"56 118 OFFCURVE",
"111 118 CURVE SMOOTH",
"173 118 OFFCURVE",
"244 93 OFFCURVE",
"300 71 CURVE"
);
}
);
};
layerId = "6A041D6C-A676-4DB4-A570-80A8F8AA896B";
paths = (
{
closed = 1;
nodes = (
"835 -92 LINE SMOOTH",
"869 -92 OFFCURVE",
"925 -74 OFFCURVE",
"949 -51 CURVE SMOOTH",
"952 -48 OFFCURVE",
"954 -45 OFFCURVE",
"954 -41 CURVE SMOOTH",
"954 -34 OFFCURVE",
"946 -27 OFFCURVE",
"937 -27 CURVE SMOOTH",
"931 -27 OFFCURVE",
"928 -29 OFFCURVE",
"925 -32 CURVE SMOOTH",
"897 -54 OFFCURVE",
"854 -63 OFFCURVE",
"817 -63 CURVE SMOOTH",
"654 -63 OFFCURVE",
"491 32 OFFCURVE",
"351 95 CURVE",
"394 144 OFFCURVE",
"429 198 OFFCURVE",
"462 253 CURVE",
"579 253 OFFCURVE",
"691 309 OFFCURVE",
"768 382 CURVE SMOOTH",
"831 441 OFFCURVE",
"901 541 OFFCURVE",
"901 625 CURVE SMOOTH",
"901 675 OFFCURVE",
"870 714 OFFCURVE",
"808 714 CURVE SMOOTH",
"728 714 OFFCURVE",
"648 623 OFFCURVE",
"611 570 CURVE SMOOTH",
"546 479 OFFCURVE",
"492 380 OFFCURVE",
"440 283 CURVE",
"356 290 OFFCURVE",
"279 317 OFFCURVE",
"279 402 CURVE SMOOTH",
"279 459 OFFCURVE",
"317 517 OFFCURVE",
"375 544 CURVE SMOOTH",
"393 553 OFFCURVE",
"411 555 OFFCURVE",
"430 560 CURVE SMOOTH",
"439 562 OFFCURVE",
"444 566 OFFCURVE",
"444 575 CURVE SMOOTH",
"444 583 OFFCURVE",
"438 589 OFFCURVE",
"428 589 CURVE SMOOTH",
"408 589 OFFCURVE",
"377 578 OFFCURVE",
"359 569 CURVE SMOOTH",
"291 536 OFFCURVE",
"249 470 OFFCURVE",
"249 403 CURVE SMOOTH",
"249 311 OFFCURVE",
"323 264 OFFCURVE",
"422 254 CURVE",
"392 203 OFFCURVE",
"358 153 OFFCURVE",
"320 107 CURVE",
"259 130 OFFCURVE",
"179 156 OFFCURVE",
"112 156 CURVE SMOOTH",
"38 156 OFFCURVE",
"-39 122 OFFCURVE",
"-39 49 CURVE SMOOTH",
"-39 -16 OFFCURVE",
"26 -52 OFFCURVE",
"96 -52 CURVE SMOOTH",
"189 -52 OFFCURVE",
"270 10 OFFCURVE",
"327 69 CURVE",
"475 7 OFFCURVE",
"649 -92 OFFCURVE",
"817 -92 CURVE SMOOTH"
);
},
{
closed = 1;
nodes = (
"49 -23 OFFCURVE",
"-5 0 OFFCURVE",
"-5 49 CURVE SMOOTH",
"-5 104 OFFCURVE",
"56 128 OFFCURVE",
"111 128 CURVE SMOOTH",
"173 128 OFFCURVE",
"244 103 OFFCURVE",
"300 81 CURVE",
"249 30 OFFCURVE",
"181 -23 OFFCURVE",
"99 -23 CURVE SMOOTH"
);
},
{
closed = 1;
nodes = (
"529 371 OFFCURVE",
"582 474 OFFCURVE",
"639 555 CURVE SMOOTH",
"670 598 OFFCURVE",
"739 685 OFFCURVE",
"806 685 CURVE SMOOTH",
"846 685 OFFCURVE",
"865 662 OFFCURVE",
"865 629 CURVE SMOOTH",
"865 565 OFFCURVE",
"795 448 OFFCURVE",
"744 401 CURVE SMOOTH",
"675 337 OFFCURVE",
"582 291 OFFCURVE",
"481 284 CURVE"
);
}
);
width = 669;
}
);
note = L;
unicode = 004C;
},
{
color = 0;
glyphname = Ldot;
lastChange = "2022-03-02 20:04:19 +0000";
layers = (
{
anchors = (
{
name = bottom;
position = "{325, 0}";
},
{
name = center;
position = "{541, 422}";
},
{
name = top;
position = "{838, 704}";
},
{
name = topright;
position = "{948, 714}";
}
);
background = {
components = (
{
name = L;
},
{
name = periodcentered;
}
);
};
layerId = "6A041D6C-A676-4DB4-A570-80A8F8AA896B";
paths = (
{
closed = 1;
nodes = (
"835 -92 LINE SMOOTH",
"869 -92 OFFCURVE",
"925 -74 OFFCURVE",
"949 -51 CURVE SMOOTH",
"952 -48 OFFCURVE",
"954 -45 OFFCURVE",
"954 -41 CURVE SMOOTH",
"954 -34 OFFCURVE",
"946 -27 OFFCURVE",
"937 -27 CURVE SMOOTH",
"931 -27 OFFCURVE",
"928 -29 OFFCURVE",
"925 -32 CURVE SMOOTH",
"897 -54 OFFCURVE",
"854 -63 OFFCURVE",
"817 -63 CURVE SMOOTH",
"654 -63 OFFCURVE",
"491 32 OFFCURVE",
"351 95 CURVE",
"394 144 OFFCURVE",
"429 198 OFFCURVE",
"462 253 CURVE",
"579 253 OFFCURVE",
"691 309 OFFCURVE",
"768 382 CURVE SMOOTH",
"831 441 OFFCURVE",
"901 541 OFFCURVE",
"901 625 CURVE SMOOTH",
"901 675 OFFCURVE",
"870 714 OFFCURVE",
"808 714 CURVE SMOOTH",
"728 714 OFFCURVE",
"648 623 OFFCURVE",
"611 570 CURVE SMOOTH",
"546 479 OFFCURVE",
"492 380 OFFCURVE",
"440 283 CURVE",
"356 290 OFFCURVE",
"279 317 OFFCURVE",
"279 402 CURVE SMOOTH",
"279 459 OFFCURVE",
"317 517 OFFCURVE",
"375 544 CURVE SMOOTH",
"393 553 OFFCURVE",
"411 555 OFFCURVE",
"430 560 CURVE SMOOTH",
"439 562 OFFCURVE",
"444 566 OFFCURVE",
"444 575 CURVE SMOOTH",
"444 583 OFFCURVE",
"438 589 OFFCURVE",
"428 589 CURVE SMOOTH",
"408 589 OFFCURVE",
"377 578 OFFCURVE",
"359 569 CURVE SMOOTH",
"291 536 OFFCURVE",
"249 470 OFFCURVE",
"249 403 CURVE SMOOTH",
"249 311 OFFCURVE",
"323 264 OFFCURVE",
"422 254 CURVE",
"392 203 OFFCURVE",
"358 153 OFFCURVE",
"320 107 CURVE",
"259 130 OFFCURVE",
"179 156 OFFCURVE",
"112 156 CURVE SMOOTH",
"38 156 OFFCURVE",
"-39 122 OFFCURVE",
"-39 49 CURVE SMOOTH",
"-39 -16 OFFCURVE",
"26 -52 OFFCURVE",
"96 -52 CURVE SMOOTH",
"189 -52 OFFCURVE",
"270 10 OFFCURVE",
"327 69 CURVE",
"475 7 OFFCURVE",
"649 -92 OFFCURVE",
"817 -92 CURVE SMOOTH"
);
},
{
closed = 1;
nodes = (
"49 -23 OFFCURVE",
"-5 0 OFFCURVE",
"-5 49 CURVE SMOOTH",
"-5 104 OFFCURVE",
"56 128 OFFCURVE",
"111 128 CURVE SMOOTH",
"173 128 OFFCURVE",
"244 103 OFFCURVE",
"300 81 CURVE",
"249 30 OFFCURVE",
"181 -23 OFFCURVE",
"99 -23 CURVE SMOOTH"
);
},
{
closed = 1;
nodes = (
"529 371 OFFCURVE",
"582 474 OFFCURVE",
"639 555 CURVE SMOOTH",
"670 598 OFFCURVE",
"739 685 OFFCURVE",
"806 685 CURVE SMOOTH",
"846 685 OFFCURVE",
"865 662 OFFCURVE",
"865 629 CURVE SMOOTH",
"865 565 OFFCURVE",
"795 448 OFFCURVE",
"744 401 CURVE SMOOTH",
"675 337 OFFCURVE",
"582 291 OFFCURVE",
"481 284 CURVE"
);
},
{
closed = 1;
nodes = (
"827 233 OFFCURVE",
"842 248 OFFCURVE",
"842 268 CURVE SMOOTH",
"842 288 OFFCURVE",
"827 303 OFFCURVE",
"807 303 CURVE SMOOTH",
"787 303 OFFCURVE",
"773 288 OFFCURVE",
"773 268 CURVE SMOOTH",
"773 248 OFFCURVE",
"787 233 OFFCURVE",
"807 233 CURVE SMOOTH"
);
}
);
width = 669;
}
);
unicode = 013F;
},
{
color = 3;
glyphname = Lslash;
lastChange = "2022-03-02 12:16:50 +0000";
layers = (
{
anchors = (
{
name = topright;
position = "{948, 714}";
}
);
background = {
components = (
{
name = L;
},
{
name = strokeshortcomb;
transform = "{0.90987, 0.1142, -0.15643, 0.78268, 303, 95}";
}
);
};
layerId = "6A041D6C-A676-4DB4-A570-80A8F8AA896B";
paths = (
{
closed = 1;
nodes = (
"835 -92 LINE SMOOTH",
"869 -92 OFFCURVE",
"925 -74 OFFCURVE",
"949 -51 CURVE SMOOTH",
"952 -48 OFFCURVE",
"954 -45 OFFCURVE",
"954 -41 CURVE SMOOTH",
"954 -34 OFFCURVE",
"946 -27 OFFCURVE",
"937 -27 CURVE SMOOTH",
"931 -27 OFFCURVE",
"928 -29 OFFCURVE",
"925 -32 CURVE SMOOTH",
"897 -54 OFFCURVE",
"854 -63 OFFCURVE",
"817 -63 CURVE SMOOTH",
"654 -63 OFFCURVE",
"491 32 OFFCURVE",
"351 95 CURVE",
"394 144 OFFCURVE",
"429 198 OFFCURVE",
"462 253 CURVE",
"579 253 OFFCURVE",
"691 309 OFFCURVE",
"768 382 CURVE SMOOTH",
"831 441 OFFCURVE",
"901 541 OFFCURVE",
"901 625 CURVE SMOOTH",
"901 675 OFFCURVE",
"870 714 OFFCURVE",
"808 714 CURVE SMOOTH",
"728 714 OFFCURVE",
"648 623 OFFCURVE",
"611 570 CURVE SMOOTH",
"546 479 OFFCURVE",
"492 380 OFFCURVE",
"440 283 CURVE",
"356 290 OFFCURVE",
"279 317 OFFCURVE",
"279 402 CURVE SMOOTH",
"279 459 OFFCURVE",
"317 517 OFFCURVE",
"375 544 CURVE SMOOTH",
"393 553 OFFCURVE",
"411 555 OFFCURVE",
"430 560 CURVE SMOOTH",
"439 562 OFFCURVE",
"444 566 OFFCURVE",
"444 575 CURVE SMOOTH",
"444 583 OFFCURVE",
"438 589 OFFCURVE",
"428 589 CURVE SMOOTH",
"408 589 OFFCURVE",
"377 578 OFFCURVE",
"359 569 CURVE SMOOTH",
"291 536 OFFCURVE",
"249 470 OFFCURVE",
"249 403 CURVE SMOOTH",
"249 311 OFFCURVE",
"323 264 OFFCURVE",
"422 254 CURVE",
"392 203 OFFCURVE",
"358 153 OFFCURVE",
"320 107 CURVE",
"259 130 OFFCURVE",
"179 156 OFFCURVE",
"112 156 CURVE SMOOTH",
"38 156 OFFCURVE",
"-39 122 OFFCURVE",
"-39 49 CURVE SMOOTH",
"-39 -16 OFFCURVE",
"26 -52 OFFCURVE",
"96 -52 CURVE SMOOTH",
"189 -52 OFFCURVE",
"270 10 OFFCURVE",
"327 69 CURVE",
"475 7 OFFCURVE",
"649 -92 OFFCURVE",
"817 -92 CURVE SMOOTH"
);
},
{
closed = 1;
nodes = (
"49 -23 OFFCURVE",
"-5 0 OFFCURVE",
"-5 49 CURVE SMOOTH",
"-5 104 OFFCURVE",
"56 128 OFFCURVE",
"111 128 CURVE SMOOTH",
"173 128 OFFCURVE",
"244 103 OFFCURVE",
"300 81 CURVE",
"249 30 OFFCURVE",
"181 -23 OFFCURVE",
"99 -23 CURVE SMOOTH"
);
},
{
closed = 1;
nodes = (
"529 371 OFFCURVE",
"582 474 OFFCURVE",
"639 555 CURVE SMOOTH",
"670 598 OFFCURVE",
"739 685 OFFCURVE",
"806 685 CURVE SMOOTH",
"846 685 OFFCURVE",
"865 662 OFFCURVE",
"865 629 CURVE SMOOTH",
"865 565 OFFCURVE",
"795 448 OFFCURVE",
"744 401 CURVE SMOOTH",
"675 337 OFFCURVE",
"582 291 OFFCURVE",
"481 284 CURVE"
);
},
{
closed = 1;
nodes = (
"478 395 OFFCURVE",
"612 428 OFFCURVE",
"635 433 CURVE",
"655 438 OFFCURVE",
"657 451 OFFCURVE",
"655 456 CURVE SMOOTH",
"654 462 OFFCURVE",
"647 465 OFFCURVE",
"636 462 CURVE SMOOTH",
"601 454 OFFCURVE",
"511 434 OFFCURVE",
"441 418 CURVE SMOOTH",
"420 413 OFFCURVE",
"408 406 OFFCURVE",
"411 395 CURVE SMOOTH",
"413 385 OFFCURVE",
"421 382 OFFCURVE",
"441 387 CURVE SMOOTH"
);
}
);
width = 669;
}
);
unicode = 0141;
},
{
glyphname = M;
lastChange = "2022-02-07 22:20:45 +0000";
layers = (
{
background = {
paths = (
{
closed = 1;
nodes = (
"1098 578 OFFCURVE",
"1078 591 OFFCURVE",
"1052 591 CURVE SMOOTH",
"1015 591 OFFCURVE",
"981 569 OFFCURVE",
"957 547 CURVE SMOOTH",
"856 459 OFFCURVE",
"738 307 OFFCURVE",
"665 198 CURVE",
"660 200 LINE",
"678 254 OFFCURVE",
"696 308 OFFCURVE",
"714 363 CURVE SMOOTH",
"722 389 OFFCURVE",
"733 416 OFFCURVE",
"739 443 CURVE SMOOTH",
"742 457 OFFCURVE",
"745 470 OFFCURVE",
"745 484 CURVE SMOOTH",
"745 512 OFFCURVE",
"734 547 OFFCURVE",
"695 547 CURVE SMOOTH",
"618 547 OFFCURVE",
"484 383 OFFCURVE",
"445 333 CURVE",
"440 335 LINE",
"474 400 OFFCURVE",
"546 538 OFFCURVE",
"546 608 CURVE SMOOTH",
"546 663 OFFCURVE",
"501 682 OFFCURVE",
"445 682 CURVE SMOOTH",
"376 682 OFFCURVE",
"289 655 OFFCURVE",
"230 625 CURVE SMOOTH",
"151 585 OFFCURVE",
"56 509 OFFCURVE",
"9 440 CURVE SMOOTH",
"-14 406 OFFCURVE",
"-28 365 OFFCURVE",
"-28 326 CURVE SMOOTH",
"-28 269 OFFCURVE",
"6 228 OFFCURVE",
"76 228 CURVE SMOOTH",
"92 228 OFFCURVE",
"154 237 OFFCURVE",
"154 256 CURVE SMOOTH",
"154 264 OFFCURVE",
"146 272 OFFCURVE",
"137 272 CURVE SMOOTH",
"127 272 OFFCURVE",
"107 256 OFFCURVE",
"75 256 CURVE SMOOTH",
"26 256 OFFCURVE",
"2 284 OFFCURVE",
"2 324 CURVE SMOOTH",
"2 430 OFFCURVE",
"140 551 OFFCURVE",
"238 600 CURVE SMOOTH",
"292 627 OFFCURVE",
"379 659 OFFCURVE",
"442 659 CURVE SMOOTH",
"486 659 OFFCURVE",
"513 643 OFFCURVE",
"513 603 CURVE SMOOTH",
"513 517 OFFCURVE",
"382 294 OFFCURVE",
"338 212 CURVE SMOOTH",
"296 133 OFFCURVE",
"250 53 OFFCURVE",
"218 -30 CURVE",
"218 -31 OFFCURVE",
"218 -33 OFFCURVE",
"218 -34 CURVE SMOOTH",
"218 -43 OFFCURVE",
"230 -45 OFFCURVE",
"237 -45 CURVE SMOOTH",
"242 -45 OFFCURVE",
"247 -44 OFFCURVE",
"252 -42 CURVE",
"296 44 OFFCURVE",
"346 128 OFFCURVE",
"394 212 CURVE SMOOTH",
"444 297 OFFCURVE",
"513 375 OFFCURVE",
"586 446 CURVE SMOOTH",
"605 463 OFFCURVE",
"625 482 OFFCURVE",
"646 497 CURVE SMOOTH",
"658 505 OFFCURVE",
"674 515 OFFCURVE",
"690 515 CURVE SMOOTH",
"708 515 OFFCURVE",
"713 500 OFFCURVE",
"713 486 CURVE SMOOTH",
"713 474 OFFCURVE",
"710 462 OFFCURVE",
"706 450 CURVE SMOOTH",
"665 319 OFFCURVE",
"621 188 OFFCURVE",
"576 58 CURVE",
"576 56 OFFCURVE",
"575 55 OFFCURVE",
"575 53 CURVE SMOOTH",
"575 45 OFFCURVE",
"583 38 OFFCURVE",
"592 38 CURVE SMOOTH",
"600 38 OFFCURVE",
"605 42 OFFCURVE",
"608 48 CURVE",
"626 75 OFFCURVE",
"644 108 OFFCURVE",
"662 136 CURVE SMOOTH",
"703 199 OFFCURVE",
"747 260 OFFCURVE",
"793 320 CURVE SMOOTH",
"846 387 OFFCURVE",
"913 471 OFFCURVE",
"980 528 CURVE SMOOTH",
"995 541 OFFCURVE",
"1018 558 OFFCURVE",
"1041 558 CURVE SMOOTH",
"1051 558 OFFCURVE",
"1060 554 OFFCURVE",
"1060 545 CURVE SMOOTH",
"1060 539 OFFCURVE",
"1058 534 OFFCURVE",
"1055 530 CURVE SMOOTH",
"951 380 OFFCURVE",
"872 211 OFFCURVE",
"843 37 CURVE SMOOTH",
"839 14 OFFCURVE",
"836 -9 OFFCURVE",
"836 -31 CURVE SMOOTH",
"836 -69 OFFCURVE",
"845 -93 OFFCURVE",
"885 -109 CURVE SMOOTH",
"888 -110 OFFCURVE",
"890 -110 OFFCURVE",
"893 -110 CURVE SMOOTH",
"901 -110 OFFCURVE",
"906 -104 OFFCURVE",
"906 -97 CURVE SMOOTH",
"906 -74 OFFCURVE",
"869 -87 OFFCURVE",
"869 -26 CURVE SMOOTH",
"869 -7 OFFCURVE",
"872 13 OFFCURVE",
"876 32 CURVE SMOOTH",
"908 193 OFFCURVE",
"988 376 OFFCURVE",
"1083 515 CURVE SMOOTH",
"1091 527 OFFCURVE",
"1098 540 OFFCURVE",
"1098 554 CURVE SMOOTH"
);
}
);
};
layerId = "6A041D6C-A676-4DB4-A570-80A8F8AA896B";
paths = (
{
closed = 1;
nodes = (
"901 -100 OFFCURVE",
"906 -94 OFFCURVE",
"906 -87 CURVE SMOOTH",
"906 -64 OFFCURVE",
"869 -77 OFFCURVE",
"869 -16 CURVE SMOOTH",
"869 3 OFFCURVE",
"872 23 OFFCURVE",
"876 42 CURVE SMOOTH",
"908 203 OFFCURVE",
"988 386 OFFCURVE",
"1083 525 CURVE SMOOTH",
"1091 537 OFFCURVE",
"1098 550 OFFCURVE",
"1098 564 CURVE SMOOTH",
"1098 588 OFFCURVE",
"1078 601 OFFCURVE",
"1052 601 CURVE SMOOTH",
"1015 601 OFFCURVE",
"981 579 OFFCURVE",
"957 557 CURVE SMOOTH",
"856 469 OFFCURVE",
"738 317 OFFCURVE",
"665 208 CURVE",
"660 210 LINE",
"714 373 LINE SMOOTH",
"722 399 OFFCURVE",
"733 426 OFFCURVE",
"739 453 CURVE SMOOTH",
"742 467 OFFCURVE",
"745 480 OFFCURVE",
"745 494 CURVE SMOOTH",
"745 522 OFFCURVE",
"734 557 OFFCURVE",
"695 557 CURVE SMOOTH",
"618 557 OFFCURVE",
"484 393 OFFCURVE",
"445 343 CURVE",
"440 345 LINE",
"474 410 OFFCURVE",
"546 548 OFFCURVE",
"546 618 CURVE SMOOTH",
"546 673 OFFCURVE",
"501 692 OFFCURVE",
"445 692 CURVE SMOOTH",
"376 692 OFFCURVE",
"289 665 OFFCURVE",
"230 635 CURVE SMOOTH",
"151 595 OFFCURVE",
"56 519 OFFCURVE",
"9 450 CURVE SMOOTH",
"-14 416 OFFCURVE",
"-28 375 OFFCURVE",
"-28 336 CURVE SMOOTH",
"-28 279 OFFCURVE",
"6 238 OFFCURVE",
"76 238 CURVE SMOOTH",
"92 238 OFFCURVE",
"154 247 OFFCURVE",
"154 266 CURVE SMOOTH",
"154 274 OFFCURVE",
"146 282 OFFCURVE",
"137 282 CURVE SMOOTH",
"127 282 OFFCURVE",
"107 266 OFFCURVE",
"75 266 CURVE SMOOTH",
"26 266 OFFCURVE",
"2 294 OFFCURVE",
"2 334 CURVE SMOOTH",
"2 440 OFFCURVE",
"140 561 OFFCURVE",
"238 610 CURVE SMOOTH",
"292 637 OFFCURVE",
"379 669 OFFCURVE",
"442 669 CURVE SMOOTH",
"486 669 OFFCURVE",
"513 653 OFFCURVE",
"513 613 CURVE SMOOTH",
"513 527 OFFCURVE",
"382 304 OFFCURVE",
"338 222 CURVE SMOOTH",
"296 143 OFFCURVE",
"250 63 OFFCURVE",
"218 -20 CURVE",
"218 -24 LINE SMOOTH",
"218 -33 OFFCURVE",
"230 -35 OFFCURVE",
"237 -35 CURVE SMOOTH",
"242 -35 OFFCURVE",
"247 -34 OFFCURVE",
"252 -32 CURVE",
"296 54 OFFCURVE",
"346 138 OFFCURVE",
"394 222 CURVE SMOOTH",
"444 307 OFFCURVE",
"513 385 OFFCURVE",
"586 456 CURVE SMOOTH",
"605 473 OFFCURVE",
"625 492 OFFCURVE",
"646 507 CURVE SMOOTH",
"658 515 OFFCURVE",
"674 525 OFFCURVE",
"690 525 CURVE SMOOTH",
"708 525 OFFCURVE",
"713 510 OFFCURVE",
"713 496 CURVE SMOOTH",
"713 484 OFFCURVE",
"710 472 OFFCURVE",
"706 460 CURVE SMOOTH",
"665 329 OFFCURVE",
"621 198 OFFCURVE",
"576 68 CURVE",
"576 66 OFFCURVE",
"575 65 OFFCURVE",
"575 63 CURVE SMOOTH",
"575 55 OFFCURVE",
"583 48 OFFCURVE",
"592 48 CURVE SMOOTH",
"600 48 OFFCURVE",
"605 52 OFFCURVE",
"608 58 CURVE",
"626 85 OFFCURVE",
"644 118 OFFCURVE",
"662 146 CURVE SMOOTH",
"703 209 OFFCURVE",
"747 270 OFFCURVE",
"793 330 CURVE SMOOTH",
"846 397 OFFCURVE",
"913 481 OFFCURVE",
"980 538 CURVE SMOOTH",
"995 551 OFFCURVE",
"1018 568 OFFCURVE",
"1041 568 CURVE SMOOTH",
"1051 568 OFFCURVE",
"1060 564 OFFCURVE",
"1060 555 CURVE SMOOTH",
"1060 549 OFFCURVE",
"1058 544 OFFCURVE",
"1055 540 CURVE SMOOTH",
"951 390 OFFCURVE",
"872 221 OFFCURVE",
"843 47 CURVE SMOOTH",
"839 24 OFFCURVE",
"836 1 OFFCURVE",
"836 -21 CURVE SMOOTH",
"836 -59 OFFCURVE",
"845 -83 OFFCURVE",
"885 -99 CURVE SMOOTH",
"888 -100 OFFCURVE",
"890 -100 OFFCURVE",
"893 -100 CURVE SMOOTH"
);
}
);
width = 966;
}
);
note = M;
unicode = 004D;
},
{
color = 3;
glyphname = N;
lastChange = "2022-03-02 12:17:35 +0000";
layers = (
{
anchors = (
{
name = bottom;
position = "{524, 0}";
},
{
name = top;
position = "{911, 650}";
}
);
background = {
paths = (
{
closed = 1;
nodes = (
"1001 623 OFFCURVE",
"972 654 OFFCURVE",
"908 654 CURVE SMOOTH",
"766 654 OFFCURVE",
"570 432 OFFCURVE",
"494 339 CURVE",
"490 341 LINE",
"522 417 OFFCURVE",
"582 571 OFFCURVE",
"582 649 CURVE SMOOTH",
"582 708 OFFCURVE",
"543 737 OFFCURVE",
"476 737 CURVE SMOOTH",
"409 737 OFFCURVE",
"313 706 OFFCURVE",
"255 674 CURVE SMOOTH",
"181 633 OFFCURVE",
"79 557 OFFCURVE",
"34 490 CURVE SMOOTH",
"11 455 OFFCURVE",
"-5 412 OFFCURVE",
"-5 372 CURVE SMOOTH",
"-5 314 OFFCURVE",
"34 276 OFFCURVE",
"102 276 CURVE SMOOTH",
"124 276 OFFCURVE",
"185 289 OFFCURVE",
"185 314 CURVE SMOOTH",
"185 321 OFFCURVE",
"179 325 OFFCURVE",
"172 325 CURVE SMOOTH",
"155 325 OFFCURVE",
"137 305 OFFCURVE",
"101 305 CURVE SMOOTH",
"50 305 OFFCURVE",
"30 331 OFFCURVE",
"30 372 CURVE SMOOTH",
"30 406 OFFCURVE",
"43 445 OFFCURVE",
"62 474 CURVE SMOOTH",
"105 540 OFFCURVE",
"196 611 OFFCURVE",
"270 650 CURVE SMOOTH",
"321 677 OFFCURVE",
"409 705 OFFCURVE",
"468 705 CURVE SMOOTH",
"515 705 OFFCURVE",
"547 688 OFFCURVE",
"547 644 CURVE SMOOTH",
"547 636 OFFCURVE",
"546 629 OFFCURVE",
"545 622 CURVE SMOOTH",
"517 477 OFFCURVE",
"456 339 OFFCURVE",
"387 205 CURVE SMOOTH",
"349 131 OFFCURVE",
"305 58 OFFCURVE",
"271 -17 CURVE",
"271 -19 OFFCURVE",
"270 -20 OFFCURVE",
"270 -22 CURVE SMOOTH",
"270 -30 OFFCURVE",
"278 -37 OFFCURVE",
"286 -37 CURVE SMOOTH",
"290 -37 OFFCURVE",
"300 -31 OFFCURVE",
"302 -28 CURVE SMOOTH",
"315 -8 OFFCURVE",
"327 12 OFFCURVE",
"338 33 CURVE SMOOTH",
"365 78 OFFCURVE",
"391 125 OFFCURVE",
"417 171 CURVE SMOOTH",
"435 201 OFFCURVE",
"452 232 OFFCURVE",
"473 261 CURVE SMOOTH",
"551 368 OFFCURVE",
"751 624 OFFCURVE",
"904 626 CURVE SMOOTH",
"906 626 LINE SMOOTH",
"950 627 OFFCURVE",
"962 595 OFFCURVE",
"962 563 CURVE SMOOTH",
"962 488 OFFCURVE",
"901 374 OFFCURVE",
"864 308 CURVE SMOOTH",
"812 218 OFFCURVE",
"762 128 OFFCURVE",
"731 30 CURVE SMOOTH",
"725 9 OFFCURVE",
"720 -13 OFFCURVE",
"720 -35 CURVE SMOOTH",
"720 -54 OFFCURVE",
"728 -99 OFFCURVE",
"758 -99 CURVE SMOOTH",
"767 -99 OFFCURVE",
"775 -92 OFFCURVE",
"775 -84 CURVE SMOOTH",
"775 -66 OFFCURVE",
"751 -79 OFFCURVE",
"751 -43 CURVE SMOOTH",
"751 -21 OFFCURVE",
"758 1 OFFCURVE",
"765 22 CURVE SMOOTH",
"795 118 OFFCURVE",
"844 206 OFFCURVE",
"895 294 CURVE SMOOTH",
"936 366 OFFCURVE",
"1001 487 OFFCURVE",
"1001 569 CURVE SMOOTH"
);
}
);
};
layerId = "6A041D6C-A676-4DB4-A570-80A8F8AA896B";
paths = (
{
closed = 1;
nodes = (
"767 -89 OFFCURVE",
"775 -82 OFFCURVE",
"775 -74 CURVE SMOOTH",
"775 -56 OFFCURVE",
"751 -69 OFFCURVE",
"751 -33 CURVE SMOOTH",
"751 -11 OFFCURVE",
"758 11 OFFCURVE",
"765 32 CURVE SMOOTH",
"795 128 OFFCURVE",
"844 216 OFFCURVE",
"895 304 CURVE SMOOTH",
"936 376 OFFCURVE",
"1001 497 OFFCURVE",
"1001 579 CURVE SMOOTH",
"1001 633 OFFCURVE",
"972 664 OFFCURVE",
"908 664 CURVE SMOOTH",
"766 664 OFFCURVE",
"570 442 OFFCURVE",
"494 349 CURVE",
"490 351 LINE",
"522 427 OFFCURVE",
"582 581 OFFCURVE",
"582 659 CURVE SMOOTH",
"582 718 OFFCURVE",
"543 747 OFFCURVE",
"476 747 CURVE SMOOTH",
"409 747 OFFCURVE",
"313 716 OFFCURVE",
"255 684 CURVE SMOOTH",
"181 643 OFFCURVE",
"79 567 OFFCURVE",
"34 500 CURVE SMOOTH",
"11 465 OFFCURVE",
"-5 422 OFFCURVE",
"-5 382 CURVE SMOOTH",
"-5 324 OFFCURVE",
"34 286 OFFCURVE",
"102 286 CURVE SMOOTH",
"124 286 OFFCURVE",
"185 299 OFFCURVE",
"185 324 CURVE SMOOTH",
"185 331 OFFCURVE",
"179 335 OFFCURVE",
"172 335 CURVE SMOOTH",
"155 335 OFFCURVE",
"137 315 OFFCURVE",
"101 315 CURVE SMOOTH",
"50 315 OFFCURVE",
"30 341 OFFCURVE",
"30 382 CURVE SMOOTH",
"30 416 OFFCURVE",
"43 455 OFFCURVE",
"62 484 CURVE SMOOTH",
"105 550 OFFCURVE",
"196 621 OFFCURVE",
"270 660 CURVE SMOOTH",
"321 687 OFFCURVE",
"409 715 OFFCURVE",
"468 715 CURVE SMOOTH",
"515 715 OFFCURVE",
"547 698 OFFCURVE",
"547 654 CURVE SMOOTH",
"547 646 OFFCURVE",
"546 639 OFFCURVE",
"545 632 CURVE SMOOTH",
"517 487 OFFCURVE",
"456 349 OFFCURVE",
"387 215 CURVE SMOOTH",
"349 141 OFFCURVE",
"305 68 OFFCURVE",
"271 -7 CURVE",
"271 -9 OFFCURVE",
"270 -10 OFFCURVE",
"270 -12 CURVE SMOOTH",
"270 -20 OFFCURVE",
"278 -27 OFFCURVE",
"286 -27 CURVE SMOOTH",
"290 -27 OFFCURVE",
"300 -21 OFFCURVE",
"302 -18 CURVE SMOOTH",
"315 2 OFFCURVE",
"327 22 OFFCURVE",
"338 43 CURVE SMOOTH",
"365 88 OFFCURVE",
"391 135 OFFCURVE",
"417 181 CURVE SMOOTH",
"435 211 OFFCURVE",
"452 242 OFFCURVE",
"473 271 CURVE SMOOTH",
"551 378 OFFCURVE",
"751 636 OFFCURVE",
"904 636 CURVE SMOOTH",
"906 636 LINE SMOOTH",
"950 636 OFFCURVE",
"962 605 OFFCURVE",
"962 573 CURVE SMOOTH",
"962 498 OFFCURVE",
"901 384 OFFCURVE",
"864 318 CURVE SMOOTH",
"812 228 OFFCURVE",
"762 138 OFFCURVE",
"731 40 CURVE SMOOTH",
"725 19 OFFCURVE",
"720 -3 OFFCURVE",
"720 -25 CURVE SMOOTH",
"720 -44 OFFCURVE",
"728 -89 OFFCURVE",
"758 -89 CURVE SMOOTH"
);
}
);
width = 881;
}
);
note = N;
unicode = 004E;
},
{
glyphname = Eng;
lastChange = "2022-02-07 22:20:45 +0000";
layers = (
{
background = {
hints = (
{
horizontal = 1;
place = "{-113, 29}";
type = Stem;
},
{
horizontal = 1;
place = "{184, 29}";
type = Stem;
},
{
horizontal = 1;
place = "{650, -20}";
target = down;
type = TopGhost;
},
{
horizontal = 1;
place = "{-394.157, 35.028}";
type = Stem;
},
{
horizontal = 1;
place = "{9.265, 36.236}";
type = Stem;
},
{
place = "{314.85, 44.69}";
type = Stem;
},
{
place = "{614.68, 41.067}";
type = Stem;
}
);
paths = (
{
closed = 1;
nodes = (
"766 654 OFFCURVE",
"570 432 OFFCURVE",
"494 339 CURVE",
"490 341 LINE",
"522 417 OFFCURVE",
"582 571 OFFCURVE",
"582 649 CURVE SMOOTH",
"582 708 OFFCURVE",
"543 737 OFFCURVE",
"476 737 CURVE SMOOTH",
"409 737 OFFCURVE",
"313 706 OFFCURVE",
"255 674 CURVE SMOOTH",
"181 633 OFFCURVE",
"79 557 OFFCURVE",
"34 490 CURVE SMOOTH",
"11 455 OFFCURVE",
"-5 412 OFFCURVE",
"-5 372 CURVE SMOOTH",
"-5 314 OFFCURVE",
"34 276 OFFCURVE",
"102 276 CURVE SMOOTH",
"124 276 OFFCURVE",
"185 289 OFFCURVE",
"185 314 CURVE SMOOTH",
"185 321 OFFCURVE",
"179 325 OFFCURVE",
"172 325 CURVE SMOOTH",
"155 325 OFFCURVE",
"137 305 OFFCURVE",
"101 305 CURVE SMOOTH",
"50 305 OFFCURVE",
"30 331 OFFCURVE",
"30 372 CURVE SMOOTH",
"30 406 OFFCURVE",
"43 445 OFFCURVE",
"62 474 CURVE SMOOTH",
"105 540 OFFCURVE",
"196 611 OFFCURVE",
"270 650 CURVE SMOOTH",
"321 677 OFFCURVE",
"409 705 OFFCURVE",
"468 705 CURVE SMOOTH",
"515 705 OFFCURVE",
"547 688 OFFCURVE",
"547 644 CURVE SMOOTH",
"547 636 OFFCURVE",
"546 629 OFFCURVE",
"545 622 CURVE SMOOTH",
"517 477 OFFCURVE",
"456 339 OFFCURVE",
"387 205 CURVE SMOOTH",
"349 131 OFFCURVE",
"305 58 OFFCURVE",
"271 -17 CURVE",
"271 -19 OFFCURVE",
"270 -20 OFFCURVE",
"270 -22 CURVE SMOOTH",
"270 -30 OFFCURVE",
"278 -37 OFFCURVE",
"286 -37 CURVE SMOOTH",
"290 -37 OFFCURVE",
"300 -31 OFFCURVE",
"302 -28 CURVE SMOOTH",
"315 -8 OFFCURVE",
"327 12 OFFCURVE",
"338 33 CURVE SMOOTH",
"365 78 OFFCURVE",
"391 125 OFFCURVE",
"417 171 CURVE SMOOTH",
"435 201 OFFCURVE",
"452 232 OFFCURVE",
"473 261 CURVE SMOOTH",
"551 368 OFFCURVE",
"751 626 OFFCURVE",
"904 626 CURVE SMOOTH",
"906 626 LINE SMOOTH",
"950 626 OFFCURVE",
"962 595 OFFCURVE",
"962 563 CURVE SMOOTH",
"962 333 OFFCURVE",
"529 -345 OFFCURVE",
"349 -345 CURVE SMOOTH",
"304 -345 OFFCURVE",
"281 -321 OFFCURVE",
"281 -271 CURVE SMOOTH",
"281 -248 OFFCURVE",
"290 -223 OFFCURVE",
"302 -202 CURVE SMOOTH",
"329 -158 OFFCURVE",
"303 -127 OFFCURVE",
"267 -185 CURVE SMOOTH",
"247 -218 OFFCURVE",
"237 -248 OFFCURVE",
"237 -278 CURVE SMOOTH",
"237 -329 OFFCURVE",
"273 -381 OFFCURVE",
"346 -381 CURVE SMOOTH",
"553 -381 OFFCURVE",
"1001 317 OFFCURVE",
"1001 569 CURVE SMOOTH",
"1001 623 OFFCURVE",
"972 654 OFFCURVE",
"908 654 CURVE SMOOTH"
);
}
);
};
layerId = "6A041D6C-A676-4DB4-A570-80A8F8AA896B";
paths = (
{
closed = 1;
nodes = (
"553 -371 OFFCURVE",
"1001 327 OFFCURVE",
"1001 579 CURVE SMOOTH",
"1001 633 OFFCURVE",
"972 664 OFFCURVE",
"908 664 CURVE SMOOTH",
"766 664 OFFCURVE",
"570 442 OFFCURVE",
"494 349 CURVE",
"490 351 LINE",
"522 427 OFFCURVE",
"582 581 OFFCURVE",
"582 659 CURVE SMOOTH",
"582 718 OFFCURVE",
"543 747 OFFCURVE",
"476 747 CURVE SMOOTH",
"409 747 OFFCURVE",
"313 716 OFFCURVE",
"255 684 CURVE SMOOTH",
"181 643 OFFCURVE",
"79 567 OFFCURVE",
"34 500 CURVE SMOOTH",
"11 465 OFFCURVE",
"-5 422 OFFCURVE",
"-5 382 CURVE SMOOTH",
"-5 324 OFFCURVE",
"34 286 OFFCURVE",
"102 286 CURVE SMOOTH",
"124 286 OFFCURVE",
"185 299 OFFCURVE",
"185 324 CURVE SMOOTH",
"185 331 OFFCURVE",
"179 335 OFFCURVE",
"172 335 CURVE SMOOTH",
"155 335 OFFCURVE",
"137 315 OFFCURVE",
"101 315 CURVE SMOOTH",
"50 315 OFFCURVE",
"30 341 OFFCURVE",
"30 382 CURVE SMOOTH",
"30 416 OFFCURVE",
"43 455 OFFCURVE",
"62 484 CURVE SMOOTH",
"105 550 OFFCURVE",
"196 621 OFFCURVE",
"270 660 CURVE SMOOTH",
"321 687 OFFCURVE",
"409 715 OFFCURVE",
"468 715 CURVE SMOOTH",
"515 715 OFFCURVE",
"547 698 OFFCURVE",
"547 654 CURVE SMOOTH",
"547 646 OFFCURVE",
"546 639 OFFCURVE",
"545 632 CURVE SMOOTH",
"517 487 OFFCURVE",
"456 349 OFFCURVE",
"387 215 CURVE SMOOTH",
"349 141 OFFCURVE",
"305 68 OFFCURVE",
"271 -7 CURVE",
"271 -9 OFFCURVE",
"270 -10 OFFCURVE",
"270 -12 CURVE SMOOTH",
"270 -20 OFFCURVE",
"278 -27 OFFCURVE",
"286 -27 CURVE SMOOTH",
"290 -27 OFFCURVE",
"300 -21 OFFCURVE",
"302 -18 CURVE SMOOTH",
"315 2 OFFCURVE",
"327 22 OFFCURVE",
"338 43 CURVE SMOOTH",
"365 88 OFFCURVE",
"391 135 OFFCURVE",
"417 181 CURVE SMOOTH",
"435 211 OFFCURVE",
"452 242 OFFCURVE",
"473 271 CURVE SMOOTH",
"551 378 OFFCURVE",
"751 636 OFFCURVE",
"904 636 CURVE SMOOTH",
"906 636 LINE SMOOTH",
"950 636 OFFCURVE",
"962 605 OFFCURVE",
"962 573 CURVE SMOOTH",
"962 343 OFFCURVE",
"529 -335 OFFCURVE",
"349 -335 CURVE SMOOTH",
"304 -335 OFFCURVE",
"281 -311 OFFCURVE",
"281 -261 CURVE SMOOTH",
"281 -238 OFFCURVE",
"290 -213 OFFCURVE",
"302 -192 CURVE SMOOTH",
"310 -179 OFFCURVE",
"313 -168 OFFCURVE",
"313 -159 CURVE SMOOTH",
"313 -149 OFFCURVE",
"309 -143 OFFCURVE",
"302 -143 CURVE SMOOTH",
"294 -143 OFFCURVE",
"281 -152 OFFCURVE",
"267 -175 CURVE SMOOTH",
"247 -208 OFFCURVE",
"237 -238 OFFCURVE",
"237 -268 CURVE SMOOTH",
"237 -319 OFFCURVE",
"273 -371 OFFCURVE",
"346 -371 CURVE SMOOTH"
);
}
);
width = 1082;
}
);
unicode = 014A;
},
{
color = 3;
glyphname = O;
lastChange = "2022-03-02 12:27:41 +0000";
layers = (
{
anchors = (
{
name = bottom;
position = "{345, -60}";
},
{
name = center;
position = "{408, 320}";
},
{
name = horn;
position = "{800, 582}";
},
{
name = ogonek;
position = "{344, -64}";
},
{
name = top;
position = "{579, 671}";
},
{
name = topleft;
position = "{20, 640}";
}
);
background = {
paths = (
{
closed = 1;
nodes = (
"871 507 OFFCURVE",
"800 605 OFFCURVE",
"669 643 CURVE",
"670 647 LINE",
"675 647 OFFCURVE",
"680 648 OFFCURVE",
"684 648 CURVE SMOOTH",
"711 648 OFFCURVE",
"752 649 OFFCURVE",
"766 626 CURVE SMOOTH",
"770 619 OFFCURVE",
"772 615 OFFCURVE",
"782 615 CURVE SMOOTH",
"791 615 OFFCURVE",
"799 620 OFFCURVE",
"799 628 CURVE SMOOTH",
"799 664 OFFCURVE",
"717 676 OFFCURVE",
"688 676 CURVE SMOOTH",
"648 676 OFFCURVE",
"607 670 OFFCURVE",
"569 661 CURVE",
"549 663 OFFCURVE",
"529 663 OFFCURVE",
"509 663 CURVE SMOOTH",
"386 663 OFFCURVE",
"227 634 OFFCURVE",
"124 572 CURVE SMOOTH",
"66 537 OFFCURVE",
"37 491 OFFCURVE",
"37 429 CURVE SMOOTH",
"37 421 OFFCURVE",
"44 415 OFFCURVE",
"53 415 CURVE SMOOTH",
"63 415 OFFCURVE",
"70 421 OFFCURVE",
"70 429 CURVE SMOOTH",
"70 482 OFFCURVE",
"94 520 OFFCURVE",
"144 550 CURVE SMOOTH",
"230 603 OFFCURVE",
"366 631 OFFCURVE",
"470 635 CURVE",
"471 631 LINE",
"312 570 OFFCURVE",
"194 457 OFFCURVE",
"126 319 CURVE SMOOTH",
"100 266 OFFCURVE",
"84 208 OFFCURVE",
"84 150 CURVE SMOOTH",
"84 53 OFFCURVE",
"138 -61 OFFCURVE",
"262 -76 CURVE SMOOTH",
"283 -78 OFFCURVE",
"304 -80 OFFCURVE",
"325 -80 CURVE SMOOTH",
"602 -80 OFFCURVE",
"871 147 OFFCURVE",
"871 389 CURVE SMOOTH"
);
},
{
closed = 1;
nodes = (
"840 163 OFFCURVE",
"582 -51 OFFCURVE",
"324 -51 CURVE SMOOTH",
"305 -51 OFFCURVE",
"285 -51 OFFCURVE",
"266 -48 CURVE SMOOTH",
"158 -34 OFFCURVE",
"117 64 OFFCURVE",
"117 147 CURVE SMOOTH",
"117 203 OFFCURVE",
"133 257 OFFCURVE",
"158 308 CURVE SMOOTH",
"234 467 OFFCURVE",
"380 589 OFFCURVE",
"574 632 CURVE",
"731 618 OFFCURVE",
"840 531 OFFCURVE",
"840 389 CURVE SMOOTH"
);
}
);
};
layerId = "6A041D6C-A676-4DB4-A570-80A8F8AA896B";
paths = (
{
closed = 1;
nodes = (
"602 -70 OFFCURVE",
"871 157 OFFCURVE",
"871 399 CURVE SMOOTH",
"871 517 OFFCURVE",
"800 615 OFFCURVE",
"669 653 CURVE",
"670 657 LINE",
"675 657 OFFCURVE",
"680 658 OFFCURVE",
"684 658 CURVE SMOOTH",
"711 658 OFFCURVE",
"752 659 OFFCURVE",
"766 636 CURVE SMOOTH",
"770 629 OFFCURVE",
"772 625 OFFCURVE",
"782 625 CURVE SMOOTH",
"791 625 OFFCURVE",
"799 630 OFFCURVE",
"799 638 CURVE SMOOTH",
"799 674 OFFCURVE",
"717 686 OFFCURVE",
"688 686 CURVE SMOOTH",
"648 686 OFFCURVE",
"607 680 OFFCURVE",
"569 671 CURVE",
"549 673 OFFCURVE",
"529 673 OFFCURVE",
"509 673 CURVE SMOOTH",
"386 673 OFFCURVE",
"227 644 OFFCURVE",
"124 582 CURVE SMOOTH",
"66 547 OFFCURVE",
"37 501 OFFCURVE",
"37 439 CURVE SMOOTH",
"37 431 OFFCURVE",
"44 425 OFFCURVE",
"53 425 CURVE SMOOTH",
"63 425 OFFCURVE",
"70 431 OFFCURVE",
"70 439 CURVE SMOOTH",
"70 492 OFFCURVE",
"94 530 OFFCURVE",
"144 560 CURVE SMOOTH",
"230 613 OFFCURVE",
"366 641 OFFCURVE",
"470 645 CURVE",
"471 641 LINE",
"312 580 OFFCURVE",
"194 467 OFFCURVE",
"126 329 CURVE SMOOTH",
"100 276 OFFCURVE",
"84 218 OFFCURVE",
"84 160 CURVE SMOOTH",
"84 63 OFFCURVE",
"138 -51 OFFCURVE",
"262 -66 CURVE SMOOTH",
"283 -68 OFFCURVE",
"304 -70 OFFCURVE",
"325 -70 CURVE SMOOTH"
);
},
{
closed = 1;
nodes = (
"305 -41 OFFCURVE",
"285 -41 OFFCURVE",
"266 -38 CURVE SMOOTH",
"158 -24 OFFCURVE",
"117 74 OFFCURVE",
"117 157 CURVE SMOOTH",
"117 213 OFFCURVE",
"133 267 OFFCURVE",
"158 318 CURVE SMOOTH",
"234 477 OFFCURVE",
"380 599 OFFCURVE",
"574 642 CURVE",
"731 628 OFFCURVE",
"840 541 OFFCURVE",
"840 399 CURVE SMOOTH",
"840 173 OFFCURVE",
"582 -41 OFFCURVE",
"324 -41 CURVE SMOOTH"
);
}
);
width = 816;
}
);
note = O;
unicode = 004F;
},
{
color = 3;
glyphname = Oslash;
lastChange = "2022-03-02 12:28:05 +0000";
layers = (
{
anchors = (
{
name = top;
position = "{579, 671}";
}
);
background = {
paths = (
{
closed = 1;
nodes = (
"844 671 OFFCURVE",
"828 670 OFFCURVE",
"815 657 CURVE SMOOTH",
"800 642 OFFCURVE",
"780 623 OFFCURVE",
"759 601 CURVE",
"733 619 OFFCURVE",
"703 633 OFFCURVE",
"669 643 CURVE",
"670 647 LINE",
"702 661 OFFCURVE",
"625 665 OFFCURVE",
"569 661 CURVE",
"549 663 OFFCURVE",
"529 663 OFFCURVE",
"509 663 CURVE SMOOTH",
"386 663 OFFCURVE",
"227 634 OFFCURVE",
"124 572 CURVE SMOOTH",
"66 537 OFFCURVE",
"37 491 OFFCURVE",
"37 429 CURVE SMOOTH",
"37 421 OFFCURVE",
"44 415 OFFCURVE",
"53 415 CURVE SMOOTH",
"63 415 OFFCURVE",
"70 421 OFFCURVE",
"70 429 CURVE SMOOTH",
"70 482 OFFCURVE",
"94 520 OFFCURVE",
"144 550 CURVE SMOOTH",
"230 603 OFFCURVE",
"366 631 OFFCURVE",
"470 635 CURVE",
"471 631 LINE",
"312 570 OFFCURVE",
"194 457 OFFCURVE",
"126 319 CURVE SMOOTH",
"100 266 OFFCURVE",
"84 208 OFFCURVE",
"84 150 CURVE SMOOTH",
"84 92 OFFCURVE",
"103 29 OFFCURVE",
"144 -16 CURVE",
"128 -31 OFFCURVE",
"113 -47 OFFCURVE",
"99 -63 CURVE SMOOTH",
"97 -66 OFFCURVE",
"95 -70 OFFCURVE",
"95 -74 CURVE SMOOTH",
"95 -82 OFFCURVE",
"103 -90 OFFCURVE",
"111 -90 CURVE SMOOTH",
"116 -90 OFFCURVE",
"120 -88 OFFCURVE",
"123 -85 CURVE",
"122 -85 LINE",
"168 -38 LINE",
"193 -58 OFFCURVE",
"224 -71 OFFCURVE",
"262 -76 CURVE SMOOTH",
"283 -78 OFFCURVE",
"304 -80 OFFCURVE",
"325 -80 CURVE SMOOTH",
"602 -80 OFFCURVE",
"871 147 OFFCURVE",
"871 389 CURVE SMOOTH",
"871 465 OFFCURVE",
"841 532 OFFCURVE",
"786 581 CURVE",
"839 636 LINE SMOOTH",
"842 639 OFFCURVE",
"844 642 OFFCURVE",
"844 646 CURVE SMOOTH"
);
},
{
closed = 1;
nodes = (
"840 163 OFFCURVE",
"582 -51 OFFCURVE",
"324 -51 CURVE SMOOTH",
"305 -51 OFFCURVE",
"285 -51 OFFCURVE",
"266 -48 CURVE SMOOTH",
"235 -44 OFFCURVE",
"209 -33 OFFCURVE",
"188 -17 CURVE",
"331 126 OFFCURVE",
"475 268 OFFCURVE",
"618 412 CURVE SMOOTH",
"657 451 OFFCURVE",
"714 507 OFFCURVE",
"765 559 CURVE",
"812 518 OFFCURVE",
"840 460 OFFCURVE",
"840 389 CURVE SMOOTH"
);
},
{
closed = 1;
nodes = (
"117 203 OFFCURVE",
"133 257 OFFCURVE",
"158 308 CURVE SMOOTH",
"234 467 OFFCURVE",
"380 589 OFFCURVE",
"574 632 CURVE",
"638 626 OFFCURVE",
"694 608 OFFCURVE",
"738 579 CURVE",
"646 485 LINE SMOOTH",
"556 394 OFFCURVE",
"466 304 OFFCURVE",
"375 214 CURVE SMOOTH",
"190 29 LINE SMOOTH",
"182 21 OFFCURVE",
"174 12 OFFCURVE",
"165 4 CURVE",
"131 43 OFFCURVE",
"117 98 OFFCURVE",
"117 147 CURVE SMOOTH"
);
}
);
};
layerId = "6A041D6C-A676-4DB4-A570-80A8F8AA896B";
paths = (
{
closed = 1;
nodes = (
"116 -80 OFFCURVE",
"120 -78 OFFCURVE",
"123 -75 CURVE",
"122 -75 LINE",
"168 -28 LINE",
"193 -48 OFFCURVE",
"224 -61 OFFCURVE",
"262 -66 CURVE SMOOTH",
"283 -68 OFFCURVE",
"304 -70 OFFCURVE",
"325 -70 CURVE SMOOTH",
"602 -70 OFFCURVE",
"871 157 OFFCURVE",
"871 399 CURVE SMOOTH",
"871 475 OFFCURVE",
"841 542 OFFCURVE",
"786 591 CURVE",
"839 646 LINE SMOOTH",
"842 649 OFFCURVE",
"844 652 OFFCURVE",
"844 656 CURVE SMOOTH",
"844 670 OFFCURVE",
"839 676 OFFCURVE",
"832 676 CURVE SMOOTH",
"827 676 OFFCURVE",
"821 673 OFFCURVE",
"815 667 CURVE SMOOTH",
"800 652 OFFCURVE",
"780 633 OFFCURVE",
"759 611 CURVE",
"733 629 OFFCURVE",
"703 643 OFFCURVE",
"669 653 CURVE",
"670 657 LINE",
"675 659 OFFCURVE",
"677 661 OFFCURVE",
"677 663 CURVE SMOOTH",
"677 670 OFFCURVE",
"647 672 OFFCURVE",
"612 672 CURVE SMOOTH",
"597 672 OFFCURVE",
"583 672 OFFCURVE",
"569 671 CURVE",
"549 673 OFFCURVE",
"529 673 OFFCURVE",
"509 673 CURVE SMOOTH",
"386 673 OFFCURVE",
"227 644 OFFCURVE",
"124 582 CURVE SMOOTH",
"66 547 OFFCURVE",
"37 501 OFFCURVE",
"37 439 CURVE SMOOTH",
"37 431 OFFCURVE",
"44 425 OFFCURVE",
"53 425 CURVE SMOOTH",
"63 425 OFFCURVE",
"70 431 OFFCURVE",
"70 439 CURVE SMOOTH",
"70 492 OFFCURVE",
"94 530 OFFCURVE",
"144 560 CURVE SMOOTH",
"230 613 OFFCURVE",
"366 641 OFFCURVE",
"470 645 CURVE",
"471 641 LINE",
"312 580 OFFCURVE",
"194 467 OFFCURVE",
"126 329 CURVE SMOOTH",
"100 276 OFFCURVE",
"84 218 OFFCURVE",
"84 160 CURVE SMOOTH",
"84 102 OFFCURVE",
"103 39 OFFCURVE",
"144 -6 CURVE",
"128 -21 OFFCURVE",
"113 -37 OFFCURVE",
"99 -53 CURVE SMOOTH",
"97 -56 OFFCURVE",
"95 -60 OFFCURVE",
"95 -64 CURVE SMOOTH",
"95 -72 OFFCURVE",
"103 -80 OFFCURVE",
"111 -80 CURVE SMOOTH"
);
},
{
closed = 1;
nodes = (
"131 53 OFFCURVE",
"117 108 OFFCURVE",
"117 157 CURVE SMOOTH",
"117 213 OFFCURVE",
"133 267 OFFCURVE",
"158 318 CURVE SMOOTH",
"234 477 OFFCURVE",
"380 599 OFFCURVE",
"574 642 CURVE",
"638 636 OFFCURVE",
"694 618 OFFCURVE",
"738 589 CURVE",
"646 495 LINE SMOOTH",
"556 404 OFFCURVE",
"466 314 OFFCURVE",
"375 224 CURVE SMOOTH",
"190 39 LINE SMOOTH",
"182 31 OFFCURVE",
"174 22 OFFCURVE",
"165 14 CURVE"
);
},
{
closed = 1;
nodes = (
"305 -41 OFFCURVE",
"285 -41 OFFCURVE",
"266 -38 CURVE SMOOTH",
"235 -34 OFFCURVE",
"209 -23 OFFCURVE",
"188 -7 CURVE",
"331 136 OFFCURVE",
"475 278 OFFCURVE",
"618 422 CURVE SMOOTH",
"657 461 OFFCURVE",
"714 517 OFFCURVE",
"765 569 CURVE",
"812 528 OFFCURVE",
"840 470 OFFCURVE",
"840 399 CURVE SMOOTH",
"840 173 OFFCURVE",
"582 -41 OFFCURVE",
"324 -41 CURVE SMOOTH"
);
}
);
width = 816;
}
);
note = Oslash;
unicode = 00D8;
},
{
glyphname = OE;
lastChange = "2022-02-07 22:20:45 +0000";
layers = (
{
background = {
paths = (
{
closed = 1;
nodes = (
"1245 511 OFFCURVE",
"1241 515 OFFCURVE",
"1235 515 CURVE SMOOTH",
"1226 515 OFFCURVE",
"1219 507 OFFCURVE",
"1219 500 CURVE SMOOTH",
"1219 488 OFFCURVE",
"1235 484 OFFCURVE",
"1246 484 CURVE SMOOTH",
"1291 484 OFFCURVE",
"1325 526 OFFCURVE",
"1325 562 CURVE SMOOTH",
"1325 621 OFFCURVE",
"1257 633 OFFCURVE",
"1203 633 CURVE SMOOTH",
"1081 633 OFFCURVE",
"919 580 OFFCURVE",
"854 485 CURVE",
"825 558 OFFCURVE",
"762 616 OFFCURVE",
"669 643 CURVE",
"670 647 LINE",
"675 647 OFFCURVE",
"680 648 OFFCURVE",
"684 648 CURVE SMOOTH",
"711 648 OFFCURVE",
"752 649 OFFCURVE",
"766 626 CURVE SMOOTH",
"770 619 OFFCURVE",
"772 615 OFFCURVE",
"782 615 CURVE SMOOTH",
"791 615 OFFCURVE",
"799 620 OFFCURVE",
"799 628 CURVE SMOOTH",
"799 664 OFFCURVE",
"717 676 OFFCURVE",
"688 676 CURVE SMOOTH",
"648 676 OFFCURVE",
"607 670 OFFCURVE",
"569 661 CURVE",
"549 663 OFFCURVE",
"529 663 OFFCURVE",
"509 663 CURVE SMOOTH",
"386 663 OFFCURVE",
"227 634 OFFCURVE",
"124 572 CURVE SMOOTH",
"66 537 OFFCURVE",
"37 491 OFFCURVE",
"37 429 CURVE SMOOTH",
"37 421 OFFCURVE",
"44 415 OFFCURVE",
"53 415 CURVE SMOOTH",
"63 415 OFFCURVE",
"70 421 OFFCURVE",
"70 429 CURVE SMOOTH",
"70 482 OFFCURVE",
"94 520 OFFCURVE",
"144 550 CURVE SMOOTH",
"230 603 OFFCURVE",
"366 631 OFFCURVE",
"470 635 CURVE",
"471 631 LINE",
"312 570 OFFCURVE",
"194 457 OFFCURVE",
"126 319 CURVE SMOOTH",
"100 266 OFFCURVE",
"84 208 OFFCURVE",
"84 150 CURVE SMOOTH",
"84 53 OFFCURVE",
"138 -61 OFFCURVE",
"262 -76 CURVE SMOOTH",
"283 -78 OFFCURVE",
"304 -80 OFFCURVE",
"325 -80 CURVE SMOOTH",
"419 -80 OFFCURVE",
"513 -53 OFFCURVE",
"596 -9 CURVE",
"643 -63 OFFCURVE",
"736 -85 OFFCURVE",
"814 -84 CURVE SMOOTH",
"826 -84 LINE SMOOTH",
"960 -83 OFFCURVE",
"1086 -38 OFFCURVE",
"1188 38 CURVE SMOOTH",
"1215 58 OFFCURVE",
"1246 85 OFFCURVE",
"1263 112 CURVE SMOOTH",
"1275 132 OFFCURVE",
"1284 155 OFFCURVE",
"1284 178 CURVE SMOOTH",
"1284 218 OFFCURVE",
"1253 249 OFFCURVE",
"1205 249 CURVE SMOOTH",
"1196 249 OFFCURVE",
"1188 243 OFFCURVE",
"1188 234 CURVE SMOOTH",
"1188 208 OFFCURVE",
"1250 235 OFFCURVE",
"1250 178 CURVE SMOOTH",
"1250 160 OFFCURVE",
"1243 142 OFFCURVE",
"1233 126 CURVE SMOOTH",
"1220 104 OFFCURVE",
"1195 82 OFFCURVE",
"1174 65 CURVE SMOOTH",
"1078 -10 OFFCURVE",
"953 -50 OFFCURVE",
"825 -55 CURVE SMOOTH",
"813 -55 LINE SMOOTH",
"721 -55 OFFCURVE",
"598 -23 OFFCURVE",
"598 74 CURVE SMOOTH",
"598 91 OFFCURVE",
"602 108 OFFCURVE",
"609 124 CURVE SMOOTH",
"655 231 OFFCURVE",
"757 290 OFFCURVE",
"879 320 CURVE SMOOTH",
"887 322 OFFCURVE",
"894 324 OFFCURVE",
"902 325 CURVE",
"927 315 OFFCURVE",
"955 312 OFFCURVE",
"982 312 CURVE SMOOTH",
"998 312 OFFCURVE",
"1015 313 OFFCURVE",
"1032 315 CURVE SMOOTH",
"1051 317 OFFCURVE",
"1096 331 OFFCURVE",
"1096 352 CURVE SMOOTH",
"1096 368 OFFCURVE",
"1065 369 OFFCURVE",
"1054 369 CURVE SMOOTH",
"1003 369 OFFCURVE",
"953 365 OFFCURVE",
"903 356 CURVE",
"878 368 OFFCURVE",
"861 386 OFFCURVE",
"861 412 CURVE SMOOTH",
"861 432 OFFCURVE",
"870 451 OFFCURVE",
"881 468 CURVE SMOOTH",
"942 559 OFFCURVE",
"1097 606 OFFCURVE",
"1212 606 CURVE SMOOTH",
"1247 606 OFFCURVE",
"1293 600 OFFCURVE",
"1293 561 CURVE SMOOTH",
"1293 543 OFFCURVE",
"1277 511 OFFCURVE",
"1251 511 CURVE SMOOTH"
);
},
{
closed = 1;
nodes = (
"733 313 OFFCURVE",
"629 246 OFFCURVE",
"579 133 CURVE SMOOTH",
"570 114 OFFCURVE",
"565 93 OFFCURVE",
"565 72 CURVE SMOOTH",
"565 51 OFFCURVE",
"570 32 OFFCURVE",
"578 16 CURVE",
"500 -26 OFFCURVE",
"412 -51 OFFCURVE",
"324 -51 CURVE SMOOTH",
"305 -51 OFFCURVE",
"285 -51 OFFCURVE",
"266 -48 CURVE SMOOTH",
"158 -34 OFFCURVE",
"117 64 OFFCURVE",
"117 147 CURVE SMOOTH",
"117 203 OFFCURVE",
"133 257 OFFCURVE",
"158 308 CURVE SMOOTH",
"234 467 OFFCURVE",
"380 589 OFFCURVE",
"574 632 CURVE",
"709 620 OFFCURVE",
"808 554 OFFCURVE",
"833 447 CURVE",
"829 435 OFFCURVE",
"827 424 OFFCURVE",
"827 412 CURVE SMOOTH",
"827 386 OFFCURVE",
"840 365 OFFCURVE",
"863 348 CURVE"
);
}
);
};
layerId = "6A041D6C-A676-4DB4-A570-80A8F8AA896B";
paths = (
{
closed = 1;
nodes = (
"826 -74 LINE SMOOTH",
"960 -73 OFFCURVE",
"1086 -28 OFFCURVE",
"1188 48 CURVE SMOOTH",
"1215 68 OFFCURVE",
"1246 95 OFFCURVE",
"1263 122 CURVE SMOOTH",
"1275 142 OFFCURVE",
"1284 165 OFFCURVE",
"1284 188 CURVE SMOOTH",
"1284 228 OFFCURVE",
"1253 259 OFFCURVE",
"1205 259 CURVE SMOOTH",
"1196 259 OFFCURVE",
"1188 253 OFFCURVE",
"1188 244 CURVE SMOOTH",
"1188 218 OFFCURVE",
"1250 245 OFFCURVE",
"1250 188 CURVE SMOOTH",
"1250 170 OFFCURVE",
"1243 152 OFFCURVE",
"1233 136 CURVE SMOOTH",
"1220 114 OFFCURVE",
"1195 92 OFFCURVE",
"1174 75 CURVE SMOOTH",
"1078 0 OFFCURVE",
"953 -40 OFFCURVE",
"825 -45 CURVE SMOOTH",
"813 -45 LINE SMOOTH",
"721 -45 OFFCURVE",
"598 -13 OFFCURVE",
"598 84 CURVE SMOOTH",
"598 101 OFFCURVE",
"602 118 OFFCURVE",
"609 134 CURVE SMOOTH",
"655 241 OFFCURVE",
"757 300 OFFCURVE",
"879 330 CURVE SMOOTH",
"887 332 OFFCURVE",
"894 334 OFFCURVE",
"902 335 CURVE",
"927 325 OFFCURVE",
"955 322 OFFCURVE",
"982 322 CURVE SMOOTH",
"998 322 OFFCURVE",
"1015 323 OFFCURVE",
"1032 325 CURVE SMOOTH",
"1051 327 OFFCURVE",
"1096 341 OFFCURVE",
"1096 362 CURVE SMOOTH",
"1096 378 OFFCURVE",
"1065 379 OFFCURVE",
"1054 379 CURVE SMOOTH",
"1003 379 OFFCURVE",
"953 375 OFFCURVE",
"903 366 CURVE",
"878 378 OFFCURVE",
"861 396 OFFCURVE",
"861 422 CURVE SMOOTH",
"861 442 OFFCURVE",
"870 461 OFFCURVE",
"881 478 CURVE SMOOTH",
"942 569 OFFCURVE",
"1097 616 OFFCURVE",
"1212 616 CURVE SMOOTH",
"1247 616 OFFCURVE",
"1293 610 OFFCURVE",
"1293 571 CURVE SMOOTH",
"1293 553 OFFCURVE",
"1277 521 OFFCURVE",
"1251 521 CURVE SMOOTH",
"1245 521 OFFCURVE",
"1241 525 OFFCURVE",
"1235 525 CURVE SMOOTH",
"1226 525 OFFCURVE",
"1219 517 OFFCURVE",
"1219 510 CURVE SMOOTH",
"1219 498 OFFCURVE",
"1235 494 OFFCURVE",
"1246 494 CURVE SMOOTH",
"1291 494 OFFCURVE",
"1325 536 OFFCURVE",
"1325 572 CURVE SMOOTH",
"1325 631 OFFCURVE",
"1257 643 OFFCURVE",
"1203 643 CURVE SMOOTH",
"1081 643 OFFCURVE",
"919 590 OFFCURVE",
"854 495 CURVE",
"825 568 OFFCURVE",
"762 626 OFFCURVE",
"669 653 CURVE",
"670 657 LINE",
"675 657 OFFCURVE",
"680 658 OFFCURVE",
"684 658 CURVE SMOOTH",
"711 658 OFFCURVE",
"752 659 OFFCURVE",
"766 636 CURVE SMOOTH",
"770 629 OFFCURVE",
"772 625 OFFCURVE",
"782 625 CURVE SMOOTH",
"791 625 OFFCURVE",
"799 630 OFFCURVE",
"799 638 CURVE SMOOTH",
"799 674 OFFCURVE",
"717 686 OFFCURVE",
"688 686 CURVE SMOOTH",
"648 686 OFFCURVE",
"607 680 OFFCURVE",
"569 671 CURVE",
"549 673 OFFCURVE",
"529 673 OFFCURVE",
"509 673 CURVE SMOOTH",
"386 673 OFFCURVE",
"227 644 OFFCURVE",
"124 582 CURVE SMOOTH",
"66 547 OFFCURVE",
"37 501 OFFCURVE",
"37 439 CURVE SMOOTH",
"37 431 OFFCURVE",
"44 425 OFFCURVE",
"53 425 CURVE SMOOTH",
"63 425 OFFCURVE",
"70 431 OFFCURVE",
"70 439 CURVE SMOOTH",
"70 492 OFFCURVE",
"94 530 OFFCURVE",
"144 560 CURVE SMOOTH",
"230 613 OFFCURVE",
"366 641 OFFCURVE",
"470 645 CURVE",
"471 641 LINE",
"312 580 OFFCURVE",
"194 467 OFFCURVE",
"126 329 CURVE SMOOTH",
"100 276 OFFCURVE",
"84 218 OFFCURVE",
"84 160 CURVE SMOOTH",
"84 63 OFFCURVE",
"138 -51 OFFCURVE",
"262 -66 CURVE SMOOTH",
"283 -68 OFFCURVE",
"304 -70 OFFCURVE",
"325 -70 CURVE SMOOTH",
"419 -70 OFFCURVE",
"513 -43 OFFCURVE",
"596 1 CURVE",
"643 -53 OFFCURVE",
"736 -75 OFFCURVE",
"814 -74 CURVE SMOOTH"
);
},
{
closed = 1;
nodes = (
"305 -41 OFFCURVE",
"285 -41 OFFCURVE",
"266 -38 CURVE SMOOTH",
"158 -24 OFFCURVE",
"117 74 OFFCURVE",
"117 157 CURVE SMOOTH",
"117 213 OFFCURVE",
"133 267 OFFCURVE",
"158 318 CURVE SMOOTH",
"234 477 OFFCURVE",
"380 599 OFFCURVE",
"574 642 CURVE",
"709 630 OFFCURVE",
"808 564 OFFCURVE",
"833 457 CURVE",
"829 445 OFFCURVE",
"827 434 OFFCURVE",
"827 422 CURVE SMOOTH",
"827 396 OFFCURVE",
"840 375 OFFCURVE",
"863 358 CURVE",
"733 323 OFFCURVE",
"629 256 OFFCURVE",
"579 143 CURVE SMOOTH",
"570 124 OFFCURVE",
"565 103 OFFCURVE",
"565 82 CURVE SMOOTH",
"565 61 OFFCURVE",
"570 42 OFFCURVE",
"578 26 CURVE",
"500 -16 OFFCURVE",
"412 -41 OFFCURVE",
"324 -41 CURVE SMOOTH"
);
}
);
width = 1251;
}
);
note = OE;
unicode = 0152;
},
{
glyphname = P;
lastChange = "2022-02-07 22:20:45 +0000";
layers = (
{
background = {
paths = (
{
closed = 1;
nodes = (
"865 625 OFFCURVE",
"678 674 OFFCURVE",
"537 674 CURVE SMOOTH",
"531 674 OFFCURVE",
"526 674 OFFCURVE",
"520 674 CURVE SMOOTH",
"357 669 OFFCURVE",
"135 642 OFFCURVE",
"37 512 CURVE SMOOTH",
"16 484 OFFCURVE",
"0 449 OFFCURVE",
"0 415 CURVE SMOOTH",
"0 404 OFFCURVE",
"1 378 OFFCURVE",
"21 378 CURVE SMOOTH",
"30 378 OFFCURVE",
"38 384 OFFCURVE",
"38 392 CURVE SMOOTH",
"38 401 OFFCURVE",
"33 410 OFFCURVE",
"33 420 CURVE SMOOTH",
"33 451 OFFCURVE",
"48 481 OFFCURVE",
"69 505 CURVE SMOOTH",
"163 617 OFFCURVE",
"373 641 OFFCURVE",
"520 646 CURVE SMOOTH",
"526 646 OFFCURVE",
"532 646 OFFCURVE",
"538 646 CURVE SMOOTH",
"660 646 OFFCURVE",
"832 606 OFFCURVE",
"832 475 CURVE SMOOTH",
"832 453 OFFCURVE",
"827 432 OFFCURVE",
"819 412 CURVE SMOOTH",
"756 260 OFFCURVE",
"523 220 OFFCURVE",
"359 220 CURVE SMOOTH",
"336 220 OFFCURVE",
"312 220 OFFCURVE",
"288 222 CURVE SMOOTH",
"279 222 OFFCURVE",
"269 224 OFFCURVE",
"260 224 CURVE SMOOTH",
"249 224 OFFCURVE",
"241 219 OFFCURVE",
"241 209 CURVE SMOOTH",
"241 201 OFFCURVE",
"247 196 OFFCURVE",
"255 195 CURVE SMOOTH",
"285 190 OFFCURVE",
"323 191 OFFCURVE",
"353 191 CURVE SMOOTH",
"532 191 OFFCURVE",
"781 238 OFFCURVE",
"850 403 CURVE SMOOTH",
"860 426 OFFCURVE",
"865 451 OFFCURVE",
"865 476 CURVE SMOOTH"
);
},
{
closed = 1;
nodes = (
"492 615 OFFCURVE",
"484 621 OFFCURVE",
"476 621 CURVE SMOOTH",
"467 621 OFFCURVE",
"464 617 OFFCURVE",
"460 611 CURVE SMOOTH",
"452 599 OFFCURVE",
"436 589 OFFCURVE",
"424 578 CURVE SMOOTH",
"408 563 OFFCURVE",
"393 547 OFFCURVE",
"378 531 CURVE SMOOTH",
"260 397 OFFCURVE",
"147 223 OFFCURVE",
"98 58 CURVE SMOOTH",
"95 47 OFFCURVE",
"93 37 OFFCURVE",
"93 26 CURVE SMOOTH",
"93 3 OFFCURVE",
"108 -62 OFFCURVE",
"145 -62 CURVE SMOOTH",
"155 -62 OFFCURVE",
"162 -54 OFFCURVE",
"162 -46 CURVE SMOOTH",
"162 -28 OFFCURVE",
"125 -38 OFFCURVE",
"125 19 CURVE SMOOTH",
"125 29 OFFCURVE",
"127 40 OFFCURVE",
"130 50 CURVE SMOOTH",
"179 213 OFFCURVE",
"287 381 OFFCURVE",
"404 514 CURVE SMOOTH",
"415 527 OFFCURVE",
"428 541 OFFCURVE",
"441 553 CURVE SMOOTH",
"449 562 OFFCURVE",
"488 594 OFFCURVE",
"491 602 CURVE SMOOTH",
"492 604 OFFCURVE",
"492 606 OFFCURVE",
"492 607 CURVE SMOOTH"
);
}
);
};
layerId = "6A041D6C-A676-4DB4-A570-80A8F8AA896B";
paths = (
{
closed = 1;
nodes = (
"532 201 OFFCURVE",
"781 248 OFFCURVE",
"850 413 CURVE SMOOTH",
"860 436 OFFCURVE",
"865 461 OFFCURVE",
"865 486 CURVE SMOOTH",
"865 635 OFFCURVE",
"678 684 OFFCURVE",
"537 684 CURVE SMOOTH",
"520 684 LINE SMOOTH",
"357 679 OFFCURVE",
"135 652 OFFCURVE",
"37 522 CURVE SMOOTH",
"16 494 OFFCURVE",
"0 459 OFFCURVE",
"0 425 CURVE SMOOTH",
"0 414 OFFCURVE",
"1 388 OFFCURVE",
"21 388 CURVE SMOOTH",
"30 388 OFFCURVE",
"38 394 OFFCURVE",
"38 402 CURVE SMOOTH",
"38 411 OFFCURVE",
"33 420 OFFCURVE",
"33 430 CURVE SMOOTH",
"33 461 OFFCURVE",
"48 491 OFFCURVE",
"69 515 CURVE SMOOTH",
"163 627 OFFCURVE",
"373 651 OFFCURVE",
"520 656 CURVE SMOOTH",
"538 656 LINE SMOOTH",
"660 656 OFFCURVE",
"832 616 OFFCURVE",
"832 485 CURVE SMOOTH",
"832 463 OFFCURVE",
"827 442 OFFCURVE",
"819 422 CURVE SMOOTH",
"756 270 OFFCURVE",
"523 230 OFFCURVE",
"359 230 CURVE SMOOTH",
"336 230 OFFCURVE",
"312 230 OFFCURVE",
"288 232 CURVE SMOOTH",
"279 232 OFFCURVE",
"269 234 OFFCURVE",
"260 234 CURVE SMOOTH",
"249 234 OFFCURVE",
"241 229 OFFCURVE",
"241 219 CURVE SMOOTH",
"241 211 OFFCURVE",
"247 206 OFFCURVE",
"255 205 CURVE SMOOTH",
"285 200 OFFCURVE",
"323 201 OFFCURVE",
"353 201 CURVE SMOOTH"
);
},
{
closed = 1;
nodes = (
"155 -52 OFFCURVE",
"162 -44 OFFCURVE",
"162 -36 CURVE SMOOTH",
"162 -18 OFFCURVE",
"125 -28 OFFCURVE",
"125 29 CURVE SMOOTH",
"125 39 OFFCURVE",
"127 50 OFFCURVE",
"130 60 CURVE SMOOTH",
"179 223 OFFCURVE",
"287 391 OFFCURVE",
"404 524 CURVE SMOOTH",
"415 537 OFFCURVE",
"428 551 OFFCURVE",
"441 563 CURVE SMOOTH",
"449 572 OFFCURVE",
"488 604 OFFCURVE",
"491 612 CURVE SMOOTH",
"492 614 OFFCURVE",
"492 616 OFFCURVE",
"492 617 CURVE SMOOTH",
"492 625 OFFCURVE",
"484 631 OFFCURVE",
"476 631 CURVE SMOOTH",
"467 631 OFFCURVE",
"464 627 OFFCURVE",
"460 621 CURVE SMOOTH",
"452 609 OFFCURVE",
"436 599 OFFCURVE",
"424 588 CURVE SMOOTH",
"408 573 OFFCURVE",
"393 557 OFFCURVE",
"378 541 CURVE SMOOTH",
"260 407 OFFCURVE",
"147 233 OFFCURVE",
"98 68 CURVE SMOOTH",
"95 57 OFFCURVE",
"93 47 OFFCURVE",
"93 36 CURVE SMOOTH",
"93 13 OFFCURVE",
"108 -52 OFFCURVE",
"145 -52 CURVE SMOOTH"
);
}
);
width = 766;
}
);
note = P;
unicode = 0050;
},
{
glyphname = Thorn;
lastChange = "2022-02-07 22:20:45 +0000";
layers = (
{
background = {
paths = (
{
closed = 1;
nodes = (
"690 507 OFFCURVE",
"539 543 OFFCURVE",
"426 543 CURVE SMOOTH",
"412 543 LINE SMOOTH",
"357 543 OFFCURVE",
"293 537 OFFCURVE",
"232 525 CURVE SMOOTH",
"211 522 OFFCURVE",
"213 494 OFFCURVE",
"242 500 CURVE SMOOTH",
"300 511 OFFCURVE",
"361 517 OFFCURVE",
"412 517 CURVE SMOOTH",
"427 517 LINE SMOOTH",
"522 517 OFFCURVE",
"656 489 OFFCURVE",
"656 396 CURVE SMOOTH",
"656 382 OFFCURVE",
"653 367 OFFCURVE",
"645 352 CURVE SMOOTH",
"596 244 OFFCURVE",
"415 215 OFFCURVE",
"285 215 CURVE SMOOTH",
"266 215 OFFCURVE",
"247 215 OFFCURVE",
"228 216 CURVE SMOOTH",
"225 216 OFFCURVE",
"221 216 OFFCURVE",
"218 217 CURVE",
"214 217 OFFCURVE",
"210 218 OFFCURVE",
"206 218 CURVE SMOOTH",
"195 218 OFFCURVE",
"187 213 OFFCURVE",
"187 204 CURVE SMOOTH",
"187 196 OFFCURVE",
"194 191 OFFCURVE",
"202 191 CURVE",
"222 188 OFFCURVE",
"246 188 OFFCURVE",
"268 188 CURVE SMOOTH",
"272 188 OFFCURVE",
"276 188 OFFCURVE",
"280 188 CURVE SMOOTH",
"422 188 OFFCURVE",
"622 222 OFFCURVE",
"678 343 CURVE SMOOTH",
"686 359 OFFCURVE",
"690 378 OFFCURVE",
"690 397 CURVE SMOOTH"
);
},
{
closed = 1;
nodes = (
"596 689 OFFCURVE",
"587 696 OFFCURVE",
"578 696 CURVE SMOOTH",
"570 696 OFFCURVE",
"563 693 OFFCURVE",
"556 685 CURVE SMOOTH",
"542 672 OFFCURVE",
"533 662 OFFCURVE",
"481 612 CURVE SMOOTH",
"336 475 OFFCURVE",
"204 318 OFFCURVE",
"123 135 CURVE SMOOTH",
"91 65 OFFCURVE",
"74 22 OFFCURVE",
"74 -29 CURVE SMOOTH",
"74 -69 OFFCURVE",
"91 -106 OFFCURVE",
"133 -106 CURVE SMOOTH",
"144 -106 OFFCURVE",
"152 -97 OFFCURVE",
"152 -89 CURVE SMOOTH",
"152 -77 OFFCURVE",
"110 -80 OFFCURVE",
"110 -19 CURVE SMOOTH",
"110 10 OFFCURVE",
"136 74 OFFCURVE",
"155 118 CURVE SMOOTH",
"233 295 OFFCURVE",
"359 450 OFFCURVE",
"494 581 CURVE SMOOTH",
"548 633 OFFCURVE",
"592 667 OFFCURVE",
"595 676 CURVE SMOOTH",
"596 678 OFFCURVE",
"596 680 OFFCURVE",
"596 684 CURVE SMOOTH"
);
}
);
};
layerId = "6A041D6C-A676-4DB4-A570-80A8F8AA896B";
paths = (
{
closed = 1;
nodes = (
"144 -96 OFFCURVE",
"152 -87 OFFCURVE",
"152 -79 CURVE SMOOTH",
"152 -67 OFFCURVE",
"110 -70 OFFCURVE",
"110 -9 CURVE SMOOTH",
"110 20 OFFCURVE",
"136 84 OFFCURVE",
"155 128 CURVE SMOOTH",
"233 305 OFFCURVE",
"359 460 OFFCURVE",
"494 591 CURVE SMOOTH",
"548 643 OFFCURVE",
"592 677 OFFCURVE",
"595 686 CURVE SMOOTH",
"596 688 OFFCURVE",
"596 690 OFFCURVE",
"596 694 CURVE SMOOTH",
"596 699 OFFCURVE",
"587 706 OFFCURVE",
"578 706 CURVE SMOOTH",
"570 706 OFFCURVE",
"563 703 OFFCURVE",
"556 695 CURVE SMOOTH",
"542 682 OFFCURVE",
"533 672 OFFCURVE",
"481 622 CURVE SMOOTH",
"336 485 OFFCURVE",
"204 328 OFFCURVE",
"123 145 CURVE SMOOTH",
"91 75 OFFCURVE",
"74 32 OFFCURVE",
"74 -19 CURVE SMOOTH",
"74 -59 OFFCURVE",
"91 -96 OFFCURVE",
"133 -96 CURVE SMOOTH"
);
},
{
closed = 1;
nodes = (
"280 198 LINE SMOOTH",
"422 198 OFFCURVE",
"622 232 OFFCURVE",
"678 353 CURVE SMOOTH",
"686 369 OFFCURVE",
"690 388 OFFCURVE",
"690 407 CURVE SMOOTH",
"690 517 OFFCURVE",
"539 553 OFFCURVE",
"426 553 CURVE SMOOTH",
"412 553 LINE SMOOTH",
"357 553 OFFCURVE",
"293 547 OFFCURVE",
"232 535 CURVE SMOOTH",
"223 534 OFFCURVE",
"218 527 OFFCURVE",
"218 521 CURVE SMOOTH",
"218 515 OFFCURVE",
"223 509 OFFCURVE",
"234 509 CURVE SMOOTH",
"237 509 OFFCURVE",
"239 509 OFFCURVE",
"242 510 CURVE SMOOTH",
"300 521 OFFCURVE",
"361 527 OFFCURVE",
"412 527 CURVE SMOOTH",
"427 527 LINE SMOOTH",
"522 527 OFFCURVE",
"656 499 OFFCURVE",
"656 406 CURVE SMOOTH",
"656 392 OFFCURVE",
"653 377 OFFCURVE",
"645 362 CURVE SMOOTH",
"596 254 OFFCURVE",
"415 225 OFFCURVE",
"285 225 CURVE SMOOTH",
"266 225 OFFCURVE",
"247 225 OFFCURVE",
"228 226 CURVE SMOOTH",
"225 226 OFFCURVE",
"221 226 OFFCURVE",
"218 227 CURVE",
"214 227 OFFCURVE",
"210 228 OFFCURVE",
"206 228 CURVE SMOOTH",
"195 228 OFFCURVE",
"187 223 OFFCURVE",
"187 214 CURVE SMOOTH",
"187 206 OFFCURVE",
"194 201 OFFCURVE",
"202 201 CURVE",
"222 198 OFFCURVE",
"246 198 OFFCURVE",
"268 198 CURVE SMOOTH"
);
}
);
width = 686;
}
);
note = Thorn;
unicode = 00DE;
},
{
glyphname = Q;
lastChange = "2022-02-07 22:20:45 +0000";
layers = (
{
background = {
paths = (
{
closed = 1;
nodes = (
"871 507 OFFCURVE",
"800 605 OFFCURVE",
"669 643 CURVE",
"670 647 LINE",
"675 647 OFFCURVE",
"680 648 OFFCURVE",
"684 648 CURVE SMOOTH",
"711 648 OFFCURVE",
"752 649 OFFCURVE",
"766 626 CURVE SMOOTH",
"770 619 OFFCURVE",
"772 615 OFFCURVE",
"782 615 CURVE SMOOTH",
"791 615 OFFCURVE",
"799 620 OFFCURVE",
"799 628 CURVE SMOOTH",
"799 664 OFFCURVE",
"717 676 OFFCURVE",
"688 676 CURVE SMOOTH",
"648 676 OFFCURVE",
"607 670 OFFCURVE",
"569 661 CURVE",
"549 663 OFFCURVE",
"529 663 OFFCURVE",
"509 663 CURVE SMOOTH",
"386 663 OFFCURVE",
"227 634 OFFCURVE",
"124 572 CURVE SMOOTH",
"66 537 OFFCURVE",
"37 491 OFFCURVE",
"37 429 CURVE SMOOTH",
"37 421 OFFCURVE",
"44 415 OFFCURVE",
"53 415 CURVE SMOOTH",
"63 415 OFFCURVE",
"70 421 OFFCURVE",
"70 429 CURVE SMOOTH",
"70 482 OFFCURVE",
"94 520 OFFCURVE",
"144 550 CURVE SMOOTH",
"230 603 OFFCURVE",
"366 631 OFFCURVE",
"470 635 CURVE",
"471 631 LINE",
"312 570 OFFCURVE",
"194 457 OFFCURVE",
"126 319 CURVE SMOOTH",
"100 266 OFFCURVE",
"84 208 OFFCURVE",
"84 150 CURVE SMOOTH",
"84 53 OFFCURVE",
"138 -61 OFFCURVE",
"262 -76 CURVE SMOOTH",
"283 -78 OFFCURVE",
"304 -80 OFFCURVE",
"325 -80 CURVE SMOOTH",
"602 -80 OFFCURVE",
"871 147 OFFCURVE",
"871 389 CURVE SMOOTH"
);
},
{
closed = 1;
nodes = (
"765 -178 OFFCURVE",
"758 -172 OFFCURVE",
"748 -172 CURVE SMOOTH",
"739 -172 OFFCURVE",
"731 -178 OFFCURVE",
"731 -186 CURVE SMOOTH",
"731 -191 OFFCURVE",
"726 -200 OFFCURVE",
"723 -204 CURVE SMOOTH",
"701 -232 OFFCURVE",
"661 -242 OFFCURVE",
"624 -242 CURVE SMOOTH",
"455 -242 OFFCURVE",
"265 -86 OFFCURVE",
"100 -86 CURVE SMOOTH",
"94 -86 OFFCURVE",
"88 -86 OFFCURVE",
"82 -87 CURVE SMOOTH",
"44 -91 OFFCURVE",
"3 -125 OFFCURVE",
"3 -159 CURVE SMOOTH",
"3 -195 OFFCURVE",
"43 -221 OFFCURVE",
"76 -236 CURVE SMOOTH",
"78 -237 OFFCURVE",
"81 -238 OFFCURVE",
"84 -238 CURVE SMOOTH",
"93 -238 OFFCURVE",
"100 -231 OFFCURVE",
"100 -223 CURVE SMOOTH",
"100 -207 OFFCURVE",
"41 -197 OFFCURVE",
"41 -158 CURVE SMOOTH",
"41 -128 OFFCURVE",
"73 -114 OFFCURVE",
"103 -114 CURVE SMOOTH",
"263 -114 OFFCURVE",
"448 -272 OFFCURVE",
"625 -272 CURVE SMOOTH",
"677 -272 OFFCURVE",
"727 -256 OFFCURVE",
"753 -215 CURVE SMOOTH",
"758 -208 OFFCURVE",
"765 -194 OFFCURVE",
"765 -186 CURVE SMOOTH"
);
},
{
closed = 1;
nodes = (
"840 163 OFFCURVE",
"582 -51 OFFCURVE",
"324 -51 CURVE SMOOTH",
"305 -51 OFFCURVE",
"285 -51 OFFCURVE",
"266 -48 CURVE SMOOTH",
"158 -34 OFFCURVE",
"117 64 OFFCURVE",
"117 147 CURVE SMOOTH",
"117 203 OFFCURVE",
"133 257 OFFCURVE",
"158 308 CURVE SMOOTH",
"234 467 OFFCURVE",
"380 589 OFFCURVE",
"574 632 CURVE",
"731 618 OFFCURVE",
"840 531 OFFCURVE",
"840 389 CURVE SMOOTH"
);
}
);
};
layerId = "6A041D6C-A676-4DB4-A570-80A8F8AA896B";
paths = (
{
closed = 1;
nodes = (
"602 -70 OFFCURVE",
"871 157 OFFCURVE",
"871 399 CURVE SMOOTH",
"871 517 OFFCURVE",
"800 615 OFFCURVE",
"669 653 CURVE",
"670 657 LINE",
"675 657 OFFCURVE",
"680 658 OFFCURVE",
"684 658 CURVE SMOOTH",
"711 658 OFFCURVE",
"752 659 OFFCURVE",
"766 636 CURVE SMOOTH",
"770 629 OFFCURVE",
"772 625 OFFCURVE",
"782 625 CURVE SMOOTH",
"791 625 OFFCURVE",
"799 630 OFFCURVE",
"799 638 CURVE SMOOTH",
"799 674 OFFCURVE",
"717 686 OFFCURVE",
"688 686 CURVE SMOOTH",
"648 686 OFFCURVE",
"607 680 OFFCURVE",
"569 671 CURVE",
"549 673 OFFCURVE",
"529 673 OFFCURVE",
"509 673 CURVE SMOOTH",
"386 673 OFFCURVE",
"227 644 OFFCURVE",
"124 582 CURVE SMOOTH",
"66 547 OFFCURVE",
"37 501 OFFCURVE",
"37 439 CURVE SMOOTH",
"37 431 OFFCURVE",
"44 425 OFFCURVE",
"53 425 CURVE SMOOTH",
"63 425 OFFCURVE",
"70 431 OFFCURVE",
"70 439 CURVE SMOOTH",
"70 492 OFFCURVE",
"94 530 OFFCURVE",
"144 560 CURVE SMOOTH",
"230 613 OFFCURVE",
"366 641 OFFCURVE",
"470 645 CURVE",
"471 641 LINE",
"312 580 OFFCURVE",
"194 467 OFFCURVE",
"126 329 CURVE SMOOTH",
"100 276 OFFCURVE",
"84 218 OFFCURVE",
"84 160 CURVE SMOOTH",
"84 63 OFFCURVE",
"138 -51 OFFCURVE",
"262 -66 CURVE SMOOTH",
"283 -68 OFFCURVE",
"304 -70 OFFCURVE",
"325 -70 CURVE SMOOTH"
);
},
{
closed = 1;
nodes = (
"677 -262 OFFCURVE",
"727 -246 OFFCURVE",
"753 -205 CURVE SMOOTH",
"758 -198 OFFCURVE",
"765 -184 OFFCURVE",
"765 -176 CURVE SMOOTH",
"765 -168 OFFCURVE",
"758 -162 OFFCURVE",
"748 -162 CURVE SMOOTH",
"739 -162 OFFCURVE",
"731 -168 OFFCURVE",
"731 -176 CURVE SMOOTH",
"731 -181 OFFCURVE",
"726 -190 OFFCURVE",
"723 -194 CURVE SMOOTH",
"701 -222 OFFCURVE",
"661 -232 OFFCURVE",
"624 -232 CURVE SMOOTH",
"455 -232 OFFCURVE",
"265 -76 OFFCURVE",
"100 -76 CURVE SMOOTH",
"94 -76 OFFCURVE",
"88 -76 OFFCURVE",
"82 -77 CURVE SMOOTH",
"44 -81 OFFCURVE",
"3 -115 OFFCURVE",
"3 -149 CURVE SMOOTH",
"3 -185 OFFCURVE",
"43 -211 OFFCURVE",
"76 -226 CURVE SMOOTH",
"78 -227 OFFCURVE",
"81 -228 OFFCURVE",
"84 -228 CURVE SMOOTH",
"93 -228 OFFCURVE",
"100 -221 OFFCURVE",
"100 -213 CURVE SMOOTH",
"100 -197 OFFCURVE",
"41 -187 OFFCURVE",
"41 -148 CURVE SMOOTH",
"41 -118 OFFCURVE",
"73 -104 OFFCURVE",
"103 -104 CURVE SMOOTH",
"263 -104 OFFCURVE",
"448 -262 OFFCURVE",
"625 -262 CURVE SMOOTH"
);
},
{
closed = 1;
nodes = (
"305 -41 OFFCURVE",
"285 -41 OFFCURVE",
"266 -38 CURVE SMOOTH",
"158 -24 OFFCURVE",
"117 74 OFFCURVE",
"117 157 CURVE SMOOTH",
"117 213 OFFCURVE",
"133 267 OFFCURVE",
"158 318 CURVE SMOOTH",
"234 477 OFFCURVE",
"380 599 OFFCURVE",
"574 642 CURVE",
"731 628 OFFCURVE",
"840 541 OFFCURVE",
"840 399 CURVE SMOOTH",
"840 173 OFFCURVE",
"582 -41 OFFCURVE",
"324 -41 CURVE SMOOTH"
);
}
);
width = 816;
}
);
note = Q;
unicode = 0051;
},
{
color = 3;
glyphname = R;
lastChange = "2022-03-02 12:31:27 +0000";
layers = (
{
anchors = (
{
name = bottom;
position = "{314, 0}";
},
{
name = top;
position = "{577, 674}";
}
);
background = {
paths = (
{
closed = 1;
nodes = (
"865 625 OFFCURVE",
"679 674 OFFCURVE",
"537 674 CURVE SMOOTH",
"531 674 OFFCURVE",
"526 674 OFFCURVE",
"520 674 CURVE SMOOTH",
"357 669 OFFCURVE",
"135 642 OFFCURVE",
"37 512 CURVE SMOOTH",
"16 484 OFFCURVE",
"0 449 OFFCURVE",
"0 415 CURVE SMOOTH",
"0 404 OFFCURVE",
"1 378 OFFCURVE",
"21 378 CURVE SMOOTH",
"30 378 OFFCURVE",
"38 384 OFFCURVE",
"38 392 CURVE SMOOTH",
"38 401 OFFCURVE",
"33 410 OFFCURVE",
"33 420 CURVE SMOOTH",
"33 451 OFFCURVE",
"48 481 OFFCURVE",
"69 505 CURVE SMOOTH",
"163 617 OFFCURVE",
"373 641 OFFCURVE",
"520 646 CURVE SMOOTH",
"526 646 OFFCURVE",
"532 646 OFFCURVE",
"538 646 CURVE SMOOTH",
"660 646 OFFCURVE",
"832 606 OFFCURVE",
"832 475 CURVE SMOOTH",
"832 454 OFFCURVE",
"827 432 OFFCURVE",
"819 412 CURVE SMOOTH",
"754 261 OFFCURVE",
"528 220 OFFCURVE",
"363 220 CURVE SMOOTH",
"353 220 OFFCURVE",
"343 220 OFFCURVE",
"333 220 CURVE",
"306 249 OFFCURVE",
"279 278 OFFCURVE",
"250 305 CURVE",
"281 355 OFFCURVE",
"315 405 OFFCURVE",
"352 452 CURVE SMOOTH",
"369 473 OFFCURVE",
"387 493 OFFCURVE",
"404 514 CURVE SMOOTH",
"409 521 OFFCURVE",
"416 529 OFFCURVE",
"416 538 CURVE SMOOTH",
"416 544 OFFCURVE",
"413 548 OFFCURVE",
"407 548 CURVE SMOOTH",
"395 548 OFFCURVE",
"385 538 OFFCURVE",
"378 531 CURVE SMOOTH",
"324 474 OFFCURVE",
"265 393 OFFCURVE",
"223 328 CURVE",
"206 337 OFFCURVE",
"185 344 OFFCURVE",
"165 344 CURVE SMOOTH",
"136 344 OFFCURVE",
"121 328 OFFCURVE",
"121 303 CURVE SMOOTH",
"121 270 OFFCURVE",
"140 250 OFFCURVE",
"168 230 CURVE",
"145 187 OFFCURVE",
"93 71 OFFCURVE",
"93 25 CURVE SMOOTH",
"93 3 OFFCURVE",
"109 -62 OFFCURVE",
"145 -62 CURVE SMOOTH",
"155 -62 OFFCURVE",
"162 -54 OFFCURVE",
"162 -46 CURVE SMOOTH",
"162 -28 OFFCURVE",
"125 -38 OFFCURVE",
"125 19 CURVE SMOOTH",
"125 62 OFFCURVE",
"176 171 OFFCURVE",
"198 213 CURVE",
"247 193 OFFCURVE",
"265 194 OFFCURVE",
"317 191 CURVE",
"336 170 OFFCURVE",
"356 149 OFFCURVE",
"375 128 CURVE SMOOTH",
"409 89 OFFCURVE",
"497 -8 OFFCURVE",
"547 -30 CURVE SMOOTH",
"563 -37 OFFCURVE",
"579 -41 OFFCURVE",
"596 -41 CURVE SMOOTH",
"613 -41 OFFCURVE",
"673 -26 OFFCURVE",
"673 -7 CURVE SMOOTH",
"673 1 OFFCURVE",
"666 8 OFFCURVE",
"657 8 CURVE SMOOTH",
"643 8 OFFCURVE",
"627 -12 OFFCURVE",
"597 -12 CURVE SMOOTH",
"535 -12 OFFCURVE",
"434 106 OFFCURVE",
"401 144 CURVE SMOOTH",
"388 160 OFFCURVE",
"373 175 OFFCURVE",
"359 190 CURVE",
"539 192 OFFCURVE",
"779 239 OFFCURVE",
"850 403 CURVE SMOOTH",
"860 426 OFFCURVE",
"865 451 OFFCURVE",
"865 475 CURVE SMOOTH"
);
},
{
closed = 1;
nodes = (
"261 224 OFFCURVE",
"240 224 OFFCURVE",
"212 238 CURVE",
"220 253 OFFCURVE",
"228 269 OFFCURVE",
"237 284 CURVE",
"255 263 OFFCURVE",
"273 242 OFFCURVE",
"292 222 CURVE"
);
},
{
closed = 1;
nodes = (
"202 292 OFFCURVE",
"194 274 OFFCURVE",
"184 256 CURVE",
"171 269 OFFCURVE",
"154 286 OFFCURVE",
"154 305 CURVE SMOOTH",
"154 317 OFFCURVE",
"163 323 OFFCURVE",
"176 323 CURVE SMOOTH",
"189 323 OFFCURVE",
"203 317 OFFCURVE",
"213 309 CURVE"
);
}
);
};
layerId = "6A041D6C-A676-4DB4-A570-80A8F8AA896B";
paths = (
{
closed = 1;
nodes = (
"155 -52 OFFCURVE",
"162 -44 OFFCURVE",
"162 -36 CURVE SMOOTH",
"162 -18 OFFCURVE",
"125 -28 OFFCURVE",
"125 29 CURVE SMOOTH",
"125 72 OFFCURVE",
"176 181 OFFCURVE",
"198 223 CURVE",
"247 203 OFFCURVE",
"265 204 OFFCURVE",
"317 201 CURVE",
"375 138 LINE SMOOTH",
"410 100 OFFCURVE",
"497 2 OFFCURVE",
"547 -20 CURVE SMOOTH",
"563 -27 OFFCURVE",
"579 -31 OFFCURVE",
"596 -31 CURVE SMOOTH",
"613 -31 OFFCURVE",
"673 -16 OFFCURVE",
"673 3 CURVE SMOOTH",
"673 11 OFFCURVE",
"666 18 OFFCURVE",
"657 18 CURVE SMOOTH",
"643 18 OFFCURVE",
"627 -2 OFFCURVE",
"597 -2 CURVE SMOOTH",
"535 -2 OFFCURVE",
"434 116 OFFCURVE",
"401 154 CURVE SMOOTH",
"388 170 OFFCURVE",
"373 185 OFFCURVE",
"359 200 CURVE",
"539 202 OFFCURVE",
"779 249 OFFCURVE",
"850 413 CURVE SMOOTH",
"860 436 OFFCURVE",
"865 461 OFFCURVE",
"865 485 CURVE SMOOTH",
"865 635 OFFCURVE",
"679 684 OFFCURVE",
"537 684 CURVE SMOOTH",
"520 684 LINE SMOOTH",
"357 684 OFFCURVE",
"135 652 OFFCURVE",
"37 522 CURVE SMOOTH",
"16 494 OFFCURVE",
"0 459 OFFCURVE",
"0 425 CURVE SMOOTH",
"0 414 OFFCURVE",
"1 388 OFFCURVE",
"21 388 CURVE SMOOTH",
"30 388 OFFCURVE",
"38 394 OFFCURVE",
"38 402 CURVE SMOOTH",
"38 411 OFFCURVE",
"33 420 OFFCURVE",
"33 430 CURVE SMOOTH",
"33 461 OFFCURVE",
"48 491 OFFCURVE",
"69 515 CURVE SMOOTH",
"163 627 OFFCURVE",
"373 656 OFFCURVE",
"520 656 CURVE SMOOTH",
"538 656 LINE SMOOTH",
"660 656 OFFCURVE",
"832 616 OFFCURVE",
"832 485 CURVE SMOOTH",
"832 464 OFFCURVE",
"827 442 OFFCURVE",
"819 422 CURVE SMOOTH",
"754 271 OFFCURVE",
"528 230 OFFCURVE",
"363 230 CURVE SMOOTH",
"333 230 LINE",
"306 259 OFFCURVE",
"279 288 OFFCURVE",
"250 315 CURVE",
"281 365 OFFCURVE",
"315 415 OFFCURVE",
"352 462 CURVE SMOOTH",
"369 483 OFFCURVE",
"387 503 OFFCURVE",
"404 524 CURVE SMOOTH",
"409 531 OFFCURVE",
"416 539 OFFCURVE",
"416 548 CURVE SMOOTH",
"416 554 OFFCURVE",
"413 558 OFFCURVE",
"407 558 CURVE SMOOTH",
"395 558 OFFCURVE",
"385 548 OFFCURVE",
"378 541 CURVE SMOOTH",
"324 484 OFFCURVE",
"265 403 OFFCURVE",
"223 338 CURVE",
"206 347 OFFCURVE",
"185 354 OFFCURVE",
"165 354 CURVE SMOOTH",
"136 354 OFFCURVE",
"121 338 OFFCURVE",
"121 313 CURVE SMOOTH",
"121 280 OFFCURVE",
"140 260 OFFCURVE",
"168 240 CURVE",
"145 197 OFFCURVE",
"93 81 OFFCURVE",
"93 35 CURVE SMOOTH",
"93 13 OFFCURVE",
"109 -52 OFFCURVE",
"145 -52 CURVE SMOOTH"
);
},
{
closed = 1;
nodes = (
"171 279 OFFCURVE",
"154 296 OFFCURVE",
"154 315 CURVE SMOOTH",
"154 327 OFFCURVE",
"163 333 OFFCURVE",
"176 333 CURVE SMOOTH",
"189 333 OFFCURVE",
"203 327 OFFCURVE",
"213 319 CURVE",
"202 302 OFFCURVE",
"194 284 OFFCURVE",
"184 266 CURVE"
);
},
{
closed = 1;
nodes = (
"261 234 OFFCURVE",
"240 234 OFFCURVE",
"212 248 CURVE",
"220 263 OFFCURVE",
"228 279 OFFCURVE",
"237 294 CURVE",
"255 273 OFFCURVE",
"273 252 OFFCURVE",
"292 232 CURVE"
);
}
);
width = 766;
}
);
note = R;
unicode = 0052;
},
{
color = 3;
glyphname = S;
lastChange = "2022-03-02 12:34:16 +0000";
layers = (
{
anchors = (
{
name = bottom;
position = "{81, -45}";
},
{
name = cedilla;
position = "{85, -45}";
},
{
name = top;
position = "{500, 615}";
}
);
background = {
paths = (
{
closed = 1;
nodes = (
"677 607 OFFCURVE",
"561 615 OFFCURVE",
"500 615 CURVE SMOOTH",
"367 615 OFFCURVE",
"110 557 OFFCURVE",
"110 413 CURVE SMOOTH",
"110 346 OFFCURVE",
"190 338 OFFCURVE",
"251 338 CURVE SMOOTH",
"321 338 OFFCURVE",
"391 347 OFFCURVE",
"461 347 CURVE SMOOTH",
"525 347 OFFCURVE",
"614 343 OFFCURVE",
"614 269 CURVE SMOOTH",
"614 257 OFFCURVE",
"611 245 OFFCURVE",
"607 234 CURVE SMOOTH",
"553 82 OFFCURVE",
"255 -39 OFFCURVE",
"82 -39 CURVE SMOOTH",
"8 -39 OFFCURVE",
"-59 -16 OFFCURVE",
"-59 58 CURVE SMOOTH",
"-59 124 OFFCURVE",
"0 184 OFFCURVE",
"69 206 CURVE SMOOTH",
"91 213 OFFCURVE",
"113 213 OFFCURVE",
"135 218 CURVE SMOOTH",
"143 220 OFFCURVE",
"148 224 OFFCURVE",
"148 232 CURVE SMOOTH",
"148 240 OFFCURVE",
"142 247 OFFCURVE",
"132 247 CURVE SMOOTH",
"110 247 OFFCURVE",
"80 239 OFFCURVE",
"59 233 CURVE SMOOTH",
"-24 207 OFFCURVE",
"-90 134 OFFCURVE",
"-90 57 CURVE SMOOTH",
"-90 -35 OFFCURVE",
"-13 -65 OFFCURVE",
"81 -65 CURVE SMOOTH",
"273 -65 OFFCURVE",
"579 58 OFFCURVE",
"639 227 CURVE SMOOTH",
"645 242 OFFCURVE",
"648 257 OFFCURVE",
"648 272 CURVE SMOOTH",
"648 363 OFFCURVE",
"545 375 OFFCURVE",
"463 375 CURVE SMOOTH",
"393 375 OFFCURVE",
"324 367 OFFCURVE",
"254 367 CURVE SMOOTH",
"213 367 OFFCURVE",
"144 367 OFFCURVE",
"144 416 CURVE SMOOTH",
"144 421 OFFCURVE",
"145 426 OFFCURVE",
"146 431 CURVE SMOOTH",
"171 543 OFFCURVE",
"390 586 OFFCURVE",
"500 586 CURVE SMOOTH",
"539 586 OFFCURVE",
"644 582 OFFCURVE",
"644 534 CURVE SMOOTH",
"644 504 OFFCURVE",
"609 507 OFFCURVE",
"609 490 CURVE SMOOTH",
"609 482 OFFCURVE",
"618 475 OFFCURVE",
"626 475 CURVE SMOOTH",
"631 475 OFFCURVE",
"634 477 OFFCURVE",
"637 479 CURVE SMOOTH",
"661 496 OFFCURVE",
"677 504 OFFCURVE",
"677 534 CURVE SMOOTH"
);
}
);
};
layerId = "6A041D6C-A676-4DB4-A570-80A8F8AA896B";
paths = (
{
closed = 1;
nodes = (
"273 -55 OFFCURVE",
"579 68 OFFCURVE",
"639 237 CURVE SMOOTH",
"645 252 OFFCURVE",
"648 267 OFFCURVE",
"648 282 CURVE SMOOTH",
"648 373 OFFCURVE",
"545 385 OFFCURVE",
"463 385 CURVE SMOOTH",
"393 385 OFFCURVE",
"324 377 OFFCURVE",
"254 377 CURVE SMOOTH",
"213 377 OFFCURVE",
"144 377 OFFCURVE",
"144 426 CURVE SMOOTH",
"144 431 OFFCURVE",
"145 436 OFFCURVE",
"146 441 CURVE SMOOTH",
"171 553 OFFCURVE",
"390 596 OFFCURVE",
"500 596 CURVE SMOOTH",
"539 596 OFFCURVE",
"644 592 OFFCURVE",
"644 544 CURVE SMOOTH",
"644 514 OFFCURVE",
"609 517 OFFCURVE",
"609 500 CURVE SMOOTH",
"609 492 OFFCURVE",
"618 485 OFFCURVE",
"626 485 CURVE SMOOTH",
"631 485 OFFCURVE",
"634 487 OFFCURVE",
"637 489 CURVE SMOOTH",
"661 506 OFFCURVE",
"677 514 OFFCURVE",
"677 544 CURVE SMOOTH",
"677 617 OFFCURVE",
"561 625 OFFCURVE",
"500 625 CURVE SMOOTH",
"367 625 OFFCURVE",
"110 567 OFFCURVE",
"110 423 CURVE SMOOTH",
"110 356 OFFCURVE",
"190 348 OFFCURVE",
"251 348 CURVE SMOOTH",
"321 348 OFFCURVE",
"391 357 OFFCURVE",
"461 357 CURVE SMOOTH",
"525 357 OFFCURVE",
"614 353 OFFCURVE",
"614 279 CURVE SMOOTH",
"614 267 OFFCURVE",
"611 255 OFFCURVE",
"607 244 CURVE SMOOTH",
"553 92 OFFCURVE",
"255 -29 OFFCURVE",
"82 -29 CURVE SMOOTH",
"8 -29 OFFCURVE",
"-59 -6 OFFCURVE",
"-59 68 CURVE SMOOTH",
"-59 134 OFFCURVE",
"0 194 OFFCURVE",
"69 216 CURVE SMOOTH",
"91 223 OFFCURVE",
"113 223 OFFCURVE",
"135 228 CURVE SMOOTH",
"143 230 OFFCURVE",
"148 234 OFFCURVE",
"148 242 CURVE SMOOTH",
"148 250 OFFCURVE",
"142 257 OFFCURVE",
"132 257 CURVE SMOOTH",
"110 257 OFFCURVE",
"80 249 OFFCURVE",
"59 243 CURVE SMOOTH",
"-24 217 OFFCURVE",
"-90 144 OFFCURVE",
"-90 67 CURVE SMOOTH",
"-90 -25 OFFCURVE",
"-13 -55 OFFCURVE",
"81 -55 CURVE SMOOTH"
);
}
);
width = 612;
}
);
note = S;
unicode = 0053;
},
{
glyphname = Germandbls;
lastChange = "2022-02-07 22:20:45 +0000";
layers = (
{
background = {
paths = (
{
closed = 1;
nodes = (
"383 623 OFFCURVE",
"318 564 OFFCURVE",
"274 505 CURVE SMOOTH",
"206 414 OFFCURVE",
"156 292 OFFCURVE",
"127 214 CURVE SMOOTH",
"101 141 OFFCURVE",
"45 -3 OFFCURVE",
"1 -71 CURVE SMOOTH",
"-35 -126 OFFCURVE",
"-7 -145 OFFCURVE",
"32 -85 CURVE SMOOTH",
"78 -14 OFFCURVE",
"133 133 OFFCURVE",
"163 213 CURVE SMOOTH",
"193 294 OFFCURVE",
"237 403 OFFCURVE",
"296 485 CURVE SMOOTH",
"334 537 OFFCURVE",
"394 592 OFFCURVE",
"459 592 CURVE SMOOTH",
"540 592 OFFCURVE",
"567 530 OFFCURVE",
"494 391 CURVE",
"407 387 OFFCURVE",
"263 349 OFFCURVE",
"263 263 CURVE SMOOTH",
"263 221 OFFCURVE",
"314 216 OFFCURVE",
"352 216 CURVE SMOOTH",
"411 216 OFFCURVE",
"571 228 OFFCURVE",
"571 170 CURVE SMOOTH",
"571 74 OFFCURVE",
"368 -11 OFFCURVE",
"254 -11 CURVE SMOOTH",
"210 -11 OFFCURVE",
"170 -3 OFFCURVE",
"170 42 CURVE SMOOTH",
"170 109 OFFCURVE",
"245 126 OFFCURVE",
"279 139 CURVE SMOOTH",
"284 141 OFFCURVE",
"287 143 OFFCURVE",
"287 148 CURVE SMOOTH",
"287 153 OFFCURVE",
"283 158 OFFCURVE",
"277 158 CURVE SMOOTH",
"263 158 OFFCURVE",
"244 153 OFFCURVE",
"230 149 CURVE SMOOTH",
"178 133 OFFCURVE",
"136 86 OFFCURVE",
"136 37 CURVE SMOOTH",
"136 -21 OFFCURVE",
"185 -40 OFFCURVE",
"244 -40 CURVE SMOOTH",
"390 -40 OFFCURVE",
"604 46 OFFCURVE",
"604 174 CURVE SMOOTH",
"604 252 OFFCURVE",
"497 244 OFFCURVE",
"357 244 CURVE SMOOTH",
"331 244 OFFCURVE",
"299 244 OFFCURVE",
"299 271 CURVE SMOOTH",
"299 337 OFFCURVE",
"434 367 OFFCURVE",
"508 367 CURVE SMOOTH",
"524 368 OFFCURVE",
"529 387 OFFCURVE",
"523 389 CURVE",
"584 490 OFFCURVE",
"602 623 OFFCURVE",
"461 623 CURVE SMOOTH"
);
}
);
};
layerId = "6A041D6C-A676-4DB4-A570-80A8F8AA896B";
paths = (
{
closed = 1;
nodes = (
"0 -112 OFFCURVE",
"15 -101 OFFCURVE",
"32 -75 CURVE SMOOTH",
"78 -4 OFFCURVE",
"133 143 OFFCURVE",
"163 223 CURVE SMOOTH",
"193 304 OFFCURVE",
"237 413 OFFCURVE",
"296 495 CURVE SMOOTH",
"334 547 OFFCURVE",
"394 602 OFFCURVE",
"459 602 CURVE SMOOTH",
"507 602 OFFCURVE",
"537 580 OFFCURVE",
"537 532 CURVE SMOOTH",
"537 500 OFFCURVE",
"523 457 OFFCURVE",
"494 401 CURVE",
"407 397 OFFCURVE",
"263 359 OFFCURVE",
"263 273 CURVE SMOOTH",
"263 231 OFFCURVE",
"314 226 OFFCURVE",
"352 226 CURVE SMOOTH",
"369 226 OFFCURVE",
"395 227 OFFCURVE",
"423 227 CURVE SMOOTH",
"491 227 OFFCURVE",
"571 221 OFFCURVE",
"571 180 CURVE SMOOTH",
"571 84 OFFCURVE",
"368 -1 OFFCURVE",
"254 -1 CURVE SMOOTH",
"210 -1 OFFCURVE",
"170 7 OFFCURVE",
"170 52 CURVE SMOOTH",
"170 119 OFFCURVE",
"245 136 OFFCURVE",
"279 149 CURVE SMOOTH",
"284 151 OFFCURVE",
"287 153 OFFCURVE",
"287 158 CURVE SMOOTH",
"287 163 OFFCURVE",
"283 168 OFFCURVE",
"277 168 CURVE SMOOTH",
"263 168 OFFCURVE",
"244 163 OFFCURVE",
"230 159 CURVE SMOOTH",
"178 143 OFFCURVE",
"136 96 OFFCURVE",
"136 47 CURVE SMOOTH",
"136 -11 OFFCURVE",
"185 -30 OFFCURVE",
"244 -30 CURVE SMOOTH",
"390 -30 OFFCURVE",
"604 56 OFFCURVE",
"604 184 CURVE SMOOTH",
"604 249 OFFCURVE",
"530 254 OFFCURVE",
"425 254 CURVE SMOOTH",
"357 254 LINE SMOOTH",
"331 254 OFFCURVE",
"299 254 OFFCURVE",
"299 281 CURVE SMOOTH",
"299 347 OFFCURVE",
"434 377 OFFCURVE",
"508 377 CURVE SMOOTH",
"520 378 OFFCURVE",
"525 388 OFFCURVE",
"525 394 CURVE SMOOTH",
"525 397 OFFCURVE",
"525 398 OFFCURVE",
"523 399 CURVE",
"550 444 OFFCURVE",
"569 495 OFFCURVE",
"569 538 CURVE SMOOTH",
"569 592 OFFCURVE",
"539 633 OFFCURVE",
"461 633 CURVE SMOOTH",
"383 633 OFFCURVE",
"318 574 OFFCURVE",
"274 515 CURVE SMOOTH",
"206 424 OFFCURVE",
"156 302 OFFCURVE",
"127 224 CURVE SMOOTH",
"101 151 OFFCURVE",
"45 7 OFFCURVE",
"1 -61 CURVE SMOOTH",
"-11 -78 OFFCURVE",
"-16 -92 OFFCURVE",
"-16 -101 CURVE SMOOTH",
"-16 -108 OFFCURVE",
"-13 -112 OFFCURVE",
"-8 -112 CURVE SMOOTH"
);
}
);
width = 624;
}
);
unicode = 1E9E;
},
{
glyphname = Schwa;
lastChange = "2022-02-07 22:20:45 +0000";
layers = (
{
background = {
paths = (
{
closed = 1;
nodes = (
"47 -48 OFFCURVE",
"134 -78 OFFCURVE",
"205 -78 CURVE SMOOTH",
"343 -78 OFFCURVE",
"515 -2 OFFCURVE",
"617 98 CURVE",
"617 98 OFFCURVE",
"624 92 OFFCURVE",
"624 78 CURVE",
"624 72 OFFCURVE",
"629 67 OFFCURVE",
"635 67 CURVE SMOOTH",
"645 67 OFFCURVE",
"651 74 OFFCURVE",
"651 89 CURVE SMOOTH",
"651 100 OFFCURVE",
"650 112 OFFCURVE",
"644 123 CURVE",
"709 192 OFFCURVE",
"762 291 OFFCURVE",
"762 381 CURVE SMOOTH",
"762 506 OFFCURVE",
"657 607 OFFCURVE",
"510 607 CURVE SMOOTH",
"351 607 OFFCURVE",
"231 502 OFFCURVE",
"157 371 CURVE SMOOTH",
"156 369 OFFCURVE",
"155 366 OFFCURVE",
"155 363 CURVE SMOOTH",
"155 356 OFFCURVE",
"161 351 OFFCURVE",
"169 351 CURVE",
"174 352 OFFCURVE",
"177 353 OFFCURVE",
"179 357 CURVE SMOOTH",
"295 534 OFFCURVE",
"409 578 OFFCURVE",
"507 578 CURVE SMOOTH",
"639 578 OFFCURVE",
"729 491 OFFCURVE",
"729 379 CURVE SMOOTH",
"729 293 OFFCURVE",
"684 212 OFFCURVE",
"631 149 CURVE",
"579 231 OFFCURVE",
"481 257 OFFCURVE",
"411 257 CURVE SMOOTH",
"239 257 OFFCURVE",
"47 188 OFFCURVE",
"47 25 CURVE SMOOTH"
);
},
{
closed = 1;
nodes = (
"82 166 OFFCURVE",
"252 228 OFFCURVE",
"411 228 CURVE SMOOTH",
"470 228 OFFCURVE",
"572 211 OFFCURVE",
"608 127 CURVE",
"509 28 OFFCURVE",
"336 -49 OFFCURVE",
"203 -49 CURVE SMOOTH",
"147 -49 OFFCURVE",
"82 -30 OFFCURVE",
"82 28 CURVE SMOOTH"
);
}
);
};
layerId = "6A041D6C-A676-4DB4-A570-80A8F8AA896B";
paths = (
{
closed = 1;
nodes = (
"343 -68 OFFCURVE",
"515 8 OFFCURVE",
"617 108 CURVE",
"617 108 OFFCURVE",
"624 102 OFFCURVE",
"624 88 CURVE SMOOTH",
"624 82 OFFCURVE",
"629 77 OFFCURVE",
"635 77 CURVE SMOOTH",
"645 77 OFFCURVE",
"651 84 OFFCURVE",
"651 99 CURVE SMOOTH",
"651 110 OFFCURVE",
"650 122 OFFCURVE",
"644 133 CURVE",
"709 202 OFFCURVE",
"762 301 OFFCURVE",
"762 391 CURVE SMOOTH",
"762 516 OFFCURVE",
"657 617 OFFCURVE",
"510 617 CURVE SMOOTH",
"351 617 OFFCURVE",
"231 512 OFFCURVE",
"157 381 CURVE SMOOTH",
"156 379 OFFCURVE",
"155 376 OFFCURVE",
"155 373 CURVE SMOOTH",
"155 366 OFFCURVE",
"161 361 OFFCURVE",
"169 361 CURVE",
"174 362 OFFCURVE",
"177 363 OFFCURVE",
"179 367 CURVE SMOOTH",
"295 544 OFFCURVE",
"409 588 OFFCURVE",
"507 588 CURVE SMOOTH",
"639 588 OFFCURVE",
"729 501 OFFCURVE",
"729 389 CURVE SMOOTH",
"729 303 OFFCURVE",
"684 222 OFFCURVE",
"631 159 CURVE",
"579 241 OFFCURVE",
"481 267 OFFCURVE",
"411 267 CURVE SMOOTH",
"239 267 OFFCURVE",
"47 198 OFFCURVE",
"47 35 CURVE SMOOTH",
"47 -38 OFFCURVE",
"134 -68 OFFCURVE",
"205 -68 CURVE SMOOTH"
);
},
{
closed = 1;
nodes = (
"147 -39 OFFCURVE",
"82 -20 OFFCURVE",
"82 38 CURVE SMOOTH",
"82 176 OFFCURVE",
"252 238 OFFCURVE",
"411 238 CURVE SMOOTH",
"470 238 OFFCURVE",
"572 221 OFFCURVE",
"608 137 CURVE",
"509 38 OFFCURVE",
"336 -39 OFFCURVE",
"203 -39 CURVE SMOOTH"
);
}
);
width = 780;
}
);
unicode = 018F;
},
{
color = 3;
glyphname = T;
lastChange = "2022-03-02 12:35:30 +0000";
layers = (
{
anchors = (
{
name = bottom;
position = "{331, -30}";
},
{
name = cedilla;
position = "{337, -19}";
},
{
name = center;
position = "{482, 280}";
},
{
name = top;
position = "{608, 640}";
}
);
background = {
paths = (
{
closed = 1;
nodes = (
"1064 598 OFFCURVE",
"1034 631 OFFCURVE",
"1014 631 CURVE SMOOTH",
"1004 631 OFFCURVE",
"996 623 OFFCURVE",
"996 615 CURVE SMOOTH",
"996 601 OFFCURVE",
"1023 601 OFFCURVE",
"1023 582 CURVE SMOOTH",
"1023 555 OFFCURVE",
"972 554 OFFCURVE",
"951 554 CURVE SMOOTH",
"859 554 OFFCURVE",
"764 577 OFFCURVE",
"676 598 CURVE SMOOTH",
"534 631 OFFCURVE",
"389 669 OFFCURVE",
"242 669 CURVE SMOOTH",
"226 669 OFFCURVE",
"211 669 OFFCURVE",
"195 668 CURVE SMOOTH",
"125 664 OFFCURVE",
"-24 624 OFFCURVE",
"-24 546 CURVE SMOOTH",
"-24 514 OFFCURVE",
"4 490 OFFCURVE",
"32 473 CURVE SMOOTH",
"63 455 OFFCURVE",
"152 449 OFFCURVE",
"189 449 CURVE SMOOTH",
"245 449 OFFCURVE",
"302 456 OFFCURVE",
"356 470 CURVE SMOOTH",
"386 478 OFFCURVE",
"420 488 OFFCURVE",
"446 501 CURVE SMOOTH",
"452 504 OFFCURVE",
"456 507 OFFCURVE",
"456 513 CURVE SMOOTH",
"456 521 OFFCURVE",
"448 530 OFFCURVE",
"438 530 CURVE SMOOTH",
"436 530 OFFCURVE",
"362 502 OFFCURVE",
"347 498 CURVE SMOOTH",
"296 484 OFFCURVE",
"242 478 OFFCURVE",
"188 478 CURVE SMOOTH",
"157 478 OFFCURVE",
"78 482 OFFCURVE",
"52 498 CURVE SMOOTH",
"33 509 OFFCURVE",
"9 526 OFFCURVE",
"9 548 CURVE SMOOTH",
"9 555 OFFCURVE",
"12 561 OFFCURVE",
"16 567 CURVE SMOOTH",
"45 613 OFFCURVE",
"142 635 OFFCURVE",
"198 639 CURVE SMOOTH",
"214 640 OFFCURVE",
"229 640 OFFCURVE",
"245 640 CURVE SMOOTH",
"392 640 OFFCURVE",
"537 603 OFFCURVE",
"677 570 CURVE SMOOTH",
"766 549 OFFCURVE",
"860 526 OFFCURVE",
"952 526 CURVE SMOOTH",
"990 526 OFFCURVE",
"1064 533 OFFCURVE",
"1064 579 CURVE SMOOTH"
);
},
{
closed = 1;
nodes = (
"591 491 OFFCURVE",
"589 508 OFFCURVE",
"572 508 CURVE SMOOTH",
"563 508 OFFCURVE",
"555 502 OFFCURVE",
"555 495 CURVE SMOOTH",
"555 489 OFFCURVE",
"559 485 OFFCURVE",
"559 479 CURVE SMOOTH",
"559 437 OFFCURVE",
"474 293 OFFCURVE",
"450 248 CURVE SMOOTH",
"408 172 OFFCURVE",
"362 95 OFFCURVE",
"330 16 CURVE SMOOTH",
"325 3 OFFCURVE",
"315 -21 OFFCURVE",
"315 -35 CURVE SMOOTH",
"315 -44 OFFCURVE",
"321 -50 OFFCURVE",
"331 -50 CURVE SMOOTH",
"342 -50 OFFCURVE",
"346 -45 OFFCURVE",
"348 -37 CURVE SMOOTH",
"352 -22 OFFCURVE",
"356 -8 OFFCURVE",
"362 7 CURVE SMOOTH",
"394 86 OFFCURVE",
"440 161 OFFCURVE",
"481 236 CURVE SMOOTH",
"510 290 OFFCURVE",
"591 425 OFFCURVE",
"591 479 CURVE SMOOTH"
);
}
);
};
layerId = "6A041D6C-A676-4DB4-A570-80A8F8AA896B";
paths = (
{
closed = 1;
nodes = (
"245 459 OFFCURVE",
"302 466 OFFCURVE",
"356 480 CURVE SMOOTH",
"386 488 OFFCURVE",
"420 498 OFFCURVE",
"446 511 CURVE SMOOTH",
"452 514 OFFCURVE",
"456 517 OFFCURVE",
"456 523 CURVE SMOOTH",
"456 531 OFFCURVE",
"448 540 OFFCURVE",
"438 540 CURVE SMOOTH",
"436 540 OFFCURVE",
"362 512 OFFCURVE",
"347 508 CURVE SMOOTH",
"296 494 OFFCURVE",
"242 488 OFFCURVE",
"188 488 CURVE SMOOTH",
"157 488 OFFCURVE",
"78 492 OFFCURVE",
"52 508 CURVE SMOOTH",
"33 519 OFFCURVE",
"9 536 OFFCURVE",
"9 558 CURVE SMOOTH",
"9 565 OFFCURVE",
"12 571 OFFCURVE",
"16 577 CURVE SMOOTH",
"45 623 OFFCURVE",
"142 645 OFFCURVE",
"198 649 CURVE SMOOTH",
"214 650 OFFCURVE",
"229 650 OFFCURVE",
"245 650 CURVE SMOOTH",
"392 650 OFFCURVE",
"537 613 OFFCURVE",
"677 580 CURVE SMOOTH",
"766 559 OFFCURVE",
"860 536 OFFCURVE",
"952 536 CURVE SMOOTH",
"990 536 OFFCURVE",
"1064 543 OFFCURVE",
"1064 589 CURVE SMOOTH",
"1064 608 OFFCURVE",
"1034 641 OFFCURVE",
"1014 641 CURVE SMOOTH",
"1004 641 OFFCURVE",
"996 633 OFFCURVE",
"996 625 CURVE SMOOTH",
"996 611 OFFCURVE",
"1023 611 OFFCURVE",
"1023 592 CURVE SMOOTH",
"1023 565 OFFCURVE",
"972 564 OFFCURVE",
"951 564 CURVE SMOOTH",
"859 564 OFFCURVE",
"764 587 OFFCURVE",
"676 608 CURVE SMOOTH",
"534 641 OFFCURVE",
"389 679 OFFCURVE",
"242 679 CURVE SMOOTH",
"226 679 OFFCURVE",
"211 679 OFFCURVE",
"195 678 CURVE SMOOTH",
"125 674 OFFCURVE",
"-24 634 OFFCURVE",
"-24 556 CURVE SMOOTH",
"-24 524 OFFCURVE",
"4 500 OFFCURVE",
"32 483 CURVE SMOOTH",
"63 465 OFFCURVE",
"152 459 OFFCURVE",
"189 459 CURVE SMOOTH"
);
},
{
closed = 1;
nodes = (
"342 -40 OFFCURVE",
"346 -35 OFFCURVE",
"348 -27 CURVE SMOOTH",
"352 -12 OFFCURVE",
"356 2 OFFCURVE",
"362 17 CURVE SMOOTH",
"394 96 OFFCURVE",
"440 171 OFFCURVE",
"481 246 CURVE SMOOTH",
"510 300 OFFCURVE",
"591 435 OFFCURVE",
"591 489 CURVE SMOOTH",
"591 501 OFFCURVE",
"589 518 OFFCURVE",
"572 518 CURVE SMOOTH",
"563 518 OFFCURVE",
"555 512 OFFCURVE",
"555 505 CURVE SMOOTH",
"555 499 OFFCURVE",
"559 495 OFFCURVE",
"559 489 CURVE SMOOTH",
"559 447 OFFCURVE",
"474 303 OFFCURVE",
"450 258 CURVE SMOOTH",
"408 182 OFFCURVE",
"362 105 OFFCURVE",
"330 26 CURVE SMOOTH",
"325 13 OFFCURVE",
"315 -11 OFFCURVE",
"315 -25 CURVE SMOOTH",
"315 -34 OFFCURVE",
"321 -40 OFFCURVE",
"331 -40 CURVE SMOOTH"
);
}
);
width = 575;
}
);
note = T;
unicode = 0054;
},
{
color = 3;
glyphname = U;
lastChange = "2022-03-02 12:39:32 +0000";
layers = (
{
anchors = (
{
name = bottom;
position = "{352, 2}";
},
{
name = horn;
position = "{874, 543}";
},
{
name = ogonek;
position = "{732, -20}";
},
{
name = top;
position = "{745, 640}";
}
);
background = {
paths = (
{
closed = 1;
nodes = (
"881 526 OFFCURVE",
"880 533 OFFCURVE",
"874 533 CURVE SMOOTH",
"853 533 OFFCURVE",
"815 469 OFFCURVE",
"807 456 CURVE SMOOTH",
"745 350 OFFCURVE",
"549 23 OFFCURVE",
"400 23 CURVE SMOOTH",
"368 23 OFFCURVE",
"360 44 OFFCURVE",
"360 68 CURVE SMOOTH",
"360 119 OFFCURVE",
"396 196 OFFCURVE",
"420 243 CURVE SMOOTH",
"452 307 OFFCURVE",
"591 548 OFFCURVE",
"591 600 CURVE SMOOTH",
"591 659 OFFCURVE",
"527 678 OFFCURVE",
"471 678 CURVE SMOOTH",
"395 678 OFFCURVE",
"300 650 OFFCURVE",
"236 615 CURVE SMOOTH",
"165 576 OFFCURVE",
"70 507 OFFCURVE",
"28 443 CURVE SMOOTH",
"7 412 OFFCURVE",
"-6 374 OFFCURVE",
"-6 338 CURVE SMOOTH",
"-6 270 OFFCURVE",
"38 245 OFFCURVE",
"111 245 CURVE SMOOTH",
"130 245 OFFCURVE",
"227 255 OFFCURVE",
"227 278 CURVE SMOOTH",
"227 286 OFFCURVE",
"219 293 OFFCURVE",
"209 293 CURVE SMOOTH",
"206 293 OFFCURVE",
"203 292 OFFCURVE",
"200 291 CURVE SMOOTH",
"174 280 OFFCURVE",
"144 274 OFFCURVE",
"115 274 CURVE SMOOTH",
"66 274 OFFCURVE",
"24 285 OFFCURVE",
"24 334 CURVE SMOOTH",
"24 436 OFFCURVE",
"155 540 OFFCURVE",
"246 590 CURVE SMOOTH",
"305 622 OFFCURVE",
"397 653 OFFCURVE",
"467 653 CURVE SMOOTH",
"508 653 OFFCURVE",
"556 639 OFFCURVE",
"556 596 CURVE SMOOTH",
"556 546 OFFCURVE",
"419 316 OFFCURVE",
"389 254 CURVE SMOOTH",
"362 200 OFFCURVE",
"329 119 OFFCURVE",
"329 61 CURVE SMOOTH",
"329 24 OFFCURVE",
"343 -8 OFFCURVE",
"392 -8 CURVE SMOOTH",
"510 -8 OFFCURVE",
"630 142 OFFCURVE",
"689 218 CURVE",
"693 216 LINE",
"671 163 OFFCURVE",
"639 69 OFFCURVE",
"639 13 CURVE SMOOTH",
"639 -14 OFFCURVE",
"647 -41 OFFCURVE",
"684 -41 CURVE SMOOTH",
"700 -41 OFFCURVE",
"743 -34 OFFCURVE",
"743 -16 CURVE SMOOTH",
"743 -12 OFFCURVE",
"740 -8 OFFCURVE",
"734 -8 CURVE SMOOTH",
"722 -8 OFFCURVE",
"711 -15 OFFCURVE",
"697 -15 CURVE SMOOTH",
"677 -15 OFFCURVE",
"672 -2 OFFCURVE",
"672 13 CURVE SMOOTH",
"672 22 OFFCURVE",
"674 30 OFFCURVE",
"675 38 CURVE SMOOTH",
"698 173 OFFCURVE",
"764 303 OFFCURVE",
"837 423 CURVE SMOOTH",
"851 445 OFFCURVE",
"881 496 OFFCURVE",
"881 522 CURVE SMOOTH"
);
}
);
};
layerId = "6A041D6C-A676-4DB4-A570-80A8F8AA896B";
paths = (
{
closed = 1;
nodes = (
"700 -31 OFFCURVE",
"743 -24 OFFCURVE",
"743 -6 CURVE SMOOTH",
"743 -2 OFFCURVE",
"740 2 OFFCURVE",
"734 2 CURVE SMOOTH",
"722 2 OFFCURVE",
"711 -5 OFFCURVE",
"697 -5 CURVE SMOOTH",
"677 -5 OFFCURVE",
"672 8 OFFCURVE",
"672 23 CURVE SMOOTH",
"672 32 OFFCURVE",
"674 40 OFFCURVE",
"675 48 CURVE SMOOTH",
"698 183 OFFCURVE",
"764 313 OFFCURVE",
"837 433 CURVE SMOOTH",
"851 455 OFFCURVE",
"881 506 OFFCURVE",
"881 532 CURVE SMOOTH",
"881 536 OFFCURVE",
"880 543 OFFCURVE",
"874 543 CURVE SMOOTH",
"853 543 OFFCURVE",
"815 479 OFFCURVE",
"807 466 CURVE SMOOTH",
"745 360 OFFCURVE",
"549 33 OFFCURVE",
"400 33 CURVE SMOOTH",
"368 33 OFFCURVE",
"360 54 OFFCURVE",
"360 78 CURVE SMOOTH",
"360 129 OFFCURVE",
"396 206 OFFCURVE",
"420 253 CURVE SMOOTH",
"452 317 OFFCURVE",
"591 558 OFFCURVE",
"591 610 CURVE SMOOTH",
"591 669 OFFCURVE",
"527 688 OFFCURVE",
"471 688 CURVE SMOOTH",
"395 688 OFFCURVE",
"300 660 OFFCURVE",
"236 625 CURVE SMOOTH",
"165 586 OFFCURVE",
"70 517 OFFCURVE",
"28 453 CURVE SMOOTH",
"7 422 OFFCURVE",
"-6 384 OFFCURVE",
"-6 348 CURVE SMOOTH",
"-6 280 OFFCURVE",
"38 255 OFFCURVE",
"111 255 CURVE SMOOTH",
"130 255 OFFCURVE",
"227 265 OFFCURVE",
"227 288 CURVE SMOOTH",
"227 296 OFFCURVE",
"219 303 OFFCURVE",
"209 303 CURVE SMOOTH",
"206 303 OFFCURVE",
"203 302 OFFCURVE",
"200 301 CURVE SMOOTH",
"174 290 OFFCURVE",
"144 284 OFFCURVE",
"115 284 CURVE SMOOTH",
"66 284 OFFCURVE",
"24 295 OFFCURVE",
"24 344 CURVE SMOOTH",
"24 446 OFFCURVE",
"155 550 OFFCURVE",
"246 600 CURVE SMOOTH",
"305 632 OFFCURVE",
"397 663 OFFCURVE",
"467 663 CURVE SMOOTH",
"508 663 OFFCURVE",
"556 649 OFFCURVE",
"556 606 CURVE SMOOTH",
"556 556 OFFCURVE",
"419 326 OFFCURVE",
"389 264 CURVE SMOOTH",
"362 210 OFFCURVE",
"329 129 OFFCURVE",
"329 71 CURVE SMOOTH",
"329 34 OFFCURVE",
"343 2 OFFCURVE",
"392 2 CURVE SMOOTH",
"510 2 OFFCURVE",
"630 152 OFFCURVE",
"689 228 CURVE",
"693 226 LINE",
"671 173 OFFCURVE",
"639 79 OFFCURVE",
"639 23 CURVE SMOOTH",
"639 -4 OFFCURVE",
"647 -31 OFFCURVE",
"684 -31 CURVE SMOOTH"
);
}
);
width = 769;
}
);
note = U;
unicode = 0055;
},
{
glyphname = V;
lastChange = "2022-02-07 22:20:45 +0000";
layers = (
{
background = {
paths = (
{
closed = 1;
nodes = (
"1158 668 OFFCURVE",
"1128 679 OFFCURVE",
"1102 679 CURVE SMOOTH",
"1048 679 OFFCURVE",
"991 643 OFFCURVE",
"953 613 CURVE SMOOTH",
"872 549 OFFCURVE",
"800 474 OFFCURVE",
"732 399 CURVE SMOOTH",
"646 304 OFFCURVE",
"566 204 OFFCURVE",
"493 101 CURVE",
"489 103 LINE",
"517 212 OFFCURVE",
"543 322 OFFCURVE",
"565 433 CURVE SMOOTH",
"574 479 OFFCURVE",
"591 552 OFFCURVE",
"591 598 CURVE SMOOTH",
"591 658 OFFCURVE",
"535 683 OFFCURVE",
"474 683 CURVE SMOOTH",
"397 683 OFFCURVE",
"300 650 OFFCURVE",
"236 615 CURVE SMOOTH",
"134 559 OFFCURVE",
"-11 450 OFFCURVE",
"-11 336 CURVE SMOOTH",
"-11 268 OFFCURVE",
"47 244 OFFCURVE",
"117 244 CURVE SMOOTH",
"135 244 OFFCURVE",
"227 252 OFFCURVE",
"227 276 CURVE SMOOTH",
"227 284 OFFCURVE",
"218 291 OFFCURVE",
"209 291 CURVE SMOOTH",
"206 291 OFFCURVE",
"203 290 OFFCURVE",
"200 289 CURVE SMOOTH",
"175 278 OFFCURVE",
"147 274 OFFCURVE",
"118 274 CURVE SMOOTH",
"66 274 OFFCURVE",
"27 283 OFFCURVE",
"27 335 CURVE SMOOTH",
"27 366 OFFCURVE",
"39 401 OFFCURVE",
"56 428 CURVE SMOOTH",
"123 531 OFFCURVE",
"336 658 OFFCURVE",
"474 658 CURVE SMOOTH",
"521 658 OFFCURVE",
"559 639 OFFCURVE",
"559 594 CURVE SMOOTH",
"559 572 OFFCURVE",
"555 550 OFFCURVE",
"551 529 CURVE SMOOTH",
"544 484 OFFCURVE",
"535 439 OFFCURVE",
"525 395 CURVE SMOOTH",
"496 254 OFFCURVE",
"461 114 OFFCURVE",
"416 -24 CURVE",
"416 -25 OFFCURVE",
"416 -26 OFFCURVE",
"416 -27 CURVE SMOOTH",
"416 -36 OFFCURVE",
"428 -38 OFFCURVE",
"435 -38 CURVE SMOOTH",
"448 -38 OFFCURVE",
"458 -35 OFFCURVE",
"465 -25 CURVE SMOOTH",
"474 -11 OFFCURVE",
"481 5 OFFCURVE",
"489 19 CURVE SMOOTH",
"503 43 OFFCURVE",
"519 68 OFFCURVE",
"535 91 CURVE SMOOTH",
"643 253 OFFCURVE",
"816 467 OFFCURVE",
"975 592 CURVE SMOOTH",
"1003 614 OFFCURVE",
"1061 655 OFFCURVE",
"1101 655 CURVE SMOOTH",
"1111 655 OFFCURVE",
"1123 652 OFFCURVE",
"1123 641 CURVE SMOOTH",
"1123 631 OFFCURVE",
"1127 620 OFFCURVE",
"1141 620 CURVE SMOOTH",
"1154 620 OFFCURVE",
"1158 632 OFFCURVE",
"1158 641 CURVE SMOOTH"
);
}
);
};
layerId = "6A041D6C-A676-4DB4-A570-80A8F8AA896B";
paths = (
{
closed = 1;
nodes = (
"448 -28 OFFCURVE",
"458 -25 OFFCURVE",
"465 -15 CURVE SMOOTH",
"474 -1 OFFCURVE",
"481 15 OFFCURVE",
"489 29 CURVE SMOOTH",
"503 53 OFFCURVE",
"519 78 OFFCURVE",
"535 101 CURVE SMOOTH",
"643 263 OFFCURVE",
"816 477 OFFCURVE",
"975 602 CURVE SMOOTH",
"1003 624 OFFCURVE",
"1061 665 OFFCURVE",
"1101 665 CURVE SMOOTH",
"1111 665 OFFCURVE",
"1123 662 OFFCURVE",
"1123 651 CURVE SMOOTH",
"1123 641 OFFCURVE",
"1127 630 OFFCURVE",
"1141 630 CURVE SMOOTH",
"1154 630 OFFCURVE",
"1158 642 OFFCURVE",
"1158 651 CURVE SMOOTH",
"1158 678 OFFCURVE",
"1128 689 OFFCURVE",
"1102 689 CURVE SMOOTH",
"1048 689 OFFCURVE",
"991 653 OFFCURVE",
"953 623 CURVE SMOOTH",
"872 559 OFFCURVE",
"800 484 OFFCURVE",
"732 409 CURVE SMOOTH",
"646 314 OFFCURVE",
"566 214 OFFCURVE",
"493 111 CURVE",
"489 113 LINE",
"517 222 OFFCURVE",
"543 332 OFFCURVE",
"565 443 CURVE SMOOTH",
"574 489 OFFCURVE",
"591 562 OFFCURVE",
"591 608 CURVE SMOOTH",
"591 668 OFFCURVE",
"535 693 OFFCURVE",
"474 693 CURVE SMOOTH",
"397 693 OFFCURVE",
"300 660 OFFCURVE",
"236 625 CURVE SMOOTH",
"134 569 OFFCURVE",
"-11 460 OFFCURVE",
"-11 346 CURVE SMOOTH",
"-11 278 OFFCURVE",
"47 254 OFFCURVE",
"117 254 CURVE SMOOTH",
"135 254 OFFCURVE",
"227 262 OFFCURVE",
"227 286 CURVE SMOOTH",
"227 294 OFFCURVE",
"218 301 OFFCURVE",
"209 301 CURVE SMOOTH",
"206 301 OFFCURVE",
"203 300 OFFCURVE",
"200 299 CURVE SMOOTH",
"175 288 OFFCURVE",
"147 284 OFFCURVE",
"118 284 CURVE SMOOTH",
"66 284 OFFCURVE",
"27 293 OFFCURVE",
"27 345 CURVE SMOOTH",
"27 376 OFFCURVE",
"39 411 OFFCURVE",
"56 438 CURVE SMOOTH",
"123 541 OFFCURVE",
"336 668 OFFCURVE",
"474 668 CURVE SMOOTH",
"521 668 OFFCURVE",
"559 649 OFFCURVE",
"559 604 CURVE SMOOTH",
"559 582 OFFCURVE",
"555 560 OFFCURVE",
"551 539 CURVE SMOOTH",
"544 494 OFFCURVE",
"535 449 OFFCURVE",
"525 405 CURVE SMOOTH",
"496 264 OFFCURVE",
"461 124 OFFCURVE",
"416 -14 CURVE",
"416 -17 LINE SMOOTH",
"416 -26 OFFCURVE",
"428 -28 OFFCURVE",
"435 -28 CURVE SMOOTH"
);
}
);
width = 692;
}
);
note = V;
unicode = 0056;
},
{
color = 3;
glyphname = W;
lastChange = "2022-03-02 12:43:55 +0000";
layers = (
{
anchors = (
{
name = bottom;
position = "{537, 0}";
},
{
name = top;
position = "{837, 640}";
}
);
background = {
paths = (
{
closed = 1;
nodes = (
"1132 493 OFFCURVE",
"1119 544 OFFCURVE",
"1068 568 CURVE SMOOTH",
"1066 569 OFFCURVE",
"1063 570 OFFCURVE",
"1060 570 CURVE SMOOTH",
"1051 570 OFFCURVE",
"1044 562 OFFCURVE",
"1044 555 CURVE SMOOTH",
"1044 549 OFFCURVE",
"1047 546 OFFCURVE",
"1052 543 CURVE SMOOTH",
"1093 518 OFFCURVE",
"1099 484 OFFCURVE",
"1099 443 CURVE SMOOTH",
"1099 333 OFFCURVE",
"1035 196 OFFCURVE",
"954 113 CURVE SMOOTH",
"911 68 OFFCURVE",
"845 26 OFFCURVE",
"776 26 CURVE SMOOTH",
"686 26 OFFCURVE",
"669 95 OFFCURVE",
"669 159 CURVE SMOOTH",
"669 189 OFFCURVE",
"673 219 OFFCURVE",
"678 248 CURVE",
"733 314 OFFCURVE",
"787 387 OFFCURVE",
"825 462 CURVE SMOOTH",
"826 464 OFFCURVE",
"826 466 OFFCURVE",
"826 468 CURVE SMOOTH",
"826 480 OFFCURVE",
"811 484 OFFCURVE",
"800 484 CURVE SMOOTH",
"723 484 OFFCURVE",
"659 316 OFFCURVE",
"646 260 CURVE",
"598 201 OFFCURVE",
"388 -35 OFFCURVE",
"302 -35 CURVE SMOOTH",
"280 -35 OFFCURVE",
"276 -18 OFFCURVE",
"276 -3 CURVE SMOOTH",
"276 54 OFFCURVE",
"343 192 OFFCURVE",
"374 243 CURVE SMOOTH",
"408 300 OFFCURVE",
"556 548 OFFCURVE",
"557 601 CURVE SMOOTH",
"557 603 LINE SMOOTH",
"557 659 OFFCURVE",
"516 681 OFFCURVE",
"457 681 CURVE SMOOTH",
"383 681 OFFCURVE",
"290 648 OFFCURVE",
"228 615 CURVE SMOOTH",
"153 576 OFFCURVE",
"56 508 OFFCURVE",
"8 444 CURVE SMOOTH",
"-17 411 OFFCURVE",
"-42 365 OFFCURVE",
"-42 325 CURVE SMOOTH",
"-42 265 OFFCURVE",
"17 245 OFFCURVE",
"76 245 CURVE SMOOTH",
"97 245 OFFCURVE",
"193 255 OFFCURVE",
"193 279 CURVE SMOOTH",
"193 287 OFFCURVE",
"186 293 OFFCURVE",
"177 293 CURVE SMOOTH",
"174 293 OFFCURVE",
"172 292 OFFCURVE",
"169 291 CURVE SMOOTH",
"142 281 OFFCURVE",
"113 274 OFFCURVE",
"83 274 CURVE SMOOTH",
"40 274 OFFCURVE",
"-4 281 OFFCURVE",
"-4 326 CURVE SMOOTH",
"-4 474 OFFCURVE",
"299 652 OFFCURVE",
"454 652 CURVE SMOOTH",
"493 652 OFFCURVE",
"524 639 OFFCURVE",
"524 601 CURVE SMOOTH",
"524 561 OFFCURVE",
"373 305 OFFCURVE",
"344 256 CURVE SMOOTH",
"308 195 OFFCURVE",
"242 62 OFFCURVE",
"242 -7 CURVE SMOOTH",
"242 -36 OFFCURVE",
"251 -66 OFFCURVE",
"291 -66 CURVE SMOOTH",
"396 -66 OFFCURVE",
"579 136 OFFCURVE",
"637 202 CURVE",
"633 119 OFFCURVE",
"648 -4 OFFCURVE",
"773 -4 CURVE SMOOTH",
"987 -4 OFFCURVE",
"1132 292 OFFCURVE",
"1132 447 CURVE SMOOTH"
);
}
);
};
layerId = "6A041D6C-A676-4DB4-A570-80A8F8AA896B";
paths = (
{
closed = 1;
nodes = (
"396 -56 OFFCURVE",
"579 146 OFFCURVE",
"637 212 CURVE",
"633 129 OFFCURVE",
"648 6 OFFCURVE",
"773 6 CURVE SMOOTH",
"987 6 OFFCURVE",
"1132 302 OFFCURVE",
"1132 457 CURVE SMOOTH",
"1132 503 OFFCURVE",
"1119 554 OFFCURVE",
"1068 578 CURVE SMOOTH",
"1066 579 OFFCURVE",
"1063 580 OFFCURVE",
"1060 580 CURVE SMOOTH",
"1051 580 OFFCURVE",
"1044 572 OFFCURVE",
"1044 565 CURVE SMOOTH",
"1044 559 OFFCURVE",
"1047 556 OFFCURVE",
"1052 553 CURVE SMOOTH",
"1093 528 OFFCURVE",
"1099 494 OFFCURVE",
"1099 453 CURVE SMOOTH",
"1099 343 OFFCURVE",
"1035 206 OFFCURVE",
"954 123 CURVE SMOOTH",
"911 78 OFFCURVE",
"845 36 OFFCURVE",
"776 36 CURVE SMOOTH",
"686 36 OFFCURVE",
"669 105 OFFCURVE",
"669 169 CURVE SMOOTH",
"669 199 OFFCURVE",
"673 229 OFFCURVE",
"678 258 CURVE",
"733 324 OFFCURVE",
"787 397 OFFCURVE",
"825 472 CURVE SMOOTH",
"826 474 OFFCURVE",
"826 476 OFFCURVE",
"826 478 CURVE SMOOTH",
"826 490 OFFCURVE",
"811 494 OFFCURVE",
"800 494 CURVE SMOOTH",
"723 494 OFFCURVE",
"659 326 OFFCURVE",
"646 270 CURVE",
"598 211 OFFCURVE",
"388 -25 OFFCURVE",
"302 -25 CURVE SMOOTH",
"280 -25 OFFCURVE",
"276 -8 OFFCURVE",
"276 7 CURVE SMOOTH",
"276 64 OFFCURVE",
"343 202 OFFCURVE",
"374 253 CURVE SMOOTH",
"408 310 OFFCURVE",
"557 558 OFFCURVE",
"557 611 CURVE SMOOTH",
"557 613 LINE SMOOTH",
"557 669 OFFCURVE",
"516 691 OFFCURVE",
"457 691 CURVE SMOOTH",
"383 691 OFFCURVE",
"290 658 OFFCURVE",
"228 625 CURVE SMOOTH",
"153 586 OFFCURVE",
"56 518 OFFCURVE",
"8 454 CURVE SMOOTH",
"-17 421 OFFCURVE",
"-42 375 OFFCURVE",
"-42 335 CURVE SMOOTH",
"-42 275 OFFCURVE",
"17 255 OFFCURVE",
"76 255 CURVE SMOOTH",
"97 255 OFFCURVE",
"193 265 OFFCURVE",
"193 289 CURVE SMOOTH",
"193 297 OFFCURVE",
"186 303 OFFCURVE",
"177 303 CURVE SMOOTH",
"174 303 OFFCURVE",
"172 302 OFFCURVE",
"169 301 CURVE SMOOTH",
"142 291 OFFCURVE",
"113 284 OFFCURVE",
"83 284 CURVE SMOOTH",
"40 284 OFFCURVE",
"-4 291 OFFCURVE",
"-4 336 CURVE SMOOTH",
"-4 484 OFFCURVE",
"299 662 OFFCURVE",
"454 662 CURVE SMOOTH",
"493 662 OFFCURVE",
"524 649 OFFCURVE",
"524 611 CURVE SMOOTH",
"524 571 OFFCURVE",
"373 315 OFFCURVE",
"344 266 CURVE SMOOTH",
"308 205 OFFCURVE",
"242 72 OFFCURVE",
"242 3 CURVE SMOOTH",
"242 -26 OFFCURVE",
"251 -56 OFFCURVE",
"291 -56 CURVE SMOOTH"
);
}
);
width = 1033;
}
);
note = W;
unicode = 0057;
},
{
glyphname = X;
lastChange = "2022-02-07 22:20:45 +0000";
layers = (
{
background = {
paths = (
{
closed = 1;
nodes = (
"801 631 OFFCURVE",
"794 638 OFFCURVE",
"786 638 CURVE SMOOTH",
"780 638 OFFCURVE",
"776 635 OFFCURVE",
"773 632 CURVE SMOOTH",
"758 618 OFFCURVE",
"744 605 OFFCURVE",
"729 592 CURVE SMOOTH",
"679 549 OFFCURVE",
"625 509 OFFCURVE",
"572 470 CURVE SMOOTH",
"505 421 OFFCURVE",
"438 373 OFFCURVE",
"371 324 CURVE",
"359 375 OFFCURVE",
"321 544 OFFCURVE",
"273 575 CURVE SMOOTH",
"251 589 OFFCURVE",
"225 600 OFFCURVE",
"198 600 CURVE SMOOTH",
"118 600 OFFCURVE",
"79 522 OFFCURVE",
"74 465 CURVE",
"73 463 LINE",
"73 454 OFFCURVE",
"82 449 OFFCURVE",
"91 449 CURVE SMOOTH",
"99 449 OFFCURVE",
"104 452 OFFCURVE",
"106 459 CURVE SMOOTH",
"110 472 OFFCURVE",
"112 484 OFFCURVE",
"117 497 CURVE SMOOTH",
"129 529 OFFCURVE",
"158 572 OFFCURVE",
"203 572 CURVE SMOOTH",
"223 572 OFFCURVE",
"238 563 OFFCURVE",
"253 552 CURVE SMOOTH",
"299 516 OFFCURVE",
"329 353 OFFCURVE",
"339 300 CURVE",
"178 175 OFFCURVE",
"18 33 OFFCURVE",
"-93 -129 CURVE",
"-95 -131 OFFCURVE",
"-96 -134 OFFCURVE",
"-96 -136 CURVE SMOOTH",
"-96 -145 OFFCURVE",
"-87 -151 OFFCURVE",
"-78 -151 CURVE SMOOTH",
"-72 -151 OFFCURVE",
"-68 -148 OFFCURVE",
"-64 -144 CURVE",
"-35 -104 OFFCURVE",
"-7 -65 OFFCURVE",
"26 -27 CURVE SMOOTH",
"120 81 OFFCURVE",
"231 178 OFFCURVE",
"347 268 CURVE",
"361 192 OFFCURVE",
"373 113 OFFCURVE",
"394 38 CURVE SMOOTH",
"407 -5 OFFCURVE",
"433 -51 OFFCURVE",
"492 -51 CURVE SMOOTH",
"578 -51 OFFCURVE",
"643 39 OFFCURVE",
"668 101 CURVE SMOOTH",
"669 103 OFFCURVE",
"669 105 OFFCURVE",
"669 106 CURVE SMOOTH",
"669 115 OFFCURVE",
"660 121 OFFCURVE",
"651 121 CURVE SMOOTH",
"642 121 OFFCURVE",
"638 117 OFFCURVE",
"635 110 CURVE SMOOTH",
"629 98 OFFCURVE",
"625 86 OFFCURVE",
"618 74 CURVE SMOOTH",
"598 38 OFFCURVE",
"552 -18 OFFCURVE",
"500 -18 CURVE SMOOTH",
"458 -18 OFFCURVE",
"440 17 OFFCURVE",
"430 46 CURVE SMOOTH",
"420 74 OFFCURVE",
"416 104 OFFCURVE",
"411 132 CURVE SMOOTH",
"400 185 OFFCURVE",
"390 238 OFFCURVE",
"378 291 CURVE",
"460 354 OFFCURVE",
"545 415 OFFCURVE",
"628 477 CURVE SMOOTH",
"686 520 OFFCURVE",
"748 564 OFFCURVE",
"797 615 CURVE",
"799 618 OFFCURVE",
"801 621 OFFCURVE",
"801 624 CURVE SMOOTH"
);
}
);
};
layerId = "6A041D6C-A676-4DB4-A570-80A8F8AA896B";
paths = (
{
closed = 1;
nodes = (
"-72 -141 OFFCURVE",
"-68 -138 OFFCURVE",
"-64 -134 CURVE",
"-35 -94 OFFCURVE",
"-7 -55 OFFCURVE",
"26 -17 CURVE SMOOTH",
"120 91 OFFCURVE",
"231 188 OFFCURVE",
"347 278 CURVE",
"361 202 OFFCURVE",
"373 123 OFFCURVE",
"394 48 CURVE SMOOTH",
"407 5 OFFCURVE",
"433 -41 OFFCURVE",
"492 -41 CURVE SMOOTH",
"578 -41 OFFCURVE",
"643 49 OFFCURVE",
"668 111 CURVE SMOOTH",
"669 113 OFFCURVE",
"669 115 OFFCURVE",
"669 116 CURVE SMOOTH",
"669 125 OFFCURVE",
"660 131 OFFCURVE",
"651 131 CURVE SMOOTH",
"642 131 OFFCURVE",
"638 127 OFFCURVE",
"635 120 CURVE SMOOTH",
"629 108 OFFCURVE",
"625 96 OFFCURVE",
"618 84 CURVE SMOOTH",
"598 48 OFFCURVE",
"552 -8 OFFCURVE",
"500 -8 CURVE SMOOTH",
"458 -8 OFFCURVE",
"440 27 OFFCURVE",
"430 56 CURVE SMOOTH",
"420 84 OFFCURVE",
"416 114 OFFCURVE",
"411 142 CURVE SMOOTH",
"400 195 OFFCURVE",
"390 248 OFFCURVE",
"378 301 CURVE",
"460 364 OFFCURVE",
"545 425 OFFCURVE",
"628 487 CURVE SMOOTH",
"686 530 OFFCURVE",
"748 574 OFFCURVE",
"797 625 CURVE",
"799 628 OFFCURVE",
"801 631 OFFCURVE",
"801 634 CURVE SMOOTH",
"801 641 OFFCURVE",
"794 648 OFFCURVE",
"786 648 CURVE SMOOTH",
"780 648 OFFCURVE",
"776 645 OFFCURVE",
"773 642 CURVE SMOOTH",
"758 628 OFFCURVE",
"744 615 OFFCURVE",
"729 602 CURVE SMOOTH",
"679 559 OFFCURVE",
"625 519 OFFCURVE",
"572 480 CURVE SMOOTH",
"371 334 LINE",
"359 385 OFFCURVE",
"321 554 OFFCURVE",
"273 585 CURVE SMOOTH",
"251 599 OFFCURVE",
"225 610 OFFCURVE",
"198 610 CURVE SMOOTH",
"118 610 OFFCURVE",
"79 532 OFFCURVE",
"74 475 CURVE",
"73 473 LINE",
"73 464 OFFCURVE",
"82 459 OFFCURVE",
"91 459 CURVE SMOOTH",
"99 459 OFFCURVE",
"104 462 OFFCURVE",
"106 469 CURVE SMOOTH",
"110 482 OFFCURVE",
"112 494 OFFCURVE",
"117 507 CURVE SMOOTH",
"129 539 OFFCURVE",
"158 582 OFFCURVE",
"203 582 CURVE SMOOTH",
"223 582 OFFCURVE",
"238 573 OFFCURVE",
"253 562 CURVE SMOOTH",
"299 526 OFFCURVE",
"329 363 OFFCURVE",
"339 310 CURVE",
"178 185 OFFCURVE",
"18 43 OFFCURVE",
"-93 -119 CURVE",
"-95 -121 OFFCURVE",
"-96 -124 OFFCURVE",
"-96 -126 CURVE SMOOTH",
"-96 -135 OFFCURVE",
"-87 -141 OFFCURVE",
"-78 -141 CURVE SMOOTH"
);
}
);
width = 673;
}
);
note = X;
unicode = 0058;
},
{
color = 3;
glyphname = Y;
lastChange = "2022-03-02 12:44:47 +0000";
layers = (
{
anchors = (
{
name = bottom;
position = "{698, -99}";
},
{
name = top;
position = "{754, 640}";
}
);
background = {
paths = (
{
closed = 1;
nodes = (
"888 -118 OFFCURVE",
"883 -114 OFFCURVE",
"875 -111 CURVE SMOOTH",
"832 -96 OFFCURVE",
"711 -89 OFFCURVE",
"662 -89 CURVE SMOOTH",
"647 -89 OFFCURVE",
"631 -89 OFFCURVE",
"615 -90 CURVE",
"633 -64 OFFCURVE",
"650 -37 OFFCURVE",
"665 -10 CURVE SMOOTH",
"709 71 OFFCURVE",
"745 156 OFFCURVE",
"781 240 CURVE SMOOTH",
"811 311 OFFCURVE",
"842 383 OFFCURVE",
"869 455 CURVE SMOOTH",
"871 459 OFFCURVE",
"872 463 OFFCURVE",
"872 467 CURVE SMOOTH",
"872 475 OFFCURVE",
"868 484 OFFCURVE",
"857 484 CURVE SMOOTH",
"846 484 OFFCURVE",
"840 476 OFFCURVE",
"835 469 CURVE SMOOTH",
"826 458 OFFCURVE",
"819 444 OFFCURVE",
"811 432 CURVE SMOOTH",
"797 409 OFFCURVE",
"782 386 OFFCURVE",
"767 363 CURVE SMOOTH",
"716 287 OFFCURVE",
"661 211 OFFCURVE",
"595 144 CURVE SMOOTH",
"550 98 OFFCURVE",
"474 30 OFFCURVE",
"399 30 CURVE SMOOTH",
"353 30 OFFCURVE",
"329 50 OFFCURVE",
"329 90 CURVE SMOOTH",
"329 140 OFFCURVE",
"364 207 OFFCURVE",
"391 251 CURVE SMOOTH",
"438 327 OFFCURVE",
"490 402 OFFCURVE",
"529 482 CURVE SMOOTH",
"546 516 OFFCURVE",
"567 567 OFFCURVE",
"567 604 CURVE SMOOTH",
"567 650 OFFCURVE",
"512 662 OFFCURVE",
"469 662 CURVE SMOOTH",
"397 662 OFFCURVE",
"311 632 OFFCURVE",
"248 602 CURVE SMOOTH",
"159 560 OFFCURVE",
"34 440 OFFCURVE",
"34 347 CURVE SMOOTH",
"34 286 OFFCURVE",
"96 259 OFFCURVE",
"159 259 CURVE SMOOTH",
"179 259 OFFCURVE",
"276 270 OFFCURVE",
"276 296 CURVE SMOOTH",
"276 304 OFFCURVE",
"268 311 OFFCURVE",
"259 311 CURVE SMOOTH",
"255 311 OFFCURVE",
"252 310 OFFCURVE",
"248 308 CURVE SMOOTH",
"221 294 OFFCURVE",
"188 287 OFFCURVE",
"156 287 CURVE SMOOTH",
"111 287 OFFCURVE",
"65 304 OFFCURVE",
"65 349 CURVE SMOOTH",
"65 429 OFFCURVE",
"188 541 OFFCURVE",
"264 577 CURVE SMOOTH",
"319 603 OFFCURVE",
"404 637 OFFCURVE",
"467 637 CURVE SMOOTH",
"495 637 OFFCURVE",
"536 627 OFFCURVE",
"536 597 CURVE SMOOTH",
"536 569 OFFCURVE",
"511 518 OFFCURVE",
"498 493 CURVE SMOOTH",
"459 414 OFFCURVE",
"409 340 OFFCURVE",
"362 265 CURVE SMOOTH",
"331 215 OFFCURVE",
"304 149 OFFCURVE",
"304 91 CURVE SMOOTH",
"304 38 OFFCURVE",
"328 1 OFFCURVE",
"395 1 CURVE SMOOTH",
"541 1 OFFCURVE",
"699 212 OFFCURVE",
"769 310 CURVE",
"773 309 LINE",
"731 206 OFFCURVE",
"687 102 OFFCURVE",
"634 3 CURVE SMOOTH",
"615 -31 OFFCURVE",
"594 -63 OFFCURVE",
"569 -93 CURVE",
"452 -103 OFFCURVE",
"307 -132 OFFCURVE",
"205 -183 CURVE SMOOTH",
"168 -201 OFFCURVE",
"94 -245 OFFCURVE",
"94 -287 CURVE SMOOTH",
"94 -335 OFFCURVE",
"159 -348 OFFCURVE",
"203 -348 CURVE SMOOTH",
"364 -348 OFFCURVE",
"499 -228 OFFCURVE",
"588 -123 CURVE",
"617 -120 OFFCURVE",
"646 -119 OFFCURVE",
"675 -119 CURVE SMOOTH",
"718 -119 OFFCURVE",
"761 -122 OFFCURVE",
"804 -128 CURVE SMOOTH",
"825 -131 OFFCURVE",
"846 -134 OFFCURVE",
"866 -140 CURVE SMOOTH",
"868 -141 OFFCURVE",
"870 -141 OFFCURVE",
"872 -141 CURVE SMOOTH",
"882 -141 OFFCURVE",
"888 -133 OFFCURVE",
"888 -126 CURVE SMOOTH"
);
},
{
closed = 1;
nodes = (
"484 -193 OFFCURVE",
"393 -273 OFFCURVE",
"302 -302 CURVE SMOOTH",
"268 -313 OFFCURVE",
"226 -323 OFFCURVE",
"189 -323 CURVE SMOOTH",
"164 -323 OFFCURVE",
"130 -317 OFFCURVE",
"130 -289 CURVE SMOOTH",
"130 -255 OFFCURVE",
"193 -223 OFFCURVE",
"222 -208 CURVE SMOOTH",
"316 -161 OFFCURVE",
"435 -136 OFFCURVE",
"543 -128 CURVE"
);
}
);
};
layerId = "6A041D6C-A676-4DB4-A570-80A8F8AA896B";
paths = (
{
closed = 1;
nodes = (
"364 -338 OFFCURVE",
"499 -218 OFFCURVE",
"588 -113 CURVE",
"617 -110 OFFCURVE",
"646 -109 OFFCURVE",
"675 -109 CURVE SMOOTH",
"718 -109 OFFCURVE",
"761 -112 OFFCURVE",
"804 -118 CURVE SMOOTH",
"825 -121 OFFCURVE",
"846 -124 OFFCURVE",
"866 -130 CURVE SMOOTH",
"868 -131 OFFCURVE",
"870 -131 OFFCURVE",
"872 -131 CURVE SMOOTH",
"882 -131 OFFCURVE",
"888 -123 OFFCURVE",
"888 -116 CURVE SMOOTH",
"888 -108 OFFCURVE",
"883 -104 OFFCURVE",
"875 -101 CURVE SMOOTH",
"832 -86 OFFCURVE",
"711 -79 OFFCURVE",
"662 -79 CURVE SMOOTH",
"647 -79 OFFCURVE",
"631 -79 OFFCURVE",
"615 -80 CURVE",
"633 -54 OFFCURVE",
"650 -27 OFFCURVE",
"665 0 CURVE SMOOTH",
"709 81 OFFCURVE",
"745 166 OFFCURVE",
"781 250 CURVE SMOOTH",
"811 321 OFFCURVE",
"842 393 OFFCURVE",
"869 465 CURVE SMOOTH",
"871 469 OFFCURVE",
"872 473 OFFCURVE",
"872 477 CURVE SMOOTH",
"872 485 OFFCURVE",
"868 494 OFFCURVE",
"857 494 CURVE SMOOTH",
"846 494 OFFCURVE",
"840 486 OFFCURVE",
"835 479 CURVE SMOOTH",
"826 468 OFFCURVE",
"819 454 OFFCURVE",
"811 442 CURVE SMOOTH",
"797 419 OFFCURVE",
"782 396 OFFCURVE",
"767 373 CURVE SMOOTH",
"716 297 OFFCURVE",
"661 221 OFFCURVE",
"595 154 CURVE SMOOTH",
"550 108 OFFCURVE",
"474 40 OFFCURVE",
"399 40 CURVE SMOOTH",
"353 40 OFFCURVE",
"329 60 OFFCURVE",
"329 100 CURVE SMOOTH",
"329 150 OFFCURVE",
"364 217 OFFCURVE",
"391 261 CURVE SMOOTH",
"438 337 OFFCURVE",
"490 412 OFFCURVE",
"529 492 CURVE SMOOTH",
"546 526 OFFCURVE",
"567 577 OFFCURVE",
"567 614 CURVE SMOOTH",
"567 660 OFFCURVE",
"512 672 OFFCURVE",
"469 672 CURVE SMOOTH",
"397 672 OFFCURVE",
"311 642 OFFCURVE",
"248 612 CURVE SMOOTH",
"159 570 OFFCURVE",
"34 450 OFFCURVE",
"34 357 CURVE SMOOTH",
"34 296 OFFCURVE",
"96 269 OFFCURVE",
"159 269 CURVE SMOOTH",
"179 269 OFFCURVE",
"276 280 OFFCURVE",
"276 306 CURVE SMOOTH",
"276 314 OFFCURVE",
"268 321 OFFCURVE",
"259 321 CURVE SMOOTH",
"255 321 OFFCURVE",
"252 320 OFFCURVE",
"248 318 CURVE SMOOTH",
"221 304 OFFCURVE",
"188 297 OFFCURVE",
"156 297 CURVE SMOOTH",
"111 297 OFFCURVE",
"65 314 OFFCURVE",
"65 359 CURVE SMOOTH",
"65 439 OFFCURVE",
"188 551 OFFCURVE",
"264 587 CURVE SMOOTH",
"319 613 OFFCURVE",
"404 647 OFFCURVE",
"467 647 CURVE SMOOTH",
"495 647 OFFCURVE",
"536 637 OFFCURVE",
"536 607 CURVE SMOOTH",
"536 579 OFFCURVE",
"511 528 OFFCURVE",
"498 503 CURVE SMOOTH",
"459 424 OFFCURVE",
"409 350 OFFCURVE",
"362 275 CURVE SMOOTH",
"331 225 OFFCURVE",
"304 159 OFFCURVE",
"304 101 CURVE SMOOTH",
"304 48 OFFCURVE",
"328 11 OFFCURVE",
"395 11 CURVE SMOOTH",
"541 11 OFFCURVE",
"699 222 OFFCURVE",
"769 320 CURVE",
"773 319 LINE",
"731 216 OFFCURVE",
"687 112 OFFCURVE",
"634 13 CURVE SMOOTH",
"615 -21 OFFCURVE",
"594 -53 OFFCURVE",
"569 -83 CURVE",
"452 -93 OFFCURVE",
"307 -122 OFFCURVE",
"205 -173 CURVE SMOOTH",
"168 -191 OFFCURVE",
"94 -235 OFFCURVE",
"94 -277 CURVE SMOOTH",
"94 -325 OFFCURVE",
"159 -338 OFFCURVE",
"203 -338 CURVE SMOOTH"
);
},
{
closed = 1;
nodes = (
"164 -313 OFFCURVE",
"130 -307 OFFCURVE",
"130 -279 CURVE SMOOTH",
"130 -245 OFFCURVE",
"193 -213 OFFCURVE",
"222 -198 CURVE SMOOTH",
"316 -151 OFFCURVE",
"435 -126 OFFCURVE",
"543 -118 CURVE",
"484 -183 OFFCURVE",
"393 -263 OFFCURVE",
"302 -292 CURVE SMOOTH",
"268 -303 OFFCURVE",
"226 -313 OFFCURVE",
"189 -313 CURVE SMOOTH"
);
}
);
width = 827;
}
);
note = Y;
unicode = 0059;
},
{
color = 3;
glyphname = Z;
lastChange = "2022-03-02 12:45:20 +0000";
layers = (
{
anchors = (
{
name = bottom;
position = "{351, 0}";
},
{
name = top;
position = "{681, 630}";
}
);
background = {
paths = (
{
closed = 1;
nodes = (
"1015 576 OFFCURVE",
"977 582 OFFCURVE",
"959 582 CURVE SMOOTH",
"927 582 OFFCURVE",
"893 564 OFFCURVE",
"867 549 CURVE",
"748 572 OFFCURVE",
"638 619 OFFCURVE",
"513 619 CURVE SMOOTH",
"485 619 OFFCURVE",
"456 617 OFFCURVE",
"429 610 CURVE SMOOTH",
"372 596 OFFCURVE",
"308 546 OFFCURVE",
"292 496 CURVE SMOOTH",
"288 484 OFFCURVE",
"286 469 OFFCURVE",
"286 457 CURVE SMOOTH",
"286 445 OFFCURVE",
"289 418 OFFCURVE",
"308 418 CURVE SMOOTH",
"317 418 OFFCURVE",
"324 424 OFFCURVE",
"324 432 CURVE SMOOTH",
"324 441 OFFCURVE",
"319 451 OFFCURVE",
"319 461 CURVE SMOOTH",
"319 470 OFFCURVE",
"321 479 OFFCURVE",
"324 488 CURVE SMOOTH",
"341 530 OFFCURVE",
"389 569 OFFCURVE",
"438 581 CURVE SMOOTH",
"468 588 OFFCURVE",
"500 591 OFFCURVE",
"532 591 CURVE SMOOTH",
"638 591 OFFCURVE",
"741 559 OFFCURVE",
"842 533 CURVE",
"752 474 OFFCURVE",
"671 403 OFFCURVE",
"593 333 CURVE SMOOTH",
"481 231 OFFCURVE",
"366 126 OFFCURVE",
"233 45 CURVE",
"193 57 OFFCURVE",
"93 85 OFFCURVE",
"53 85 CURVE SMOOTH",
"5 85 OFFCURVE",
"-49 56 OFFCURVE",
"-49 10 CURVE SMOOTH",
"-49 -35 OFFCURVE",
"0 -52 OFFCURVE",
"45 -52 CURVE SMOOTH",
"116 -52 OFFCURVE",
"181 -20 OFFCURVE",
"238 13 CURVE",
"396 -41 OFFCURVE",
"524 -119 OFFCURVE",
"699 -126 CURVE SMOOTH",
"757 -128 OFFCURVE",
"836 -121 OFFCURVE",
"885 -92 CURVE SMOOTH",
"901 -83 OFFCURVE",
"927 -64 OFFCURVE",
"927 -46 CURVE SMOOTH",
"928 -37 OFFCURVE",
"920 -30 OFFCURVE",
"910 -29 CURVE SMOOTH",
"900 -29 OFFCURVE",
"898 -34 OFFCURVE",
"894 -41 CURVE SMOOTH",
"887 -55 OFFCURVE",
"882 -59 OFFCURVE",
"866 -69 CURVE SMOOTH",
"824 -94 OFFCURVE",
"754 -99 OFFCURVE",
"703 -97 CURVE SMOOTH",
"543 -91 OFFCURVE",
"415 -19 OFFCURVE",
"271 33 CURVE",
"396 116 OFFCURVE",
"508 216 OFFCURVE",
"618 314 CURVE SMOOTH",
"695 383 OFFCURVE",
"788 472 OFFCURVE",
"880 525 CURVE",
"901 521 OFFCURVE",
"922 517 OFFCURVE",
"944 517 CURVE SMOOTH",
"967 517 OFFCURVE",
"1015 529 OFFCURVE",
"1015 555 CURVE SMOOTH"
);
},
{
closed = 1;
nodes = (
"152 -1 OFFCURVE",
"101 -23 OFFCURVE",
"44 -23 CURVE SMOOTH",
"21 -23 OFFCURVE",
"-16 -17 OFFCURVE",
"-16 8 CURVE SMOOTH",
"-16 38 OFFCURVE",
"22 55 OFFCURVE",
"52 55 CURVE SMOOTH",
"77 55 OFFCURVE",
"170 32 OFFCURVE",
"199 25 CURVE"
);
}
);
};
layerId = "6A041D6C-A676-4DB4-A570-80A8F8AA896B";
paths = (
{
closed = 1;
nodes = (
"773 -116 OFFCURVE",
"841 -108 OFFCURVE",
"885 -82 CURVE SMOOTH",
"901 -73 OFFCURVE",
"927 -53 OFFCURVE",
"927 -34 CURVE SMOOTH",
"927 -26 OFFCURVE",
"919 -20 OFFCURVE",
"910 -19 CURVE SMOOTH",
"900 -19 OFFCURVE",
"898 -24 OFFCURVE",
"894 -31 CURVE SMOOTH",
"887 -45 OFFCURVE",
"882 -49 OFFCURVE",
"866 -59 CURVE SMOOTH",
"829 -81 OFFCURVE",
"771 -87 OFFCURVE",
"723 -87 CURVE SMOOTH",
"554 -87 OFFCURVE",
"421 -11 OFFCURVE",
"271 43 CURVE",
"396 126 OFFCURVE",
"508 226 OFFCURVE",
"618 324 CURVE SMOOTH",
"695 393 OFFCURVE",
"788 482 OFFCURVE",
"880 535 CURVE",
"901 531 OFFCURVE",
"922 527 OFFCURVE",
"944 527 CURVE SMOOTH",
"967 527 OFFCURVE",
"1015 539 OFFCURVE",
"1015 565 CURVE SMOOTH",
"1015 586 OFFCURVE",
"977 592 OFFCURVE",
"959 592 CURVE SMOOTH",
"927 592 OFFCURVE",
"893 574 OFFCURVE",
"867 559 CURVE",
"748 582 OFFCURVE",
"638 629 OFFCURVE",
"513 629 CURVE SMOOTH",
"485 629 OFFCURVE",
"456 627 OFFCURVE",
"429 620 CURVE SMOOTH",
"372 606 OFFCURVE",
"308 556 OFFCURVE",
"292 506 CURVE SMOOTH",
"288 494 OFFCURVE",
"286 479 OFFCURVE",
"286 467 CURVE SMOOTH",
"286 455 OFFCURVE",
"289 428 OFFCURVE",
"308 428 CURVE SMOOTH",
"317 428 OFFCURVE",
"324 434 OFFCURVE",
"324 442 CURVE SMOOTH",
"324 451 OFFCURVE",
"319 461 OFFCURVE",
"319 471 CURVE SMOOTH",
"319 480 OFFCURVE",
"321 489 OFFCURVE",
"324 498 CURVE SMOOTH",
"341 540 OFFCURVE",
"389 579 OFFCURVE",
"438 591 CURVE SMOOTH",
"468 598 OFFCURVE",
"500 601 OFFCURVE",
"532 601 CURVE SMOOTH",
"638 601 OFFCURVE",
"741 569 OFFCURVE",
"842 543 CURVE",
"752 484 OFFCURVE",
"671 413 OFFCURVE",
"593 343 CURVE SMOOTH",
"481 241 OFFCURVE",
"366 136 OFFCURVE",
"233 55 CURVE",
"193 67 OFFCURVE",
"93 95 OFFCURVE",
"53 95 CURVE SMOOTH",
"5 95 OFFCURVE",
"-49 66 OFFCURVE",
"-49 20 CURVE SMOOTH",
"-49 -25 OFFCURVE",
"0 -42 OFFCURVE",
"45 -42 CURVE SMOOTH",
"116 -42 OFFCURVE",
"181 -10 OFFCURVE",
"238 23 CURVE",
"402 -33 OFFCURVE",
"534 -116 OFFCURVE",
"718 -116 CURVE SMOOTH"
);
},
{
closed = 1;
nodes = (
"21 -13 OFFCURVE",
"-16 -7 OFFCURVE",
"-16 18 CURVE SMOOTH",
"-16 48 OFFCURVE",
"22 65 OFFCURVE",
"52 65 CURVE SMOOTH",
"77 65 OFFCURVE",
"170 42 OFFCURVE",
"199 35 CURVE",
"152 9 OFFCURVE",
"101 -13 OFFCURVE",
"44 -13 CURVE SMOOTH"
);
}
);
width = 701;
}
);
note = Z;
unicode = 005A;
},
{
color = 3;
glyphname = a;
lastChange = "2022-03-02 10:48:20 +0000";
layers = (
{
anchors = (
{
name = bottom;
position = "{75, 0}";
},
{
name = ogonek;
position = "{288, 10}";
},
{
name = top;
position = "{247, 335}";
}
);
background = {
paths = (
{
closed = 1;
nodes = (
"416 177 OFFCURVE",
"411 184 OFFCURVE",
"402 184 CURVE SMOOTH",
"396 184 OFFCURVE",
"392 181 OFFCURVE",
"388 176 CURVE SMOOTH",
"363 141 OFFCURVE",
"339 100 OFFCURVE",
"311 63 CURVE SMOOTH",
"301 50 OFFCURVE",
"270 9 OFFCURVE",
"249 13 CURVE SMOOTH",
"237 16 OFFCURVE",
"233 27 OFFCURVE",
"233 43 CURVE SMOOTH",
"233 84 OFFCURVE",
"268 158 OFFCURVE",
"276 173 CURVE",
"279 183 OFFCURVE",
"264 190 OFFCURVE",
"253 190 CURVE SMOOTH",
"248 190 OFFCURVE",
"243 189 OFFCURVE",
"241 186 CURVE SMOOTH",
"233 175 OFFCURVE",
"226 162 OFFCURVE",
"218 151 CURVE SMOOTH",
"195 119 OFFCURVE",
"106 16 OFFCURVE",
"62 16 CURVE SMOOTH",
"40 16 OFFCURVE",
"33 31 OFFCURVE",
"33 50 CURVE SMOOTH",
"33 90 OFFCURVE",
"62 149 OFFCURVE",
"67 160 CURVE SMOOTH",
"88 200 OFFCURVE",
"119 240 OFFCURVE",
"149 270 CURVE SMOOTH",
"173 292 OFFCURVE",
"208 313 OFFCURVE",
"239 313 CURVE SMOOTH",
"265 313 OFFCURVE",
"294 301 OFFCURVE",
"294 265 CURVE SMOOTH",
"294 260 OFFCURVE",
"293 254 OFFCURVE",
"292 248 CURVE SMOOTH",
"290 239 OFFCURVE",
"285 229 OFFCURVE",
"282 220 CURVE SMOOTH",
"279 210 OFFCURVE",
"290 199 OFFCURVE",
"299 199 CURVE SMOOTH",
"309 199 OFFCURVE",
"317 216 OFFCURVE",
"322 236 CURVE SMOOTH",
"324 243 OFFCURVE",
"325 250 OFFCURVE",
"325 257 CURVE SMOOTH",
"325 295 OFFCURVE",
"301 337 OFFCURVE",
"237 337 CURVE SMOOTH",
"200 337 OFFCURVE",
"162 319 OFFCURVE",
"128 289 CURVE SMOOTH",
"93 260 OFFCURVE",
"63 219 OFFCURVE",
"39 178 CURVE SMOOTH",
"27 156 OFFCURVE",
"-2 93 OFFCURVE",
"-2 46 CURVE SMOOTH",
"-2 12 OFFCURVE",
"12 -14 OFFCURVE",
"56 -14 CURVE SMOOTH",
"100 -14 OFFCURVE",
"180 61 OFFCURVE",
"205 90 CURVE",
"209 87 LINE",
"205 72 OFFCURVE",
"200 50 OFFCURVE",
"200 31 CURVE SMOOTH",
"200 9 OFFCURVE",
"211 -11 OFFCURVE",
"250 -11 CURVE SMOOTH",
"291 -11 OFFCURVE",
"316 22 OFFCURVE",
"337 50 CURVE SMOOTH",
"369 92 OFFCURVE",
"416 159 OFFCURVE",
"416 169 CURVE SMOOTH"
);
}
);
};
layerId = "6A041D6C-A676-4DB4-A570-80A8F8AA896B";
paths = (
{
closed = 1;
nodes = (
"100 -4 OFFCURVE",
"180 71 OFFCURVE",
"205 100 CURVE",
"209 97 LINE",
"205 82 OFFCURVE",
"200 60 OFFCURVE",
"200 41 CURVE SMOOTH",
"200 19 OFFCURVE",
"211 -1 OFFCURVE",
"250 -1 CURVE SMOOTH",
"291 -1 OFFCURVE",
"316 32 OFFCURVE",
"337 60 CURVE SMOOTH",
"369 102 OFFCURVE",
"416 169 OFFCURVE",
"416 179 CURVE SMOOTH",
"416 187 OFFCURVE",
"411 194 OFFCURVE",
"402 194 CURVE SMOOTH",
"396 194 OFFCURVE",
"392 191 OFFCURVE",
"388 186 CURVE SMOOTH",
"363 151 OFFCURVE",
"339 110 OFFCURVE",
"311 73 CURVE SMOOTH",
"301 60 OFFCURVE",
"270 19 OFFCURVE",
"249 23 CURVE SMOOTH",
"237 26 OFFCURVE",
"233 37 OFFCURVE",
"233 53 CURVE SMOOTH",
"233 94 OFFCURVE",
"268 168 OFFCURVE",
"276 183 CURVE",
"279 193 OFFCURVE",
"264 200 OFFCURVE",
"253 200 CURVE SMOOTH",
"248 200 OFFCURVE",
"243 199 OFFCURVE",
"241 196 CURVE SMOOTH",
"233 185 OFFCURVE",
"226 172 OFFCURVE",
"218 161 CURVE SMOOTH",
"195 129 OFFCURVE",
"106 26 OFFCURVE",
"62 26 CURVE SMOOTH",
"40 26 OFFCURVE",
"33 41 OFFCURVE",
"33 60 CURVE SMOOTH",
"33 100 OFFCURVE",
"62 159 OFFCURVE",
"67 170 CURVE SMOOTH",
"88 210 OFFCURVE",
"119 250 OFFCURVE",
"149 280 CURVE SMOOTH",
"173 302 OFFCURVE",
"208 323 OFFCURVE",
"239 323 CURVE SMOOTH",
"265 323 OFFCURVE",
"294 311 OFFCURVE",
"294 275 CURVE SMOOTH",
"294 270 OFFCURVE",
"293 264 OFFCURVE",
"292 258 CURVE SMOOTH",
"290 249 OFFCURVE",
"285 239 OFFCURVE",
"282 230 CURVE SMOOTH",
"279 220 OFFCURVE",
"290 209 OFFCURVE",
"299 209 CURVE SMOOTH",
"309 209 OFFCURVE",
"317 226 OFFCURVE",
"322 246 CURVE SMOOTH",
"324 253 OFFCURVE",
"325 260 OFFCURVE",
"325 267 CURVE SMOOTH",
"325 305 OFFCURVE",
"301 347 OFFCURVE",
"237 347 CURVE SMOOTH",
"200 347 OFFCURVE",
"162 329 OFFCURVE",
"128 299 CURVE SMOOTH",
"93 270 OFFCURVE",
"63 229 OFFCURVE",
"39 188 CURVE SMOOTH",
"27 166 OFFCURVE",
"-2 103 OFFCURVE",
"-2 56 CURVE SMOOTH",
"-2 22 OFFCURVE",
"12 -4 OFFCURVE",
"56 -4 CURVE SMOOTH"
);
}
);
width = 349;
}
);
note = a;
unicode = 0061;
},
